<svg width="525" height="760" viewBox="0 0 525 760" fill="none" xmlns="http://www.w3.org/2000/svg">
<path d="M92.5619 581.321C91.9509 580.362 91.5424 579.274 91.2483 578.103C91.1955 577.791 91.0544 577.525 91.0016 577.213C89.9619 571.064 94.0999 565.198 100.247 564.201C101.464 564.004 102.661 564.067 103.811 564.233C104.8 564.393 105.737 564.626 106.607 565.03C108.753 565.965 110.562 567.563 111.769 569.58C112.302 570.456 112.689 571.419 112.957 572.434C113.051 572.803 113.208 573.163 113.277 573.568C114.317 579.717 110.168 585.521 103.989 586.523C103.147 586.659 102.283 586.671 101.471 586.61C100.306 586.543 99.2022 586.273 98.171 585.863C95.8692 584.953 93.8728 583.385 92.5514 581.259L92.5619 581.321ZM94.5255 575.679C95.2221 579.799 99.1311 582.629 103.281 581.956C107.432 581.283 110.206 577.401 109.504 573.25C108.802 569.099 104.899 566.301 100.748 566.974C96.5979 567.647 93.8288 571.56 94.5255 575.679ZM427.416 414.334C425.751 416.239 423.486 417.633 420.802 418.068C415.716 418.893 410.891 416.148 408.763 411.715C408.324 410.824 407.973 409.887 407.799 408.857C407.793 408.826 407.783 408.763 407.772 408.701C407.366 406.298 407.771 403.955 408.771 401.901C409.221 400.962 409.843 400.092 410.544 399.305C412.189 397.467 414.402 396.146 417.055 395.716C421.735 394.957 426.226 397.243 428.576 401.094C429.156 402.059 429.564 403.147 429.853 404.286C429.901 404.567 430.005 404.807 430.053 405.088C430.433 407.335 430.126 409.501 429.267 411.436C428.806 412.505 428.163 413.443 427.411 414.303L427.416 414.334ZM426.212 404.749C425.516 400.629 421.576 397.804 417.457 398.472C413.337 399.14 410.537 403.058 411.234 407.178C411.931 411.298 415.839 414.127 419.99 413.454C424.14 412.781 426.914 408.9 426.212 404.749ZM325.404 580.085C326.298 579.684 327.233 579.34 328.232 579.178C334.379 578.181 340.222 582.396 341.261 588.545C341.557 590.293 341.395 591.986 340.925 593.57C340.594 594.649 340.129 595.687 339.517 596.62C338.112 598.74 336.009 600.331 333.482 601.126C332.993 601.269 332.51 601.444 332.01 601.525C331.386 601.626 330.746 601.634 330.106 601.641C324.68 601.591 319.889 597.719 318.955 592.194C318.681 590.571 318.791 588.95 319.178 587.444C319.451 586.406 319.896 585.436 320.445 584.513C321.596 582.595 323.288 581.038 325.372 580.09L325.404 580.085ZM322.505 590.625C323.201 594.744 327.11 597.574 331.261 596.901C335.411 596.228 338.154 592.352 337.452 588.201C336.75 584.049 332.847 581.251 328.728 581.919C324.608 582.587 321.808 586.505 322.505 590.625ZM408.319 482.848C408.163 482.873 407.97 482.872 407.809 482.866C404.163 483.297 400.663 481.941 398.285 479.44C397.268 478.355 396.411 477.083 395.877 475.63C395.6 474.938 395.416 474.23 395.289 473.481C394.983 471.67 395.166 469.909 395.657 468.258C395.951 467.345 396.318 466.483 396.826 465.696C398.355 463.171 400.858 461.29 403.953 460.628C404.171 460.592 404.348 460.5 404.535 460.469C408.186 459.877 411.67 461.14 414.157 463.526C415.878 465.171 417.142 467.339 417.57 469.867C417.702 470.648 417.74 471.443 417.711 472.218C417.661 473.252 417.445 474.249 417.125 475.199C416.298 477.706 414.68 479.892 412.415 481.286C411.194 482.029 409.811 482.574 408.282 482.822L408.319 482.848ZM407.538 478.228C411.657 477.56 414.462 473.674 413.761 469.523C413.059 465.372 409.124 462.579 405.005 463.247C400.886 463.915 398.085 467.832 398.782 471.952C399.478 476.072 403.387 478.901 407.538 478.228ZM13.3833 474.07C13.261 472.968 13.3 471.871 13.5055 470.812C14.3428 466.283 17.8823 462.566 22.6879 461.787C25.3091 461.362 27.8703 461.908 30.0324 463.129C30.991 463.679 31.8978 464.302 32.675 465.106C34.2605 466.708 35.384 468.803 35.7799 471.144C35.9646 472.236 35.941 473.234 35.8237 474.247C35.3047 479.141 31.6154 483.299 26.4977 484.129C23.8765 484.554 21.3101 483.976 19.1845 482.782C18.1946 482.237 17.246 481.557 16.4689 480.753C14.9823 479.166 13.8692 477.134 13.4734 474.793C13.4312 474.543 13.4567 474.315 13.4145 474.065L13.3833 474.07ZM16.9609 473.234C17.6575 477.353 21.5664 480.183 25.6854 479.515C29.8045 478.847 32.61 474.961 31.9081 470.81C31.2062 466.658 27.3026 463.86 23.1523 464.533C19.002 465.206 16.2643 469.114 16.9609 473.234ZM47.1272 529.91C46.8633 528.35 46.9533 526.796 47.2881 525.363C48.3288 521.089 51.7857 517.643 56.3729 516.899C57.4027 516.732 58.4017 516.762 59.3801 516.86C62.0915 517.158 64.6074 518.385 66.4434 520.332C67.0641 520.969 67.5758 521.72 68.0303 522.512C68.673 523.658 69.1703 524.892 69.4025 526.266C69.6347 527.639 69.5649 528.933 69.3338 530.221C68.4966 534.75 64.9571 538.467 60.1203 539.251C59.2777 539.388 58.4453 539.394 57.6388 539.365C54.756 539.191 52.1047 537.921 50.1592 535.896C49.4291 535.181 48.8651 534.31 48.3582 533.398C47.7573 532.309 47.3071 531.164 47.0908 529.884L47.1272 529.91ZM50.6512 528.377C51.3478 532.497 55.2514 535.295 59.3705 534.627C63.4895 533.959 66.295 530.073 65.5984 525.953C64.9018 521.833 60.9929 519.004 56.8426 519.677C52.6923 520.35 49.9545 524.257 50.6512 528.377ZM172.295 613.349C173.042 612.458 173.903 611.677 174.922 611.063C176.111 610.325 177.494 609.78 178.961 609.542C185.139 608.54 190.982 612.755 192.027 618.935C192.032 618.966 192.037 618.998 192.043 619.029C192.243 620.215 192.183 621.379 192.02 622.496C191.681 624.667 190.734 626.648 189.338 628.254C188.555 629.118 187.657 629.873 186.638 630.487C185.469 631.158 184.175 631.656 182.77 631.884C176.654 632.876 170.822 628.723 169.757 622.611L169.746 622.548C169.551 621.394 169.58 620.235 169.743 619.118C170.05 616.951 170.961 614.944 172.357 613.339L172.295 613.349ZM173.208 621.025C173.904 625.145 177.808 627.943 181.927 627.275C186.046 626.607 188.852 622.721 188.155 618.601C187.458 614.481 183.55 611.652 179.399 612.325C175.249 612.998 172.511 616.905 173.208 621.025ZM246.741 592.874C246.79 591.648 247.073 590.479 247.497 589.385C248.878 585.794 252.055 582.969 256.112 582.312C259.575 581.75 262.908 582.877 265.39 585.04C266.292 585.823 267.054 586.726 267.712 587.774C268.422 588.941 268.93 590.238 269.172 591.674C269.331 592.61 269.328 593.54 269.257 594.45C269.146 595.686 268.862 596.855 268.407 597.955C266.964 601.363 263.853 604.016 259.89 604.659C256.583 605.195 253.365 604.178 250.915 602.202C249.982 601.424 249.126 600.536 248.437 599.494C247.653 598.274 247.094 596.857 246.83 595.297C246.692 594.485 246.68 593.654 246.704 592.848L246.741 592.874ZM250.385 593.758C251.081 597.878 254.99 600.708 259.14 600.035C263.291 599.361 266.065 595.48 265.363 591.329C264.661 587.178 260.758 584.38 256.607 585.053C252.457 585.726 249.688 589.638 250.385 593.758ZM255.231 642.516C255.311 641.285 255.594 640.116 256.049 639.016C257.482 635.545 260.592 632.892 264.555 632.25C267.926 631.703 271.149 632.752 273.573 634.764C274.506 635.542 275.362 636.43 276.02 637.477C276.803 638.697 277.363 640.113 277.616 641.612C277.759 642.454 277.797 643.25 277.742 644.06C277.662 645.292 277.378 646.46 276.954 647.555C275.568 651.115 272.417 653.903 268.329 654.566C264.896 655.122 261.6 654.021 259.124 651.89C258.222 651.106 257.398 650.213 256.771 649.161C256.061 647.993 255.516 646.671 255.273 645.235C255.12 644.33 255.123 643.399 255.199 642.521L255.231 642.516ZM258.829 643.696C259.525 647.816 263.434 650.646 267.584 649.973C271.735 649.299 274.509 645.418 273.807 641.267C273.105 637.116 269.201 634.318 265.051 634.991C260.901 635.664 258.132 639.576 258.829 643.696ZM144.729 -12.3309C174.405 -17.1435 204.041 -14.991 232.66 -6.90162C319.461 17.6306 396.794 97.0899 436.541 204.739C446.014 230.427 453.39 257.739 458.213 286.266C463.037 314.793 465.098 343.287 464.55 371.146C464.577 371.302 464.535 371.437 464.531 371.598C464.479 430.642 452.488 486.01 430.941 533.02C434.063 535.367 436.407 538.611 437.504 542.441C438.836 547.099 438.317 551.994 435.986 556.22C433.36 560.975 428.784 564.25 423.401 565.219L422.09 565.432C419.437 565.67 416.846 565.32 414.362 564.472C388.59 607.164 353.888 640.466 312.639 659.694L314.132 668.526L285.723 711.358C283.934 713.86 281.565 715.399 278.881 715.834C276.197 716.269 273.448 715.561 270.962 713.751L230.419 684.443L229.343 678.076C215.17 678.066 201.118 676.496 187.246 673.519C171.933 680.043 157.347 678.721 146.372 660.458C134.31 655.296 122.515 649.063 111.036 641.85C101.69 641.185 93.0672 636.074 86.0148 624.134C35.373 584.022 -6.60707 523.841 -31.7065 451.624C-32.5709 449.167 -33.3987 446.736 -34.2006 444.268C-42.7284 420.19 -49.3181 395.06 -53.6772 369.28C-58.5008 340.753 -60.5087 312.57 -59.9963 285.262C-57.8087 170.781 -10.7264 71.1451 63.3979 20.5156C87.8325 3.8545 115.146 -7.53349 144.823 -12.3461L144.729 -12.3309ZM169.517 598.439C179.018 590.164 187.173 584.16 193.819 580.613C190.59 577.064 184.617 575.115 179.281 575.98C168.484 577.731 156.504 587.466 143.818 597.764L142.889 598.525C129.019 609.785 109.65 623.412 94.7456 626.47C112.867 646.042 145.104 619.779 169.548 598.434L169.517 598.439ZM400.924 521.405C400.847 521.706 400.8 522.002 400.723 522.303L409.1 526.909C409.292 526.526 409.484 526.142 409.649 525.794C410.768 523.496 411.844 521.141 412.895 518.822C413.335 517.821 413.78 516.851 414.22 515.85C415.213 513.572 416.207 511.295 417.158 508.96C417.572 507.995 417.95 507.004 418.333 506.044C419.279 503.678 420.22 501.28 421.13 498.888C421.461 498.001 421.787 497.082 422.112 496.163C422.986 493.745 423.896 491.353 424.733 488.908C425.074 487.891 425.373 486.816 425.714 485.799C426.499 483.427 427.253 481.06 427.976 478.698C428.254 477.691 428.569 476.71 428.879 475.697C429.617 473.237 430.288 470.755 430.964 468.305C431.216 467.334 431.505 466.389 431.784 465.382C432.434 462.968 433.01 460.501 433.618 458.029C433.855 456.965 434.128 455.927 434.396 454.857C434.958 452.489 435.452 450.1 435.977 447.706C436.213 446.642 436.419 445.582 436.656 444.518C437.165 442.03 437.674 439.542 438.121 437.065C438.28 436.109 438.439 435.154 438.603 434.229C439.05 431.752 439.528 429.269 439.907 426.77C440.061 425.784 440.178 424.77 440.332 423.783C440.711 421.285 441.059 418.791 441.37 416.272C441.503 415.16 441.672 414.074 441.804 412.963C442.106 410.573 442.339 408.162 442.573 405.751C442.679 404.676 442.817 403.595 442.924 402.52C443.126 400.114 443.329 397.708 443.531 395.302C443.606 394.232 443.713 393.156 443.752 392.06C443.918 389.628 444.084 387.196 444.213 384.738C444.258 383.672 444.297 382.576 444.341 381.51C444.46 378.99 444.584 376.5 444.635 373.959C444.664 372.992 444.688 371.994 444.68 371.001C444.731 368.46 444.751 365.923 444.74 363.392C444.738 362.43 444.767 361.463 444.764 360.502C444.753 357.97 444.674 355.418 444.632 352.891C444.624 351.899 444.591 350.942 444.552 349.954C444.478 347.433 444.368 344.885 444.263 342.369C444.23 341.412 444.16 340.43 444.095 339.478C443.985 336.931 443.843 334.388 443.666 331.82C443.601 330.868 443.5 329.89 443.404 328.944C443.2 326.412 442.996 323.879 442.725 321.326C442.613 320.286 442.564 319.236 442.452 318.195C442.202 315.767 441.884 313.317 441.597 310.863C441.485 309.822 441.373 308.782 441.225 307.716C440.912 305.298 440.594 302.848 440.245 300.403C440.071 299.373 439.923 298.307 439.78 297.272C439.404 294.672 439.029 292.071 438.585 289.449L438.533 289.137C438.395 288.326 438.263 287.545 438.126 286.734C437.72 284.33 437.287 281.964 436.824 279.602C436.645 278.54 436.408 277.521 436.197 276.464C435.692 274.045 435.223 271.652 434.692 269.269C434.45 268.218 434.245 267.193 434.008 266.173C433.472 263.759 432.91 261.381 432.347 259.003C432.111 257.983 431.838 256.937 431.601 255.917C431.007 253.544 430.408 251.14 429.784 248.772C429.511 247.726 429.212 246.717 428.939 245.671C428.314 243.303 427.627 240.945 426.945 238.619C426.646 237.609 426.347 236.599 426.043 235.558C425.319 233.174 424.6 230.822 423.851 228.474C423.521 227.469 423.222 226.46 422.891 225.455C422.111 223.113 421.335 220.801 420.56 218.49C420.193 217.459 419.826 216.428 419.434 215.434C418.565 213.137 417.664 210.846 416.769 208.587C416.376 207.592 415.984 206.597 415.591 205.603C414.66 203.317 413.733 201.062 412.771 198.781C412.347 197.792 411.928 196.833 411.505 195.844C410.516 193.599 409.527 191.355 408.507 189.115C408.052 188.13 407.592 187.115 407.137 186.13C406.075 183.833 404.988 181.573 403.895 179.281C403.461 178.421 403.027 177.562 402.588 176.671C401.464 174.384 400.314 172.133 399.127 169.857C398.657 168.971 398.223 168.111 397.753 167.225C396.571 164.98 395.359 162.739 394.121 160.535C393.577 159.597 393.06 158.623 392.516 157.685C391.32 155.538 390.097 153.427 388.844 151.322C388.3 150.384 387.731 149.482 387.188 148.544C385.903 146.444 384.623 144.374 383.344 142.305C382.78 141.435 382.241 140.528 381.672 139.626C380.278 137.447 378.858 135.305 377.443 133.193C376.92 132.38 376.341 131.608 375.819 130.795C374.367 128.657 372.89 126.556 371.418 124.486C370.822 123.62 370.196 122.76 369.606 121.926C368.145 119.918 366.683 117.91 365.195 115.939C364.574 115.11 363.922 114.286 363.27 113.462C361.704 111.407 360.117 109.419 358.5 107.437C357.853 106.644 357.237 105.846 356.595 105.084C354.983 103.133 353.376 101.213 351.774 99.3243C351.059 98.5102 350.339 97.6651 349.624 96.851C347.918 94.915 346.223 93.0415 344.491 91.1418C343.787 90.3901 343.114 89.6335 342.41 88.8819C340.688 87.0446 338.941 85.2435 337.194 83.4425C336.453 82.6647 335.681 81.8921 334.915 81.1506C333.142 79.3859 331.374 77.6523 329.58 75.955C328.782 75.2186 328.01 74.446 327.212 73.7096C325.345 71.96 323.453 70.2467 321.534 68.5697C320.705 67.8383 319.881 67.1381 319.058 66.438C317.181 64.8183 315.273 63.2037 313.375 61.6516C312.551 60.9514 311.696 60.2563 310.847 59.5925C308.845 57.9931 306.849 56.4249 304.795 54.898C303.878 54.2131 302.96 53.5281 302.043 52.8431C299.989 51.3163 297.915 49.8568 295.841 48.3974C294.965 47.7698 294.064 47.1785 293.126 46.561C291.026 45.1379 288.894 43.7199 286.748 42.4005C285.815 41.8142 284.919 41.2541 283.986 40.6678C281.834 39.3172 279.63 38.0392 277.432 36.7924C276.473 36.2424 275.514 35.6924 274.524 35.1475C272.263 33.9108 270.002 32.674 267.721 31.5048C266.809 31.0434 265.866 30.587 264.955 30.1256C262.61 28.9665 260.272 27.8386 257.912 26.7782C256.938 26.3269 255.938 25.9119 254.964 25.4606C252.506 24.3842 250.058 23.3701 247.59 22.4236C246.595 22.0398 245.564 21.6298 244.569 21.246C242.106 20.3307 239.654 19.4779 237.206 18.6562C236.253 18.3297 235.306 18.0345 234.358 17.7392C231.786 16.9378 229.214 16.1363 226.595 15.4387C225.554 15.1586 224.45 14.8886 223.409 14.6085C220.894 13.9581 218.39 13.3701 215.861 12.8184C214.793 12.5746 213.705 12.3982 212.644 12.1856C209.926 11.6643 207.215 11.1741 204.513 10.7464C203.462 10.5962 202.411 10.446 201.359 10.2958C198.835 9.96764 196.316 9.67068 193.777 9.44118C192.637 9.33739 191.528 9.22851 190.394 9.15594C187.797 8.96777 185.211 8.84208 182.599 8.7526C181.47 8.71124 180.341 8.66985 179.186 8.66476C176.491 8.65289 173.806 8.70344 171.127 8.7852C170.076 8.82735 168.994 8.87458 167.943 8.91674C165.306 9.05586 162.679 9.2574 160.026 9.49523C158.892 9.61498 157.789 9.72972 156.66 9.88069C153.987 10.186 151.319 10.5225 148.666 10.9526C148.354 11.0032 148.073 11.0488 147.761 11.0994C146.762 11.2613 145.764 11.4232 144.776 11.6476C142.165 12.1351 139.529 12.6589 136.939 13.2713C135.982 13.4906 135.031 13.7411 134.105 13.9554C131.365 14.6242 128.64 15.3867 125.983 16.1703C124.975 16.4622 124.003 16.7801 123.031 17.0981C120.384 17.9441 117.717 18.8576 115.129 19.8546C114.162 20.2038 113.226 20.548 112.264 20.9284C109.889 21.8587 107.524 22.8516 105.201 23.9018C104.276 24.3083 103.319 24.7199 102.399 25.1577C99.8736 26.3369 97.3584 27.5786 94.8849 28.8776C93.9703 29.3466 93.0245 29.8206 92.1152 30.3208C89.8237 31.5582 87.5427 32.8581 85.2982 34.1841C84.3059 34.7619 83.35 35.3659 82.3888 35.9386C80.1861 37.322 77.9834 38.7053 75.7966 40.1823C74.9655 40.766 74.1032 41.3548 73.2721 41.9385C71.1217 43.4417 69.0079 44.971 66.9045 46.5627C66.1358 47.1363 65.3725 47.7411 64.6091 48.3459C62.4851 50.0051 60.3974 51.6904 58.3517 53.4331C57.5676 54.1054 56.7525 54.7828 55.9684 55.4551C54.011 57.1514 52.0953 58.9051 50.2161 60.6849C49.4114 61.4247 48.6378 62.1594 47.8696 62.9253C46.0216 64.7001 44.2154 66.5322 42.4092 68.3644C41.6722 69.1252 40.9405 69.9173 40.1776 70.7144C38.4649 72.5314 36.7629 74.4108 35.092 76.2851C34.3968 77.1033 33.6964 77.8903 33.0011 78.7085C31.3096 80.6503 29.6598 82.6495 28.0466 84.6748C27.3878 85.5191 26.6927 86.3374 26.0339 87.1818C24.4519 89.2021 22.9063 91.2484 21.366 93.326C20.7697 94.1603 20.1733 94.9945 19.5717 95.7976C18.1197 97.8288 16.673 99.8912 15.2681 102.011C14.6511 102.913 14.0654 103.809 13.4796 104.706C12.1059 106.821 10.7633 108.931 9.43138 111.103C8.8768 111.994 8.29626 112.922 7.74168 113.814C6.46686 115.945 5.2233 118.07 3.98496 120.227C3.41501 121.217 2.87622 122.203 2.33747 123.188C1.16154 125.335 -0.00912313 127.513 -1.16922 129.753C-1.63018 130.63 -2.11704 131.542 -2.57272 132.45C-3.70162 134.685 -4.82002 136.983 -5.90715 139.276C-6.36284 140.183 -6.77673 141.148 -7.19593 142.082C-8.25713 144.339 -9.27661 146.653 -10.2649 148.961C-10.6788 149.926 -11.098 150.86 -11.486 151.789C-12.4742 154.098 -13.4207 156.464 -14.3671 158.83C-14.7446 159.821 -15.148 160.848 -15.5255 161.84C-16.4201 164.133 -17.2782 166.453 -18.1311 168.804C-18.4773 169.79 -18.8288 170.745 -19.175 171.731C-19.9914 174.108 -20.8337 176.521 -21.6136 178.924C-21.908 179.838 -22.2023 180.752 -22.4967 181.665C-23.2766 184.068 -23.9889 186.493 -24.727 188.953C-25.0315 189.997 -25.3413 191.009 -25.6458 192.053C-26.3061 194.404 -26.9352 196.751 -27.5643 199.098C-27.8376 200.136 -28.0797 201.169 -28.353 202.208C-28.9509 204.55 -29.5124 206.917 -30.0738 209.285C-30.3159 210.318 -30.5527 211.383 -30.7948 212.416C-31.3457 214.847 -31.8549 217.334 -32.3693 219.791C-32.5595 220.751 -32.7549 221.681 -32.914 222.637C-33.3919 225.119 -33.8646 227.633 -34.3061 230.142C-34.4857 231.165 -34.6653 232.188 -34.8397 233.243C-35.2346 235.647 -35.6295 238.052 -35.9567 240.478C-36.1258 241.564 -36.2949 242.65 -36.4328 243.73C-36.7653 246.125 -37.0718 248.484 -37.3678 250.905C-37.5057 251.985 -37.6176 253.029 -37.7243 254.105C-37.9944 256.49 -38.2592 258.906 -38.4927 261.316C-38.5994 262.392 -38.675 263.462 -38.7869 264.507C-39.0047 267.011 -39.186 269.542 -39.3673 272.072C-39.4274 273.044 -39.4822 274.047 -39.5423 275.019C-39.6976 277.513 -39.8476 280.039 -39.9353 282.554C-39.9954 283.526 -39.9878 284.519 -40.0479 285.491C-40.1356 288.006 -40.1867 290.548 -40.2379 293.089C-40.2168 293.214 -40.2581 293.349 -40.2318 293.505C-40.2194 294.337 -40.207 295.169 -40.1946 296C-40.1521 298.527 -40.1043 301.084 -40.0619 303.611C-40.0231 304.599 -40.0208 305.56 -39.9821 306.548C-39.8772 309.064 -39.7724 311.581 -39.6622 314.128C-39.6129 315.178 -39.5635 316.229 -39.483 317.274C-39.3575 319.723 -39.2007 322.166 -39.0075 324.636C-38.927 325.681 -38.8465 326.727 -38.7348 327.767C-38.5468 330.205 -38.3224 332.67 -38.0721 335.099L-37.7368 338.219C-37.4865 340.648 -37.1997 343.102 -36.8817 345.552C-36.7699 346.592 -36.627 347.627 -36.51 348.698C-36.1973 351.117 -35.8532 353.53 -35.504 355.975C-35.3298 357.005 -35.2182 358.045 -35.0387 359.106C-34.6741 361.452 -34.3148 363.767 -33.919 366.107L-33.882 366.326C-33.7026 367.387 -33.5232 368.448 -33.3126 369.504C-32.9062 371.908 -32.4686 374.306 -31.9998 376.699C-31.8204 377.76 -31.5838 378.78 -31.3785 379.805C-30.9097 382.198 -30.4044 384.617 -29.8733 387C-29.6679 388.025 -29.3949 389.071 -29.1895 390.096C-28.6584 392.479 -28.0906 394.888 -27.5283 397.266C-27.2917 398.286 -27.024 399.301 -26.7562 400.316C-26.1626 402.689 -25.569 405.062 -24.913 407.424C-24.6452 408.439 -24.341 409.48 -24.0733 410.495C-23.4173 412.858 -22.7613 415.22 -22.0741 417.578C-21.7751 418.588 -21.476 419.598 -21.1718 420.639C-20.4534 422.991 -19.7349 425.344 -18.9853 427.692C-18.6551 428.696 -18.325 429.701 -18.026 430.711C-17.2452 433.053 -16.4644 435.396 -15.6577 437.702C-15.3275 438.707 -14.9608 439.737 -14.5994 440.737C-13.7926 443.043 -12.96 445.313 -12.0961 447.578C-11.7035 448.573 -11.3681 449.609 -10.9755 450.603C-10.1063 452.899 -9.20592 455.19 -8.27963 457.445C-7.89232 458.408 -7.49975 459.403 -7.11244 460.366C-6.13383 462.741 -5.16051 465.084 -4.12476 467.418C-3.74272 468.35 -3.36069 469.282 -2.94745 470.209C-1.94819 472.516 -0.886471 474.813 0.175199 477.11C0.577884 477.975 0.98582 478.871 1.3885 479.735C2.48138 482.027 3.57429 484.319 4.69838 486.606C5.18459 487.585 5.66548 488.533 6.15169 489.513C7.25994 491.706 8.36821 493.899 9.50239 496.056C10.0145 496.999 10.5319 497.974 11.044 498.917C12.2094 501.069 13.3748 503.221 14.5714 505.367C15.1148 506.305 15.6581 507.243 16.1702 508.187C17.4398 510.386 18.7146 512.616 20.0413 514.774C20.5376 515.623 21.0286 516.442 21.5508 517.255C22.8828 519.444 24.246 521.628 25.6039 523.781C26.1732 524.682 26.7371 525.553 27.3064 526.455C28.6537 528.545 30.0635 530.625 31.4368 532.679C32.0319 533.545 32.6012 534.446 33.2276 535.307C34.632 537.356 36.0625 539.369 37.5241 541.376C38.1558 542.268 38.7874 543.16 39.445 544.015C40.9484 546.08 42.4776 548.109 44.0329 550.101C44.6487 550.899 45.2958 551.692 45.9117 552.49C47.4669 554.483 49.0532 556.47 50.6291 558.395C51.3179 559.245 52.0691 560.086 52.7579 560.936C54.4068 562.913 56.0868 564.885 57.7928 566.821C58.4658 567.578 59.1441 568.366 59.817 569.123C61.523 571.059 63.2861 572.953 65.0127 574.822C65.7169 575.573 66.4263 576.356 67.1305 577.108C68.9195 578.966 70.7398 580.819 72.5548 582.642C73.2849 583.357 74.0202 584.103 74.7503 584.819C76.5965 586.636 78.4374 588.422 80.3354 590.166C81.175 590.96 82.0716 591.712 82.9424 592.501C84.7986 594.188 86.6862 595.87 88.5631 597.49C89.3868 598.19 90.247 598.916 91.0707 599.617C93.0518 601.284 95.0588 602.914 97.0605 604.513C97.9467 605.204 98.7703 605.904 99.6565 606.594C101.689 608.188 103.774 609.71 105.859 611.232C106.698 611.833 107.537 612.435 108.408 613.031C109.575 613.868 110.774 614.7 111.972 615.531C114.388 614.081 116.814 612.501 119.281 610.787C121.52 609.237 123.774 607.589 126.054 605.904C131.206 602.054 136.348 597.95 141.447 593.98C143.348 592.518 145.218 591.06 147.092 589.634C150.39 587.143 153.647 584.787 156.847 582.665C155.341 581.915 153.794 581.107 152.315 580.321C151.538 579.902 150.762 579.483 149.981 579.032C148.173 578.01 146.365 576.989 144.578 575.9C143.864 575.47 143.187 575.067 142.473 574.638C140.717 573.544 138.955 572.418 137.225 571.288C136.47 570.801 135.714 570.315 134.985 569.792C133.208 568.573 131.457 567.317 129.705 566.062C129.043 565.56 128.355 565.095 127.699 564.624C125.973 563.332 124.28 562.036 122.575 560.677C121.913 560.175 121.277 559.637 120.61 559.103C118.9 557.713 117.19 556.323 115.501 554.865C114.938 554.38 114.369 553.862 113.801 553.345C112.185 551.94 110.563 550.503 109.004 549.057C108.321 548.43 107.669 547.798 107.017 547.166C105.453 545.688 103.92 544.205 102.381 542.691C101.76 542.054 101.14 541.417 100.519 540.781C99.0119 539.261 97.5306 537.706 96.0493 536.15C95.4233 535.482 94.7974 534.814 94.1714 534.146C92.716 532.554 91.2918 530.957 89.8623 529.329C89.3094 528.713 88.7823 528.061 88.2293 527.445C86.7946 525.786 85.3858 524.091 84.0082 522.39C83.4394 521.681 82.8393 520.976 82.2705 520.267C80.8928 518.566 79.5412 516.829 78.2154 515.056C77.7196 514.399 77.1925 513.747 76.6914 513.059C75.3656 511.285 74.0658 509.476 72.7294 507.64C72.2231 506.921 71.7219 506.232 71.1843 505.518C69.9104 503.672 68.6366 501.827 67.3939 499.976C66.9187 499.251 66.3811 498.537 65.9006 497.781C64.7361 496.014 63.5923 494.179 62.4537 492.375C61.9315 491.562 61.4041 490.718 60.8818 489.905C59.7327 488.039 58.6148 486.168 57.4917 484.265C57.0789 483.531 56.6401 482.832 56.1962 482.103C55.0624 480.138 53.9599 478.168 52.8521 476.167C52.4393 475.433 52.0266 474.698 51.6398 473.927C50.532 471.926 49.4866 469.915 48.4412 467.904C48.0596 467.164 47.6416 466.398 47.26 465.658C46.2929 463.731 45.3205 461.772 44.348 459.813C43.9141 458.954 43.5061 458.058 43.0723 457.198C42.1258 455.203 41.2105 453.203 40.2952 451.203C39.929 450.365 39.5628 449.526 39.1654 448.693C38.2814 446.688 37.3972 444.683 36.5755 442.667C36.2146 441.86 35.8849 441.048 35.5552 440.235C34.6865 438.132 33.849 436.023 33.0115 433.914C32.7183 433.128 32.3885 432.315 32.0953 431.529C31.289 429.415 30.4774 427.27 29.697 425.12C29.4038 424.334 29.1366 423.511 28.8433 422.725C28.063 420.575 27.345 418.414 26.5958 416.259C26.2973 415.442 26.03 414.619 25.7575 413.766C25.076 411.631 24.3945 409.497 23.739 407.327C23.4664 406.473 23.2302 405.646 22.9576 404.792C22.3021 402.621 21.6778 400.446 21.0794 398.234C20.8433 397.407 20.6019 396.548 20.3658 395.72C19.7727 393.54 19.1795 391.359 18.6488 389.169C18.4386 388.305 18.2025 387.477 17.9923 386.613C17.4616 384.423 16.9309 382.232 16.4261 380.005C16.2159 379.141 16.0422 378.304 15.8373 377.471C15.3378 375.275 14.8954 373.038 14.453 370.801C14.2741 369.932 14.0639 369.069 13.9214 368.226C13.4843 366.02 13.1096 363.804 12.7037 361.593C12.5559 360.719 12.3769 359.85 12.2292 358.976L12.2133 358.883C11.8386 356.667 11.464 354.451 11.1517 352.225C11.004 351.351 10.8926 350.503 10.7813 349.655C10.4638 347.398 10.1515 345.172 9.86517 342.909C9.74861 342.03 9.63724 341.182 9.55189 340.298C9.30201 338.062 9.01574 335.8 8.79708 333.559C8.71172 332.675 8.6004 331.827 8.51505 330.943C8.2911 328.67 8.10357 326.424 7.91611 324.177C7.83076 323.293 7.78194 322.436 7.72779 321.546C7.57153 319.295 7.41527 317.044 7.29022 314.787C7.24134 313.929 7.19245 313.071 7.1383 312.182C7.0238 309.988 6.94575 307.82 6.89366 305.616C6.86016 304.66 6.82668 303.703 6.82439 302.741C6.77757 300.568 6.76198 298.39 6.74638 296.212C6.74408 295.251 6.74177 294.289 6.73947 293.327C6.75508 291.144 6.77592 288.992 6.82801 286.835C6.83099 285.905 6.85995 284.938 6.89414 284.003C6.97215 281.81 7.05013 279.616 7.15935 277.418C7.22474 276.478 7.25368 275.511 7.31908 274.57C7.43357 272.403 7.57927 270.231 7.72496 268.059C7.80619 267.212 7.85621 266.37 7.90623 265.528C8.09324 263.221 8.28547 260.945 8.51423 258.696C8.59545 257.849 8.67668 257.002 8.78911 256.15C9.04379 253.864 9.29844 251.578 9.58961 249.318C9.6761 248.502 9.79386 247.682 9.91684 246.892C10.208 244.632 10.5357 242.399 10.8945 240.16C11.0382 239.303 11.1453 238.42 11.289 237.563C11.6377 235.454 12.0177 233.34 12.3976 231.226C12.5567 230.27 12.7522 229.341 12.9424 228.38C13.3483 226.23 13.7907 224.106 14.2642 221.976C14.4444 221.146 14.6244 220.315 14.8098 219.515C15.2988 217.287 15.8242 215.086 16.3861 212.91C16.6027 212.105 16.8141 211.269 16.9995 210.47C17.5561 208.263 18.1439 206.051 18.737 203.871C18.9848 203.061 19.2015 202.256 19.4181 201.451C20.0012 199.401 20.6154 197.345 21.2661 195.315C21.5605 194.402 21.8548 193.488 22.1492 192.575C22.7999 190.545 23.4819 188.511 24.2003 186.502C24.4793 185.687 24.7842 184.836 25.0632 184.021C25.8282 181.909 26.5985 179.828 27.4 177.742C27.7154 176.953 28.005 176.201 28.2893 175.417C29.0754 173.43 29.898 171.469 30.7205 169.508C31.062 168.683 31.4086 167.889 31.7865 167.09C32.6662 165.087 33.5512 163.116 34.4727 161.171C34.8506 160.372 35.1973 159.578 35.6064 158.774C36.5279 156.829 37.4911 154.941 38.4491 153.022C38.8582 152.218 39.2673 151.415 39.6817 150.642C40.728 148.676 41.7484 146.747 42.8364 144.839C43.2043 144.17 43.6032 143.496 43.9762 142.859C45.0643 140.951 46.1889 139.069 47.35 137.213C47.7749 136.503 48.1997 135.792 48.6559 135.077C49.7909 133.257 50.9625 131.464 52.1393 129.702C52.6008 129.018 53.0676 128.365 53.529 127.681C54.7683 125.909 55.9816 124.173 57.2626 122.458C57.7812 121.732 58.3309 121.002 58.8547 120.308C60.1151 118.66 61.3807 117.044 62.6464 115.428C63.1496 114.801 63.6475 114.143 64.1819 113.511C65.5152 111.916 66.8486 110.321 68.2237 108.783C68.7581 108.152 69.3289 107.546 69.8686 106.945C71.3008 105.366 72.7695 103.813 74.2435 102.292C74.8196 101.717 75.3958 101.143 75.9667 100.537C77.42 99.0828 78.9045 97.6235 80.3996 96.2266C80.981 95.6834 81.5624 95.1402 82.1439 94.5969C83.6443 93.2313 85.1812 91.8918 86.7233 90.5835C87.3671 90.0301 88.0163 89.508 88.6913 88.9496C90.3218 87.5949 91.9939 86.2975 93.6661 85.0002C94.2321 84.5557 94.8348 84.1373 95.4374 83.7189C97.0371 82.5616 98.6368 81.4042 100.278 80.3043C100.938 79.8446 101.603 79.4161 102.268 78.9876C104.029 77.8362 105.8 76.7472 107.608 75.6844C108.222 75.3284 108.861 74.9362 109.474 74.5802C111.225 73.5587 113.012 72.5634 114.841 71.6254C115.636 71.2079 116.468 70.8165 117.268 70.4302C118.983 69.5749 120.703 68.7508 122.465 67.984C123.239 67.634 123.988 67.3202 124.762 66.9702C126.436 66.2498 128.12 65.5919 129.804 64.934C130.464 64.6666 131.161 64.4253 131.821 64.1579C133.755 63.4595 135.725 62.7872 137.706 62.1774C138.377 61.9724 139.048 61.7675 139.755 61.5887C141.616 61.0303 143.519 60.5293 145.427 60.0595C146.135 59.8806 146.842 59.7019 147.554 59.5543C149.618 59.0591 151.668 58.6627 153.784 58.2873C154.533 58.1659 155.277 58.0133 156.026 57.8918C156.213 57.8615 156.4 57.8311 156.556 57.8058C158.491 57.492 160.436 57.2406 162.35 56.9944C163.073 56.9092 163.802 56.8552 164.524 56.7701C166.48 56.5812 168.41 56.4285 170.377 56.302C171.204 56.2641 172.062 56.221 172.889 56.1831C174.861 56.0878 176.812 56.0601 178.799 56.0584C179.663 56.0466 180.563 56.061 181.432 56.0805C183.425 56.11 185.397 56.207 187.343 56.3403C188.155 56.4011 188.998 56.4568 189.81 56.5176C191.761 56.6821 193.713 56.8466 195.649 57.1098C196.435 57.2069 197.195 57.3402 197.981 57.4372C199.818 57.6844 201.697 57.9889 203.55 58.3298C204.279 58.4681 205.002 58.5753 205.7 58.7187C207.724 59.1279 209.755 59.5683 211.79 60.0399C212.561 60.2356 213.326 60.4001 214.096 60.5958C216.038 61.0826 217.985 61.6005 219.912 62.186C220.724 62.4391 221.536 62.6922 222.349 62.9453C224.28 63.5619 226.217 64.2098 228.16 64.8889C228.946 65.1783 229.727 65.4364 230.513 65.7258C232.362 66.4201 234.221 67.1768 236.08 67.9335C236.841 68.2591 237.596 68.5535 238.356 68.8791C240.19 69.6721 241.997 70.5013 243.81 71.3617C244.68 71.7658 245.555 72.2011 246.43 72.6364C248.211 73.5019 249.967 74.4037 251.728 75.3367C252.504 75.756 253.317 76.2014 254.129 76.6468C256.005 77.6895 257.886 78.7633 259.777 79.8996C260.491 80.329 261.199 80.7272 261.918 81.1878C263.742 82.303 265.545 83.4856 267.379 84.6633C268.067 85.1289 268.755 85.5946 269.474 86.0552C271.251 87.2741 273.028 88.4931 274.78 89.7484C275.4 90.1929 276.02 90.6375 276.614 91.1183C278.34 92.4098 280.065 93.7013 281.769 95.0603C282.431 95.5622 283.093 96.0642 283.729 96.6024C285.439 97.9926 287.154 99.4139 288.875 100.867C289.511 101.405 290.116 101.948 290.752 102.486C292.368 103.892 293.989 105.328 295.59 106.832C296.2 107.407 296.805 107.95 297.415 108.524C299.053 110.055 300.628 111.595 302.244 113.193C302.86 113.798 303.439 114.378 304.018 114.957C305.567 116.534 307.084 118.116 308.607 119.729C309.233 120.397 309.859 121.065 310.485 121.733C311.941 123.325 313.396 124.917 314.794 126.55C315.353 127.197 315.906 127.813 316.464 128.46C317.899 130.119 319.307 131.814 320.716 133.51C321.285 134.219 321.89 134.955 322.459 135.664C323.831 137.334 325.147 139.044 326.493 140.75C327.031 141.465 327.568 142.179 328.106 142.894C329.468 144.693 330.794 146.466 332.099 148.307C332.605 149.026 333.112 149.746 333.618 150.465C334.845 152.222 336.077 154.011 337.309 155.799C337.863 156.607 338.385 157.42 338.938 158.229C340.108 160.027 341.309 161.82 342.458 163.686C342.939 164.442 343.414 165.167 343.863 165.928C345.054 167.851 346.25 169.806 347.384 171.77C347.797 172.505 348.241 173.235 348.653 173.969C349.787 175.934 350.926 177.93 352.034 179.931C352.447 180.666 352.865 181.431 353.246 182.171C354.276 184.089 355.311 186.037 356.314 187.991C356.774 188.814 357.177 189.679 357.605 190.507C358.578 192.466 359.582 194.42 360.523 196.383C360.957 197.243 361.365 198.139 361.799 198.998C362.745 200.993 363.66 202.994 364.581 205.025C364.931 205.77 365.256 206.551 365.606 207.296C366.506 209.394 367.432 211.457 368.306 213.592C368.667 214.399 368.965 215.217 369.326 216.024C370.195 218.128 371.032 220.237 371.875 222.377C372.168 223.163 372.498 223.975 372.828 224.788C373.639 226.933 374.42 229.083 375.237 231.259C375.53 232.045 375.797 232.868 376.095 233.685C376.845 235.841 377.594 237.996 378.312 240.156C378.579 240.979 378.878 241.796 379.119 242.655C379.801 244.789 380.487 246.954 381.143 249.125C381.384 249.984 381.652 250.806 381.893 251.665C382.548 253.835 383.173 256.011 383.771 258.222C384.013 259.081 384.218 259.914 384.459 260.772C385.052 262.953 385.619 265.17 386.181 267.356C386.391 268.219 386.627 269.047 386.837 269.911C387.368 272.101 387.873 274.328 388.378 276.555C388.588 277.419 388.731 278.262 388.941 279.126C389.44 281.321 389.883 283.558 390.356 285.79C390.504 286.664 390.683 287.533 390.862 288.402C391.304 290.639 391.689 292.918 392.106 295.191C392.227 295.909 392.349 296.627 392.47 297.345C392.486 297.438 392.502 297.532 392.512 297.594C392.898 299.873 393.184 302.135 393.538 304.418C393.681 305.261 393.828 306.135 393.94 306.983C394.257 309.24 394.606 311.492 394.887 313.724C395.004 314.603 395.052 315.461 395.169 316.34C395.419 318.576 395.705 320.838 395.924 323.079C396.009 323.963 396.157 324.837 396.206 325.695C396.414 327.874 396.554 330.032 396.7 332.221C396.77 333.204 396.835 334.155 396.905 335.138C397.05 337.327 397.253 339.475 397.363 341.637C397.396 342.594 397.398 343.556 397.468 344.538C397.552 346.737 397.635 348.937 397.682 351.11C397.684 352.071 397.749 353.023 397.782 353.979C397.834 356.184 397.813 358.335 397.803 360.55C397.805 361.511 397.808 362.473 397.779 363.44C397.763 365.623 397.81 367.796 397.727 369.958C397.698 370.924 397.664 371.86 397.629 372.795C397.551 374.989 397.442 377.187 397.333 379.385C397.288 380.258 397.269 381.095 397.225 381.968C397.095 384.234 396.934 386.505 396.773 388.775C396.723 389.617 396.641 390.464 396.56 391.311C396.368 393.587 396.212 395.889 395.983 398.139C395.902 398.986 395.79 399.838 395.677 400.69C395.423 402.976 395.106 405.272 394.814 407.532C394.697 408.352 394.61 409.168 394.492 409.989C394.185 412.155 393.873 414.29 393.535 416.461C393.402 417.381 393.238 418.305 393.073 419.23C392.699 421.375 392.392 423.541 391.986 425.691C391.827 426.647 391.6 427.582 391.441 428.537C391.004 430.693 390.53 432.822 390.057 434.951C389.877 435.782 389.728 436.608 389.548 437.438C389.059 439.666 388.497 441.842 387.971 444.043C387.76 444.879 387.543 445.684 387.332 446.52C386.791 448.628 386.286 450.762 385.713 452.875C385.45 453.784 385.182 454.661 384.914 455.538C384.299 457.594 383.685 459.65 383.034 461.679C382.76 462.525 382.518 463.366 382.244 464.212C381.547 466.346 380.808 468.422 380.074 470.529C379.821 471.307 379.506 472.096 379.253 472.875C378.503 474.888 377.821 476.923 377.035 478.91C376.673 479.803 376.28 480.7 375.918 481.593C375.1 483.585 374.314 485.572 373.46 487.539C373.119 488.364 372.809 489.184 372.462 489.977C371.556 492.016 370.578 494.003 369.604 496.02C369.252 496.783 368.895 497.514 368.543 498.277C367.715 500.015 366.887 501.752 365.985 503.438L376.733 509.359C378.476 507.344 380.804 505.941 383.414 505.261C383.783 505.169 384.142 505.015 384.511 504.923C386.196 504.649 387.903 504.693 389.558 505.002C390.984 505.284 392.38 505.763 393.662 506.517C394.125 506.795 394.568 507.14 395.006 507.454C397.018 508.923 398.651 510.807 399.749 512.938C401.176 515.688 401.662 518.752 400.977 521.717L400.924 521.405ZM355.564 501.344L355.469 500.782C355.038 496.908 352.762 493.493 349.396 491.602C346.989 490.26 344.153 489.79 341.443 490.262C337.896 490.901 334.894 493.056 333.148 496.193C331.599 498.977 331.248 502.209 332.15 505.269C333.052 508.329 335.087 510.885 337.885 512.452C340.292 513.793 343.098 514.268 345.802 513.766C346.863 513.593 347.892 513.234 348.875 512.786L349.379 512.544L368.457 523.175L374.643 511.974L355.564 501.344ZM322.331 171.504C279.944 108.728 220.103 72.4165 160.782 82.0366C101.46 91.6568 56.7959 144.916 37.334 217.722L322.331 171.504ZM43.0972 223.554L86.0341 477.488L361.763 432.773L318.827 178.838L43.0972 223.554ZM375.956 299.606C387.978 370.705 379.463 438.849 355.3 490.869C358.386 493.382 360.668 496.828 361.619 500.747L362.963 501.491C392.063 444.919 401.648 371.342 389.161 297.496C364.273 150.304 260.212 44.1705 157.203 60.8754C54.195 77.5804 -9.37286 210.93 15.5101 358.091C32.5667 458.966 89.189 545.825 160.15 580.397C164.421 577.781 168.609 575.626 172.675 574.262C103.648 543.929 46.003 457.845 28.767 355.91C4.83403 214.367 63.2487 86.566 158.955 71.0453C254.662 55.5245 352.023 158.063 375.956 299.606ZM50.8925 352.706C50.217 348.711 52.8251 344.985 56.7306 344.192L36.1382 222.405C30.5674 244.826 27.3108 268.987 26.7781 294.278C26.8619 314.114 28.56 334.586 32.0695 355.342C40.1967 403.407 57.3684 447.889 80.463 484.549L59.2162 358.892C55.2268 359.379 51.5627 356.67 50.8925 352.706ZM350.125 528.906C348.875 530.615 347.563 532.335 346.246 534.024C345.748 534.682 345.219 535.345 344.715 535.972C343.393 537.629 342.039 539.292 340.617 540.933C340.083 541.565 339.548 542.197 339.009 542.798C337.67 544.362 336.295 545.899 334.915 547.406C334.344 548.011 333.804 548.612 333.233 549.218C331.765 550.771 330.296 552.324 328.785 553.819C328.209 554.394 327.664 554.963 327.057 555.543C325.572 557.002 324.077 558.399 322.582 559.796C322.058 560.297 321.502 560.804 320.941 561.28C319.358 562.723 317.764 564.104 316.17 565.485C315.552 566.002 314.903 566.524 314.29 567.073C312.743 568.35 311.216 569.559 309.684 570.738C309.004 571.265 308.292 571.797 307.612 572.324C305.986 573.518 304.387 574.675 302.776 575.77C302.143 576.194 301.514 576.648 300.875 577.04C300.184 577.505 299.488 577.939 298.823 578.367L308.439 635.234C309.41 634.724 310.382 634.213 311.354 633.703C312.414 633.146 313.474 632.59 314.534 632.033C316.877 630.723 319.179 629.356 321.481 627.988C322.379 627.426 323.32 626.921 324.213 626.327C326.499 624.866 328.743 623.347 330.982 621.798C331.927 621.131 332.914 620.522 333.854 619.825C336.057 618.249 338.206 616.554 340.362 614.889C341.182 614.243 342.039 613.623 342.86 612.977C344.978 611.287 347.014 609.482 349.049 607.677C349.89 606.963 350.731 606.249 351.536 605.509C353.457 603.787 355.3 601.981 357.174 600.17C358.03 599.358 358.887 598.545 359.707 597.707C361.544 595.87 363.366 593.939 365.156 592.013C365.914 591.185 366.645 590.393 367.408 589.596C369.105 587.685 370.797 585.743 372.452 583.775C373.142 582.926 373.868 582.102 374.589 581.248C376.234 579.218 377.873 577.156 379.47 575.037C380.155 574.156 380.814 573.312 381.498 572.431C383.013 570.39 384.517 568.286 385.989 566.188C386.638 565.281 387.291 564.405 387.903 563.472C389.344 561.379 390.738 559.196 392.107 557.05C392.718 556.118 393.336 555.216 393.916 554.288C395.082 552.463 396.139 550.56 397.238 548.715L387.621 543.412C386.084 544.944 384.219 546.048 382.15 546.704C381.604 546.889 381.063 547.105 380.502 547.196C379.534 547.353 378.546 547.385 377.578 547.349C375.413 547.252 373.263 546.67 371.346 545.57C368.861 544.145 366.925 541.99 365.759 539.454C365.45 538.766 365.142 538.079 364.953 537.34C364.779 536.694 364.7 536.034 364.62 535.373C364.424 533.834 364.519 532.311 364.849 530.847L353.252 524.454C352.687 525.284 352.122 526.113 351.525 526.947C351.059 527.6 350.566 528.289 350.068 528.947L350.125 528.906ZM387.656 521.248C388.811 519.169 390.707 517.675 393 517.014C393.275 516.937 393.551 516.861 393.832 516.815C394.144 516.765 394.425 516.719 394.705 516.674C395.124 513.463 393.561 510.285 390.722 508.661C389.086 507.708 387.207 507.404 385.366 507.702C385.147 507.738 384.898 507.778 384.685 507.845C382.631 508.402 380.927 509.705 379.886 511.509L371.011 527.475C368.929 531.276 370.293 536.121 374.055 538.269C375.722 539.217 377.57 539.526 379.406 539.197C379.624 539.161 379.874 539.121 380.087 539.054C381.22 538.742 382.28 538.185 383.148 537.435C381.493 535.235 381.413 532.297 382.957 529.482L387.578 521.164L387.656 521.248ZM225.891 657.664C221.521 657.603 217.129 657.417 212.737 657.039C209.128 659.966 205.492 662.736 201.846 665.251C210.397 666.333 218.952 666.87 227.448 666.871L225.891 657.664ZM224.118 647.177C221.59 649.479 219.025 651.755 216.387 653.978C219.369 654.168 222.34 654.295 225.327 654.324L224.118 647.177ZM219.258 618.431C214.682 621.899 209.977 625.74 205.154 629.826C190.288 642.402 167.919 661.229 153.561 664.487C173.48 678.189 200.1 657.581 222.498 637.595L219.258 618.431ZM216.751 603.606C216.677 603.169 216.608 602.763 216.534 602.326C216.255 600.864 215.909 599.574 215.547 598.382C212.809 589.398 207.957 587.812 202.361 584.679C207.45 571.925 226.584 566.577 234.764 581.958C235.276 582.901 235.71 583.953 236.124 585.072C236.825 586.946 237.423 588.966 237.819 591.307L249.656 661.313L252.908 663.672L260.21 668.933L263.64 671.392L269.852 675.9L272.479 677.783L274.376 674.781L278.855 667.706L281.301 663.782L286.536 655.493L288.303 652.673L275.712 578.203C275.532 577.142 275.088 576.412 274.53 575.765C272.746 573.746 269.374 573.715 265.963 574.397C265.063 574.575 264.169 574.784 263.285 575.056C262.978 575.137 262.64 575.224 262.338 575.337C263.543 572.032 267.14 561.828 278.53 559.981C283.491 559.176 288.021 560.366 291.518 563.037C308.027 552.407 322.535 537.901 334.725 520.308C330.796 517.931 327.9 514.264 326.635 509.819C325.272 505.166 325.822 500.267 328.153 496.041C330.811 491.281 335.387 488.005 340.738 487.041C345.711 486.491 349.328 487.219 352.538 488.944C376.27 437.604 384.549 370.331 372.669 300.075C369.165 279.35 364.04 259.466 357.59 240.663C348.756 216.859 337.715 194.984 325.026 175.492L345.618 297.279C349.607 296.792 353.298 299.464 353.978 303.491C354.659 307.517 352.046 311.211 348.104 311.979L369.44 438.166L232.324 460.402C232.766 464.339 230.131 467.909 226.168 468.551C222.205 469.194 218.505 466.652 217.658 462.781L80.7918 484.976C107.082 526.504 141.012 557.847 178.041 572.814C186.986 571.299 195.208 574.231 202.361 584.679C200.437 585.055 197.896 586.525 194.873 588.747C193.991 589.404 193.025 590.137 192.069 590.934C190.407 592.293 188.611 593.803 186.705 595.427C185.869 596.172 185.002 596.922 184.109 597.708C182.432 599.166 180.74 600.724 178.959 602.327C178.123 603.072 177.261 603.853 176.4 604.634C174.728 606.124 173.004 607.686 171.244 609.222C170.377 609.972 169.51 610.722 168.648 611.503C166.914 613.003 165.149 614.508 163.321 616.023C162.422 616.778 161.524 617.532 160.62 618.256C158.787 619.74 156.923 621.229 155.048 622.655C154.114 623.384 153.148 624.118 152.208 624.815C150.213 626.293 148.239 627.704 146.219 629.025C145.185 629.738 144.146 630.42 143.102 631.07C140.873 632.49 138.655 633.78 136.42 634.976C135.215 635.62 134.004 636.233 132.814 636.779C130.049 638.061 127.32 639.177 124.575 640.007C136.713 646.568 150.542 653.08 160.583 656.903C163.073 655.89 165.582 654.617 168.097 653.183C169.178 652.559 170.253 651.904 171.355 651.212C173.381 649.921 175.422 648.532 177.484 647.075C178.455 646.373 179.427 645.67 180.393 644.936C182.273 643.541 184.137 642.052 186.001 640.564C186.905 639.84 187.835 639.08 188.738 638.356C190.54 636.877 192.342 635.399 194.138 633.889C195.005 633.139 195.904 632.384 196.802 631.629C198.599 630.119 200.395 628.609 202.166 627.135C203.064 626.38 203.963 625.625 204.866 624.902C206.694 623.387 208.527 621.903 210.334 620.456C211.269 619.727 212.204 618.998 213.138 618.269C214.956 616.884 216.784 615.561 218.556 614.28L216.751 603.606ZM294.532 574.413C293.276 566.985 286.609 562.07 279.37 563.244C276.281 563.745 270.96 566.788 268.951 570.641C274.948 569.893 278.509 572.939 279.39 578.152L292.927 658.593L273.928 687.681L247.165 668.195L234.23 591.696C231.998 578.494 224.368 575.274 217.908 576.322C213.54 577.03 209.919 579.509 207.622 582.992C210.52 584.767 217.99 588.75 219.673 598.707L231.675 670.066L272.469 699.526C273.787 700.498 275.167 700.884 276.415 700.681C277.663 700.479 278.842 699.679 279.802 698.336L308.336 655.485L294.625 574.398L294.532 574.413ZM350.402 522.768L348.99 522.003C349.048 522.346 348.185 522.55 347.348 522.718C343.509 523.148 340.439 522.812 337.772 521.834C325.443 539.739 310.759 554.53 294.011 565.455C296.093 567.907 297.594 571.095 298.253 574.804C316.461 563.033 335.998 543.575 350.407 522.799L350.402 522.768ZM407.124 559.778C404.907 557.476 403.303 554.626 402.515 551.483L400.285 550.241C377.085 589.373 346.145 620.269 309.113 638.652L310.685 647.953C347.677 630.282 381.812 599.125 407.155 559.773L407.124 559.778ZM425.485 533.936C423.078 532.595 420.273 532.12 417.569 532.623C416.508 532.795 415.478 533.154 414.496 533.602L413.961 533.849L397.43 524.633C396.956 524.486 396.431 524.411 395.931 524.491C394.964 524.648 394.138 525.263 393.677 526.14L390.605 531.672C389.771 533.187 390.369 535.206 391.849 536.185L407.781 545.081L407.876 545.643C408.301 549.486 410.583 552.932 413.949 554.823C416.355 556.164 419.192 556.634 421.902 556.163C425.449 555.524 428.451 553.369 430.197 550.232C433.362 544.492 431.263 537.2 425.46 533.973L425.485 533.936ZM145.309 -9.09006C5.94648 13.5104 -81.8429 182.984 -50.4371 368.722C-32.6364 473.998 22.3762 568.781 96.8012 622.321C100.773 621.163 104.802 619.388 108.849 617.16C35.184 565.838 -19.3052 472.445 -37.2272 366.451C-67.794 185.676 14.8098 21.1801 146.902 -0.241276C278.993 -21.6626 411.3 107.981 441.867 288.757C456.633 376.086 444.47 461.721 412.023 528.456L415.17 530.19C415.112 529.847 415.975 529.643 416.812 529.475C419.772 529.155 422.202 529.306 424.404 529.815C458.762 459.596 469.645 373.591 454.958 286.73C423.557 101.023 284.635 -31.7166 145.304 -9.12121L145.309 -9.09006ZM200.213 545.809C198.605 545.397 194.361 544.001 194.361 544.001L199.009 527.31L206.496 529.495C212.4 531.231 212.22 536.23 211.219 539.792C210.46 542.512 209.025 544.829 206.894 545.88C205.621 546.504 204.066 546.788 200.208 545.778L200.213 545.809ZM199.017 541.578C199.017 541.578 200.72 542.168 201.792 542.443C203.333 542.834 204.275 542.906 205.096 542.452C206.151 541.864 206.933 540.615 207.486 538.762C208.388 535.569 207.682 533.663 205.76 533.109L201.715 531.937L199.022 541.609L199.017 541.578ZM262.678 541.131L257.306 531.163L264.024 533.73L264.725 533.327L265.864 526.408L271.714 535.978L274.862 533.928L265.633 519.167L263.103 520.699L261.806 528.958L253.968 525.836L251.293 527.264L259.264 542.743L262.673 541.1L262.678 541.131ZM280.554 529.862L273.734 512.466L276.833 509.558L293.87 517.409L291.031 520.339L288.036 518.933L282.331 524.251L283.582 527.287L280.554 529.862ZM278.421 514.592L281.001 520.747L284.65 517.301L278.613 514.4L278.416 514.56L278.421 514.592ZM231.612 545.688C228.834 545.754 224.786 545.705 222.059 545.505L222.134 541.966L228.316 542.118L228.385 538.547L222.173 538.4L222.212 535.412L230.777 535.626L230.836 531.993L218.468 531.658L218.035 549.012C222.756 549.433 227.704 549.496 231.559 549.352L231.638 545.652L231.612 545.688ZM185.597 521.179L189.42 523.125L187.857 541.753L184.138 540.047L184.422 536.794L177.436 533.213L175.012 535.37L171.531 533.369L185.566 521.184L185.597 521.179ZM185.422 526.403L185.177 526.282L180.255 530.736L184.751 533.053L185.391 526.408L185.422 526.403ZM298.56 511.775L284.421 501.722L289.378 494.633C291.364 491.777 294.484 491.271 297.35 493.244C299.461 494.729 300.252 496.749 300.105 498.537L307.286 498.912L305.109 502.535L298.631 502.143L296.282 505.506L300.873 508.77L298.591 511.77L298.56 511.775ZM293.337 503.45L296.127 499.471C297.009 498.237 296.34 497.32 295.105 496.462C293.907 495.63 292.996 495.745 292.245 496.797L289.481 500.741L293.343 503.482L293.337 503.45ZM159.474 506.432L162.065 503.927L151.023 492.474L148.438 495.01L152.636 499.364L142.898 508.895L145.543 511.641L155.25 502.115L159.448 506.468L159.474 506.432ZM313.17 487.824L307.601 485.04L306.472 480.637L316.923 479.872L318.407 475.944L305.543 477.036L303.289 468.07L301.006 472.769L303.58 483.062L297.527 480.067L295.886 483.444L311.393 491.159L313.102 487.803L313.17 487.824ZM173.531 521.116C171.881 523.115 169.833 523.704 168.016 523.389L167.102 530.496L163.662 527.975L164.568 521.575L161.429 518.942L157.829 523.245L154.997 520.722L166.069 507.511L172.747 513.066C175.437 515.323 175.71 518.454 173.531 521.116ZM170.376 515.727L166.679 512.639L163.665 516.238L167.398 519.353C168.561 520.351 169.522 519.778 170.476 518.597C171.379 517.488 171.345 516.532 170.376 515.727ZM150.967 133.396L164.383 171.786C165.979 171.366 167.612 170.973 169.25 170.611L157.905 130.251C155.786 131.941 153.426 132.965 150.967 133.396ZM163.459 122.712L172.963 169.817C173.774 169.685 174.799 169.487 175.61 169.356C176.422 169.224 177.451 169.057 178.268 168.957L171.76 121.366C169.725 119.195 167.804 116.364 166.022 112.837C165.495 116.738 164.608 120.025 163.397 122.723L163.459 122.712ZM179.53 126.744L182.075 168.531C183.745 168.357 185.42 168.214 187.069 168.107L187.134 127.531C184.663 127.9 182.092 127.675 179.53 126.744ZM208.497 134.232L200.727 168.104C202.475 168.206 204.198 168.343 205.931 168.543L214.984 138.086C212.776 137.354 210.603 136.071 208.497 134.232ZM199.495 120.62C198.114 122.127 196.577 123.466 194.868 124.545L191.304 167.933C192.995 167.883 194.696 167.896 196.403 167.94L202.459 126.585C201.425 124.829 200.442 122.808 199.526 120.615L199.495 120.62ZM210.063 169.091C211.838 169.349 213.623 169.669 215.383 170.025L231.603 134.365C228.784 136.842 225.287 138.532 221.531 138.884L210.063 169.091ZM233.422 126.727C231.955 126.964 230.97 128.343 231.218 129.81C231.466 131.277 232.852 132.27 234.319 132.033C235.785 131.795 236.74 130.421 236.491 128.955C236.243 127.488 234.857 126.494 233.422 126.727ZM165.667 110.361C167.945 109.992 169.475 107.852 169.089 105.573C168.704 103.295 166.552 101.752 164.274 102.121C161.996 102.491 160.466 104.631 160.851 106.909C161.237 109.188 163.42 110.726 165.667 110.361ZM106.916 147.242C105.48 147.475 104.495 148.853 104.743 150.32C104.991 151.787 106.377 152.781 107.813 152.548C109.248 152.315 110.265 150.932 110.017 149.465C109.769 147.998 108.382 147.004 106.916 147.242ZM134.951 128.554C136.761 128.261 138.011 126.551 137.699 124.709C137.388 122.868 135.673 121.639 133.832 121.937C131.991 122.236 130.772 123.941 131.084 125.782C131.395 127.624 133.141 128.848 134.951 128.554ZM200.732 117.886C202.573 117.588 203.791 115.883 203.48 114.042C203.169 112.2 201.454 110.971 199.613 111.27C197.772 111.568 196.553 113.273 196.864 115.114C197.176 116.956 198.891 118.185 200.732 117.886ZM111.12 153.904L138.212 182.539C139.76 181.647 141.35 180.812 142.941 179.977L122.142 155.002C118.502 155.849 114.604 155.359 111.12 153.904ZM136.991 130.757C136.851 133.152 136.58 135.345 136.179 137.334L155.524 174.569C157.125 173.989 158.705 173.476 160.348 172.953L142.693 133.007C140.715 132.494 138.819 131.711 137.022 130.752L136.991 130.757ZM128.082 152.211L146.677 178.184C148.252 177.448 149.837 176.774 151.459 176.126L132.954 146.515C131.571 148.952 129.931 150.821 128.082 152.211Z" fill="#9B011C"/>
<path d="M109.983 414.83C117.361 423.871 126.337 427.005 134.556 425.675C147.774 423.534 150.61 414.508 149.455 407.7C148.586 402.579 145.371 399.153 141.891 397.374C141.505 399.073 139.85 399.919 138.131 400.197C134.506 400.784 130.942 398.698 127.225 392.69C122.66 385.28 118.144 372.663 115.59 357.612L157.152 350.882L163.653 389.198C164.697 395.35 163.745 399.579 158.152 400.485C156.12 400.814 154.551 400.651 152.763 400.138C152.188 403.183 152.169 405.913 152.572 408.287C153.96 416.468 160.412 420.429 168.287 419.154C174.693 418.116 177.791 415.369 180.404 410.903C184.489 414.348 188.568 415.87 194.693 414.878C203.943 413.38 209.046 406.554 207.424 396.998C207.122 395.218 206.591 393.411 205.793 391.551C203.74 393.071 201.95 393.874 199.387 394.289C193.825 395.19 189.757 392.223 188.559 385.165L169.134 270.685C175.392 267.072 179.425 261.51 178.153 254.015C177.04 247.458 171.223 242.881 165.77 242.16C165.94 245.052 161.943 248.555 155.818 249.546C147.037 250.968 140.111 247.052 131.799 248.398C123.986 249.663 118.818 255.538 108.287 257.243C100.6 258.488 97.2239 255.056 96.4272 253.388C91.8919 256.368 87.6245 261.872 88.875 269.242C90.1255 276.612 95.0029 280.378 101.54 281.437C91.6285 303.256 84.614 330.606 90.1408 363.176C94.5282 389.033 101.784 404.735 109.946 414.804L109.983 414.83ZM171.716 410.032L162.528 411.519C161.12 410.977 160.027 409.454 159.824 407.882L175.293 405.378C174.35 407.199 173.639 408.501 171.685 410.037L171.716 410.032ZM200.136 401.355C199.9 402.612 199.062 404.673 197.809 405.807L187.966 407.4C186.432 406.879 184.512 405.778 183.449 404.057L200.136 401.355ZM169.273 379.176L168.728 375.959L179.384 374.234L179.93 377.45L169.273 379.176ZM181.058 384.102L181.652 387.599L170.964 389.33L170.371 385.832L181.058 384.102ZM164.081 348.765L163.657 346.267L174.313 344.541L174.737 347.04L164.081 348.765ZM167.52 369.032L167.011 366.034L177.667 364.308L178.176 367.306L167.52 369.032ZM165.798 358.883L165.337 356.166L175.993 354.44L176.454 357.157L165.798 358.883ZM160.331 327.041L171.018 325.31L171.357 327.309L160.67 329.039L160.331 327.041ZM162.01 336.94L172.698 335.209L173.074 337.426L162.386 339.157L162.01 336.94ZM171.238 395.863L183.769 393.834C184.513 395.189 185.313 396.311 186.181 397.262L170.275 399.837C170.756 398.7 171.076 397.365 171.238 395.863ZM137.186 275.793C141.842 275.039 144.573 276.94 145.193 280.593L153.607 330.183L113.295 336.71C111.935 314.695 120.561 278.485 137.186 275.793ZM98.2438 367.03L109.587 365.193C109.746 366.13 109.957 366.994 110.173 367.89L98.7985 369.732C98.5458 368.81 98.3975 367.936 98.2438 367.03ZM100.517 376.833L112.017 374.971C112.286 375.986 112.575 376.934 112.901 377.908L101.307 379.785C101.049 378.832 100.755 377.853 100.517 376.833ZM142.324 410.716C142.423 412.433 141.943 413.954 140.997 415.006L124.904 417.612C123.094 416.974 121.22 415.962 119.325 414.44L142.324 410.716ZM126.614 403.089C128.029 404.432 129.491 405.478 130.932 406.208L114.307 408.9C113.595 407.924 112.815 406.735 112.02 405.452L126.614 403.089ZM121.777 397.294L108.684 399.414C108.186 398.372 107.646 397.272 107.121 396.074L119.746 394.03C120.422 395.172 121.087 396.251 121.777 397.294ZM116.592 387.738L104.529 389.691C104.136 388.696 103.789 387.597 103.421 386.566L115.296 384.643C115.727 385.857 116.136 386.753 116.592 387.738ZM95.6177 337.551L105.961 335.876L106.113 337.905L95.5819 339.611C95.5797 338.841 95.5987 338.196 95.6177 337.551ZM95.6724 347.714L106.422 345.973L106.642 348.215L95.7986 349.971C95.744 349.082 95.7005 348.447 95.6412 347.719L95.6724 347.714ZM107.851 355.335L108.274 357.834L96.8682 359.68C96.7251 358.837 96.6134 357.989 96.5068 357.172L107.851 355.335ZM198.341 254.725C203.904 253.824 208.566 257.08 210.087 266.043L228.416 374.059C229.926 382.959 229.365 389.306 221.865 390.521C217.584 391.214 214.565 390.259 214.565 390.259C214.565 390.259 214.32 394.117 214.723 396.49C216.355 406.108 224.031 410.095 233.625 408.542C243.219 406.989 248.044 399.662 249.913 395.348C256.424 400.23 267.989 403.106 281.114 400.981C310.583 396.209 326.595 370.418 321.026 337.598C316.824 312.834 299.285 298.22 284.981 294.151C293.66 284.179 297.18 272.186 295.097 259.914C291.118 236.462 273.82 224.214 250.852 227.934C240.008 229.689 231.16 235.261 226.332 241.433C221.389 236.715 215.123 233.655 205.498 235.213C192.623 237.298 188.641 246.189 189.791 252.965C190.066 254.589 190.703 256.636 191.508 257.789C193.344 256.304 194.883 255.349 198.321 254.793L198.341 254.725ZM290.47 390.835L269.033 394.306C264.869 393.985 261.312 393.085 258.547 391.929L299.86 385.239C297.063 387.489 293.916 389.378 290.47 390.835ZM306.842 377.756L290.81 380.352C292.542 379.012 294.111 377.475 295.524 375.77L309.492 373.508C308.637 375.091 307.776 376.449 306.873 377.751L306.842 377.756ZM312.494 366.413L299.87 368.457C300.429 367.211 300.842 366.053 301.214 364.646L313.526 362.652C313.253 363.883 312.903 365.224 312.526 366.408L312.494 366.413ZM314.653 355.667L302.59 357.621C302.748 356.472 302.834 355.463 302.888 354.268L314.857 352.33C314.855 353.453 314.801 354.649 314.653 355.667ZM314.712 345.23L302.805 347.158C302.73 346.143 302.68 345.093 302.515 344.125L314.39 342.202C314.565 343.232 314.646 344.278 314.712 345.23ZM313.115 335.061L301.271 336.979C301.049 336.052 300.802 335.161 300.529 334.307L312.403 332.384C312.719 333.296 312.935 334.191 313.115 335.061ZM309.679 325.221L297.679 327.164C297.286 326.362 296.83 325.569 296.411 324.803L308.505 322.845C308.924 323.611 309.27 324.325 309.679 325.221ZM302.018 313.756C302.609 314.398 303.137 315.051 303.675 315.766L291.426 317.749C290.788 317.018 290.197 316.376 289.549 315.775L302.018 313.756ZM292.245 305.167C293.075 305.707 293.806 306.23 294.578 306.811L280.454 309.098C279.301 308.547 278.158 308.058 276.964 307.642L292.245 305.167ZM234.874 264.147C234.074 259.431 241.016 252.468 249.859 251.036C262.203 249.037 268.777 257.694 270.558 268.187C273.255 284.082 264.263 292.019 249.763 294.367L240.232 295.91L234.843 264.152L234.874 264.147ZM243.781 316.64L263.344 313.473C279 310.938 291.989 325.23 294.739 341.437C298.082 361.142 292.676 376.584 274.113 379.59C263.926 381.24 254.003 376.878 253.076 371.414L243.781 316.64ZM225.87 315.915L236.058 314.265L236.397 316.264L226.209 317.913L225.87 315.915ZM227.55 325.814L237.737 324.164L238.114 326.382L227.926 328.031L227.55 325.814ZM229.224 335.682L239.412 334.032L239.836 336.531L229.648 338.18L229.224 335.682ZM230.904 345.581L241.092 343.932L241.553 346.648L231.365 348.298L230.904 345.581ZM232.584 355.48L242.771 353.831L243.28 356.829L233.093 358.478L232.584 355.48ZM234.264 365.38L244.451 363.73L244.997 366.946L234.809 368.596L234.264 365.38ZM235.907 375.253L246.157 373.593C246.452 374.764 246.929 375.874 247.563 376.959L236.219 378.796C236.216 377.641 236.066 376.382 235.907 375.253ZM235.899 385.425L253.149 382.632C255.164 383.91 257.11 384.782 259.154 385.478L234.623 389.45C235.292 388.09 235.674 386.745 235.899 385.425ZM242.11 394.59C241.15 396.125 239.671 398.001 237.502 399.411L226.471 401.198C224.437 400.757 223.156 399.071 222.548 397.758L242.11 394.59Z" fill="#9B011C"/>
<path d="M13.5689 470.849L0.254382 477.051C0.657227 477.915 1.06532 478.811 1.46817 479.676L13.4472 474.108C13.3247 473.005 13.3635 471.909 13.5689 470.849ZM13.5309 104.636L52.2537 129.586C52.7151 128.902 53.1816 128.249 53.6429 127.565L15.3244 101.972C14.7076 102.874 14.1219 103.771 13.5362 104.667L13.5309 104.636ZM7.79429 113.745L47.4598 137.066C47.8847 136.356 48.3096 135.646 48.7656 134.93L9.47828 111.002C8.92381 111.894 8.34347 112.822 7.78901 113.713L7.79429 113.745ZM2.42248 123.115L42.9526 144.725C43.3204 144.056 43.7193 143.382 44.0923 142.744L4.06958 120.153C3.49975 121.144 2.96109 122.129 2.42248 123.115ZM56.045 55.374L86.8381 90.4937C87.4818 89.9402 88.1309 89.418 88.8059 88.8595L58.3969 53.3569C57.613 54.0293 56.7979 54.7066 56.0139 55.379L56.045 55.374ZM-39.4972 274.963L7.23285 277.32C7.29809 276.379 7.32679 275.412 7.39203 274.472L-39.3227 272.016C-39.3826 272.988 -39.4373 273.991 -39.4972 274.963ZM-11.4334 151.691L30.9079 169.416C31.2492 168.591 31.5959 167.797 31.9736 166.998L-10.1815 148.859C-10.5953 149.824 -11.0143 150.758 -11.4022 151.686L-11.4334 151.691ZM47.9525 62.8766L80.5464 96.1327C81.1278 95.5893 81.709 95.0461 82.2903 94.5028L50.2932 60.6047C49.4886 61.3446 48.7153 62.0794 47.9472 62.8454L47.9525 62.8766ZM40.2613 70.6668L74.3908 102.199C74.9669 101.624 75.543 101.049 76.1138 100.444L42.4927 68.3164C41.7558 69.0774 41.0241 69.8695 40.2613 70.6668ZM26.1195 87.1362L62.79 115.305C63.2931 114.678 63.791 114.02 64.3253 113.388L28.132 84.6289C27.4733 85.4734 26.7782 86.2917 26.1195 87.1362ZM33.0858 78.6619L68.3665 108.66C68.9008 108.028 69.4716 107.422 70.0112 106.822L35.1711 76.2069C34.476 77.0253 33.7757 77.8124 33.0805 78.6308L33.0858 78.6619ZM19.6896 95.7478L57.4018 122.305C57.9203 121.579 58.4699 120.849 58.9937 120.154L21.4471 93.2499C20.8509 94.0843 20.2546 94.9186 19.6531 95.7217L19.6896 95.7478ZM-2.46049 132.341L38.5977 152.903C39.0067 152.099 39.4156 151.295 39.8299 150.523L-1.05735 129.644C-1.51819 130.521 -2.00493 131.433 -2.46049 132.341ZM-15.4768 161.712L27.5832 177.62C27.8986 176.831 28.188 176.078 28.4722 175.295L-14.3189 158.702C-14.6962 159.693 -15.0995 160.72 -15.4768 161.712ZM-34.7753 233.149L11.0559 240.045C11.1994 239.188 11.3063 238.305 11.4498 237.448L-34.2733 230.053C-34.4528 231.076 -34.6322 232.1 -34.8064 233.154L-34.7753 233.149ZM-38.7123 264.445L7.82813 267.955C7.90922 267.108 7.95912 266.266 8.00901 265.425L-38.4551 261.229C-38.5617 262.304 -38.637 263.375 -38.7488 264.419L-38.7123 264.445ZM-32.8511 222.543L12.5887 231.106C12.7476 230.15 12.943 229.221 13.1331 228.26L-32.3068 219.697C-32.4969 220.658 -32.6923 221.587 -32.8511 222.543ZM-37.6567 254.012L8.64717 258.587C8.72826 257.74 8.80936 256.893 8.92166 256.041L-37.3007 250.812C-37.4384 251.892 -37.5502 252.937 -37.6567 254.012ZM-36.3667 243.637L9.75233 249.204C9.83871 248.388 9.95633 247.567 10.0792 246.778L-35.8911 240.385C-36.06 241.471 -36.229 242.557 -36.3667 243.637ZM-22.414 181.533L21.4518 195.194C21.7461 194.28 22.0404 193.367 22.3346 192.453L-21.5313 178.793C-21.8256 179.706 -22.1198 180.62 -22.414 181.533ZM-19.099 171.567L24.3848 186.38C24.6637 185.565 24.9685 184.714 25.2474 183.899L-18.0554 168.64C-18.4015 169.626 -18.7529 170.581 -19.099 171.567ZM-30.7022 212.317L14.4539 221.856C14.6339 221.025 14.8139 220.194 14.9992 219.395L-29.9506 209.181C-30.1925 210.214 -30.4292 211.279 -30.6711 212.312L-30.7022 212.317ZM-28.2673 202.077L16.5381 212.763C16.7545 211.958 16.9658 211.122 17.151 210.323L-27.4844 198.935C-27.7575 199.974 -27.9994 201.007 -28.2725 202.046L-28.2673 202.077ZM-25.5615 191.921L18.9241 203.75C19.1718 202.94 19.3883 202.135 19.6048 201.33L-24.6433 188.822C-24.9476 189.865 -25.2572 190.878 -25.5615 191.921ZM-7.08237 141.974L34.6537 161.047C35.0315 160.248 35.378 159.455 35.787 158.651L-5.76275 139.162C-6.21831 140.07 -6.63206 141.035 -7.05113 141.969L-7.08237 141.974ZM223.518 14.5001L211.926 59.8659C212.697 60.0616 213.462 60.226 214.233 60.4216L226.704 15.3299C225.663 15.0499 224.559 14.7801 223.518 14.5001ZM179.292 8.56207L178.908 55.9251C179.772 55.9132 180.672 55.9274 181.541 55.9467L182.711 8.68062C181.581 8.63941 180.452 8.59825 179.297 8.59332L179.292 8.56207ZM234.468 17.6293L220.049 62.0111C220.861 62.2641 221.673 62.517 222.486 62.77L237.317 18.5459C236.364 18.2196 235.416 17.9245 234.468 17.6293ZM190.501 9.05183L187.447 56.1747C188.259 56.2354 189.102 56.2909 189.913 56.3516L193.883 9.3366C192.744 9.23296 191.635 9.12425 190.501 9.05183ZM201.467 10.1903L195.753 56.9431C196.539 57.04 197.299 57.1733 198.085 57.2702L204.589 10.6454C203.538 10.4954 202.487 10.3454 201.435 10.1953L201.467 10.1903ZM212.746 12.0474L203.649 58.1308C204.378 58.2691 205.101 58.3762 205.799 58.5195L215.963 12.6798C214.896 12.4361 213.808 12.2598 212.746 12.0474ZM293.181 46.4539L267.449 84.4301C268.137 84.8956 268.825 85.3612 269.544 85.8217L295.896 48.2901C295.02 47.6626 294.119 47.0713 293.181 46.4539ZM64.7108 48.2274L93.843 84.8994C94.409 84.4547 95.0115 84.0363 95.6139 83.6178L67.0061 46.4439C66.2375 47.0176 65.4742 47.6225 64.7108 48.2274ZM255.077 25.3482L236.214 67.7252C236.974 68.0507 237.729 68.345 238.49 68.6706L257.994 26.6706C257.019 26.2194 256.019 25.8044 255.045 25.3532L255.077 25.3482ZM265.068 30.0119L243.975 71.1475C244.845 71.5515 245.72 71.9867 246.596 72.4219L267.834 31.3909C266.923 30.9295 265.98 30.4732 265.068 30.0119ZM244.712 21.1299L228.323 64.6767C229.11 64.9659 229.891 65.2239 230.677 65.5132L247.764 22.302C246.769 21.9183 245.738 21.5085 244.743 21.1248L244.712 21.1299ZM274.639 35.0325L251.894 75.1214C252.67 75.5406 253.483 75.9859 254.296 76.4312L277.546 36.6771C276.588 36.1273 275.629 35.5774 274.639 35.0325ZM92.2155 30.1985L115.022 71.5529C115.817 71.1353 116.649 70.7438 117.449 70.3573L94.9851 28.7549C94.0706 29.224 93.1248 29.6982 92.2155 30.1985ZM102.468 25.0391L122.609 67.8843C123.384 67.5341 124.132 67.2202 124.906 66.8701L105.269 23.7827C104.344 24.1894 103.388 24.6012 102.468 25.0391ZM112.338 20.8397L129.985 64.8594C130.645 64.5919 131.342 64.3506 132.002 64.0831L115.202 19.7655C114.235 20.1148 113.3 20.4591 112.338 20.8397ZM73.3785 41.85L100.46 80.2337C101.119 79.7739 101.784 79.3453 102.449 78.9167L75.934 40.0884C75.103 40.6722 74.2408 41.2611 73.4098 41.8449L73.3785 41.85ZM82.4948 35.8488L107.758 75.6179C108.371 75.2619 109.01 74.8696 109.624 74.5135L85.3676 34.0678C84.3753 34.6458 83.4194 35.2498 82.4583 35.8227L82.4948 35.8488ZM134.215 13.8898L145.608 59.9827C146.315 59.8038 147.022 59.625 147.734 59.4773L137.08 13.2003C136.123 13.4197 135.172 13.6704 134.246 13.8847L134.215 13.8898ZM156.797 9.77583L162.526 56.8843C163.249 56.799 163.977 56.745 164.7 56.6597L160.167 9.42116C159.033 9.54107 157.931 9.65596 156.802 9.80707L156.797 9.77583ZM123.14 17.034L137.923 62.1279C138.594 61.9228 139.264 61.7178 139.972 61.5389L126.13 16.132C125.121 16.424 124.149 16.7421 123.177 17.0602L123.14 17.034ZM144.917 11.5756L153.959 58.1784C154.708 58.0568 155.452 57.904 156.201 57.7825L147.903 11.0269C146.904 11.189 145.905 11.3511 144.917 11.5756ZM168.08 8.81049L170.547 56.1596C171.374 56.1216 172.233 56.0784 173.06 56.0404L171.264 8.67853C170.213 8.72082 169.131 8.7682 168.08 8.81049ZM16.5652 480.785L4.87819 486.562C5.36457 487.542 5.84563 488.49 6.33201 489.469L19.2866 482.845C18.2966 482.3 17.3478 481.62 16.5705 480.816L16.5652 480.785ZM60.0126 569.073L96.2412 536.095C95.6151 535.427 94.989 534.759 94.3629 534.091L57.9931 566.803C58.6663 567.559 59.3447 568.347 60.0178 569.104L60.0126 569.073ZM52.9519 560.887L90.0476 529.244C89.4945 528.628 88.9673 527.976 88.4142 527.36L50.8225 558.346C51.5114 559.196 52.2629 560.036 52.9519 560.887ZM48.5374 533.479L37.74 541.293C38.3719 542.184 39.0038 543.076 39.6616 543.931L50.3336 535.946C49.6034 535.23 49.0391 534.36 48.5321 533.448L48.5374 533.479ZM67.3276 577.057L102.543 542.64C101.922 542.004 101.302 541.367 100.681 540.73L65.2094 574.771C65.9137 575.523 66.6233 576.305 67.3276 577.057ZM106.758 565.077L115.634 554.818C115.071 554.332 114.502 553.815 113.934 553.298L103.93 564.286C104.919 564.446 105.856 564.679 106.726 565.083L106.758 565.077ZM74.9438 584.736L109.167 549.005C108.484 548.378 107.832 547.747 107.18 547.115L72.7842 582.585C73.5144 583.3 74.25 584.047 74.9803 584.762L74.9438 584.736ZM21.731 517.178L62.6006 492.298C62.0782 491.485 61.5506 490.641 61.0282 489.827L20.221 514.697C20.7174 515.547 21.2086 516.365 21.731 517.178ZM27.4883 526.377L67.5421 499.898C67.0668 499.173 66.529 498.459 66.0484 497.703L25.7853 523.703C26.3547 524.605 26.9188 525.476 27.4883 526.377ZM60.2957 539.299C59.4532 539.436 58.6207 539.443 57.8141 539.414L44.2193 550.022C44.8353 550.82 45.4826 551.613 46.0986 552.411L84.192 522.305C83.6231 521.596 83.0229 520.892 82.4539 520.182L69.5136 530.299C68.677 534.829 65.1379 538.546 60.301 539.331L60.2957 539.299ZM33.4112 535.229L47.4295 525.418C48.4696 521.144 51.9261 517.697 56.5134 516.952C57.5432 516.785 58.5422 516.815 59.5207 516.913L72.8793 507.562C72.3728 506.842 71.8714 506.154 71.3337 505.44L31.6199 532.601C32.2152 533.467 32.7846 534.368 33.4112 535.229ZM16.3487 508.11L57.637 484.189C57.2241 483.454 56.7852 482.756 56.3411 482.026L14.7494 505.291C15.2929 506.229 15.8364 507.167 16.3487 508.11ZM68.1775 522.595L78.3666 514.977C77.8706 514.32 77.3435 513.668 76.8422 512.98L66.5849 520.385C67.2057 521.021 67.7175 521.772 68.1722 522.564L68.1775 522.595ZM126.191 605.825L144.716 575.849C144.002 575.42 143.324 575.016 142.611 574.587L119.419 610.708C121.657 609.158 123.911 607.51 126.191 605.825ZM147.228 589.551L152.449 580.238C151.672 579.819 150.896 579.4 150.114 578.949L141.577 593.868C143.478 592.405 145.348 590.947 147.222 589.52L147.228 589.551ZM368.548 497.993L383.421 504.975C383.79 504.883 384.149 504.728 384.518 504.636C386.203 504.363 387.91 504.407 389.565 504.715L369.609 495.736C369.257 496.499 368.9 497.23 368.548 497.993ZM108.576 612.949L137.357 571.207C136.601 570.72 135.846 570.234 135.116 569.711L106.053 611.114C106.892 611.715 107.731 612.316 108.602 612.913L108.576 612.949ZM98.3297 585.943L88.7591 597.405C89.583 598.105 90.4433 598.832 91.2672 599.532L101.63 586.69C100.465 586.623 99.361 586.353 98.3297 585.943ZM91.3948 578.121L80.53 590.082C81.3697 590.876 82.2666 591.629 83.1375 592.417L92.709 581.339C92.0978 580.38 91.6892 579.292 91.3948 578.121ZM113.14 572.476L122.709 560.629C122.047 560.127 121.411 559.589 120.744 559.056L111.92 569.627C112.453 570.503 112.841 571.466 113.109 572.481L113.14 572.476ZM99.8545 606.508L129.841 566.013C129.179 565.511 128.491 565.046 127.834 564.575L97.2634 604.459C98.1497 605.149 98.9735 605.849 99.8598 606.539L99.8545 606.508ZM-38.6813 327.711L8.02836 324.074C7.94286 323.19 7.89381 322.332 7.83951 321.443L-38.9234 324.575C-38.8427 325.621 -38.7619 326.666 -38.65 327.706L-38.6813 327.711ZM-34.9853 359.019L11.2632 352.09C11.1153 351.216 11.0039 350.368 10.8924 349.521L-35.4458 355.919C-35.2715 356.949 -35.1596 357.989 -34.98 359.05L-34.9853 359.019ZM-26.654 400.285L18.7354 389.038C18.5251 388.175 18.2888 387.347 18.0785 386.483L-27.4267 397.236C-27.19 398.256 -26.9219 399.271 -26.654 400.285ZM-36.453 348.643L9.97512 342.775C9.85842 341.896 9.74702 341.048 9.66152 340.164L-36.8252 345.496C-36.7133 346.536 -36.5702 347.571 -36.453 348.643ZM-31.2799 379.775L14.5677 370.666C14.3885 369.798 14.1782 368.934 14.0356 368.091L-31.9017 376.669C-31.7221 377.73 -31.4854 378.75 -31.2799 379.775ZM-29.0891 390.066L16.5423 379.87C16.332 379.006 16.1582 378.169 15.9531 377.336L-29.8046 386.975C-29.599 388 -29.3259 389.046 -29.1203 390.071L-29.0891 390.066ZM-33.2522 369.448L12.8115 361.427C12.6636 360.553 12.4845 359.684 12.3366 358.81L-33.8168 366.301C-33.6425 367.331 -33.463 368.392 -33.2522 369.448ZM-37.6816 338.163L8.87425 333.429C8.78875 332.545 8.67739 331.697 8.59188 330.813L-38.0174 335.043L-37.6816 338.163ZM-40.1838 293.449C-40.1713 294.281 -40.1587 295.113 -40.1462 295.945L6.89053 296.135C6.88808 295.174 6.8856 294.212 6.88315 293.25L-40.1536 293.06C-40.1536 293.06 -40.1737 293.319 -40.1473 293.475L-40.1838 293.449ZM-39.932 306.492L7.03933 305.539C7.00567 304.583 6.97202 303.626 6.96957 302.664L-40.0123 303.555C-39.9734 304.543 -39.9709 305.504 -39.932 306.492ZM-39.97 285.43L6.96537 286.727C6.96821 285.797 6.99702 284.83 7.03106 283.894L-39.8578 282.493C-39.9178 283.465 -39.9101 284.458 -39.97 285.43ZM-39.4312 317.218L7.40084 314.684C7.35183 313.826 7.3028 312.968 7.2485 312.079L-39.6474 314.046C-39.5979 315.096 -39.5484 316.147 -39.4677 317.192L-39.4312 317.218ZM-6.96851 460.329L36.7081 442.562C36.347 441.754 36.0171 440.942 35.6872 440.13L-8.13631 457.408C-7.74883 458.371 -7.35599 459.366 -6.96851 460.329ZM-2.80704 470.14L40.4292 451.097C40.0628 450.259 39.6965 449.42 39.2989 448.587L-3.97958 467.38C-3.59738 468.312 -3.21516 469.244 -2.80175 470.171L-2.80704 470.14ZM32.7695 465.136L44.4835 459.707C44.0495 458.847 43.6414 457.952 43.2073 457.092L30.1265 463.159C31.0853 463.709 31.9922 464.332 32.7695 465.136ZM-24.0006 410.469L21.1416 398.14C20.9053 397.313 20.6638 396.454 20.4276 395.626L-24.8668 407.435C-24.5988 408.45 -24.2944 409.491 -24.0264 410.506L-24.0006 410.469ZM35.8888 474.282L48.547 467.802C48.1653 467.062 47.7471 466.296 47.3654 465.557L35.855 471.241C36.0293 472.271 36.0111 473.3 35.8888 474.282ZM11.1844 498.815L52.9595 476.065C52.5466 475.33 52.1336 474.596 51.7466 473.825L9.63685 495.924C10.1492 496.867 10.6668 497.841 11.1791 498.784L11.1844 498.815ZM302.063 52.7088L274.814 89.4881C275.434 89.9326 276.055 90.377 276.649 90.8578L304.784 54.7684C303.867 54.0836 302.949 53.3987 302.032 52.7139L302.063 52.7088ZM-17.9292 430.617L26.6818 416.097C26.3832 415.28 26.1157 414.457 25.843 413.604L-18.8891 427.598C-18.5587 428.603 -18.2283 429.607 -17.9292 430.617ZM-21.1026 420.582L23.7975 407.201C23.5247 406.348 23.2884 405.52 23.0157 404.666L-22.0365 417.526C-21.7374 418.536 -21.4383 419.546 -21.1338 420.587L-21.1026 420.582ZM-14.5267 440.679L29.7587 424.994C29.4653 424.208 29.1979 423.385 28.9045 422.599L-15.5543 437.639C-15.2239 438.644 -14.857 439.675 -14.4955 440.674L-14.5267 440.679ZM-10.901 450.545L33.0488 433.824C32.7555 433.038 32.4256 432.225 32.1322 431.439L-12.0481 447.557C-11.6553 448.551 -11.3197 449.587 -10.9269 450.581L-10.901 450.545ZM284.008 40.5669L259.851 79.6986C260.565 80.1279 261.273 80.5259 261.993 80.9864L286.776 42.3305C285.843 41.7443 284.946 41.1844 284.013 40.5982L284.008 40.5669ZM321.044 561.341L357.284 600.227C358.14 599.414 358.997 598.602 359.817 597.763L322.684 559.856C322.16 560.358 321.605 560.865 321.044 561.341ZM320.572 584.507L309.788 570.8C309.107 571.327 308.396 571.86 307.716 572.387L319.305 587.438C319.578 586.4 320.023 585.43 320.572 584.507ZM327.159 555.603L365.297 592.063C366.054 591.235 366.786 590.443 367.549 589.646L328.861 553.915C328.285 554.49 327.74 555.059 327.133 555.639L327.159 555.603ZM332.141 601.517C331.516 601.619 330.876 601.626 330.236 601.634L340.474 614.948C341.294 614.302 342.151 613.682 342.972 613.036L333.612 601.118C333.123 601.262 332.64 601.436 332.141 601.517ZM339.678 596.606L349.191 607.729C350.032 607.015 350.874 606.302 351.678 605.562L341.085 593.556C340.755 594.636 340.289 595.673 339.678 596.606ZM333.334 549.277L372.617 583.788C373.307 582.939 374.033 582.115 374.755 581.261L335.015 547.465C334.445 548.07 333.905 548.671 333.334 549.277ZM132.899 636.933L168.187 653.333C169.268 652.708 170.343 652.053 171.444 651.361L136.5 635.098C135.295 635.742 134.084 636.356 132.894 636.901L132.899 636.933ZM143.187 631.222L177.573 647.223C178.545 646.521 179.516 645.818 180.481 645.084L146.303 629.177C145.27 629.89 144.231 630.572 143.187 631.222ZM365.917 539.467C365.608 538.78 365.3 538.092 365.11 537.353C364.937 536.708 364.857 536.047 364.778 535.387L351.681 526.962C351.214 527.615 350.722 528.304 350.224 528.962L365.917 539.467ZM339.114 542.887L379.671 575.075C380.356 574.195 381.015 573.35 381.699 572.469L340.722 541.023C340.188 541.655 339.654 542.286 339.114 542.887ZM344.789 536.066L386.158 566.23C386.806 565.323 387.459 564.447 388.071 563.514L346.319 534.118C345.821 534.776 345.292 535.439 344.789 536.066ZM395.995 475.644L380.075 470.243C379.823 471.021 379.507 471.81 379.254 472.589L398.403 479.454C397.386 478.369 396.53 477.097 395.995 475.644ZM404.651 460.482C408.302 459.889 411.786 461.152 414.274 463.538L430.978 468.267C431.23 467.296 431.519 466.351 431.798 465.344L385.707 452.557C385.444 453.466 385.176 454.343 384.907 455.22L404.037 460.646C404.256 460.61 404.432 460.517 404.62 460.487L404.651 460.482ZM414.277 515.841L395.014 507.166C397.026 508.635 398.659 510.519 399.758 512.649L412.958 518.845C413.398 517.843 413.843 516.873 414.283 515.872L414.277 515.841ZM418.358 506.039L373.427 487.228C373.086 488.053 372.776 488.873 372.429 489.666L417.179 508.924C417.592 507.959 417.97 506.968 418.352 506.008L418.358 506.039ZM328.327 579.176L316.304 565.542C315.686 566.059 315.037 566.581 314.425 567.129L325.535 580.11C326.429 579.708 327.365 579.364 328.363 579.202L328.327 579.176ZM396.912 465.714L383.003 461.398C382.73 462.244 382.487 463.085 382.214 463.931L395.748 468.309C396.042 467.395 396.409 466.534 396.917 465.746L396.912 465.714ZM152.229 624.977L186.059 640.715C186.962 639.992 187.891 639.231 188.795 638.508L155.106 622.842C154.172 623.571 153.206 624.305 152.266 625.003L152.229 624.977ZM400.755 522.332L409.134 526.937C409.325 526.553 409.517 526.17 409.682 525.822L400.956 521.434C400.879 521.735 400.833 522.031 400.755 522.332ZM300.948 577.109L331.063 621.863C332.008 621.197 332.995 620.587 333.935 619.89L302.844 575.807C302.21 576.231 301.582 576.686 300.943 577.078L300.948 577.109ZM301.675 594.853L321.557 628.024C322.456 627.461 323.396 626.956 324.29 626.362L300.439 587.55L301.675 594.853ZM306.709 624.597L311.431 633.74C312.491 633.183 313.551 632.626 314.611 632.069L305.029 614.672L306.709 624.597ZM394.047 554.303L382.279 546.721C381.733 546.905 381.192 547.121 380.631 547.213C379.663 547.37 378.675 547.402 377.707 547.367L392.243 557.097C392.855 556.164 393.472 555.262 394.052 554.334L394.047 554.303ZM422.099 496.132L376.97 478.604C376.608 479.496 376.215 480.394 375.853 481.286L421.118 498.857C421.448 497.969 421.774 497.051 422.099 496.132ZM236.138 585.191L274.55 575.91C272.765 573.891 269.393 573.861 265.982 574.543C265.082 574.721 264.188 574.93 263.304 575.202C262.997 575.284 262.659 575.371 262.358 575.484L234.72 582.118C235.232 583.061 235.667 584.113 236.08 585.232L236.138 585.191ZM310.774 59.4723L281.742 94.8093C282.405 95.3111 283.067 95.813 283.703 96.3511L313.272 61.5361C312.448 60.8361 311.593 60.1411 310.743 59.4773L310.774 59.4723ZM215.562 598.503L194.886 588.871C194.003 589.528 193.038 590.262 192.082 591.058L216.55 602.448C216.271 600.986 215.924 599.695 215.562 598.503ZM184.123 597.834L218.478 613.84L217.834 610.032L186.719 595.552C185.883 596.297 185.016 597.047 184.123 597.834ZM192.048 622.491L202.175 627.197C203.073 626.441 203.971 625.686 204.875 624.963L192.065 618.992C192.266 620.178 192.206 621.342 192.043 622.459L192.048 622.491ZM176.409 604.73L210.348 620.547C211.282 619.818 212.217 619.089 213.152 618.36L178.973 602.453C178.138 603.198 177.276 603.98 176.414 604.761L176.409 604.73ZM169.773 622.546C169.578 621.391 169.606 620.232 169.77 619.115L163.331 616.12C162.433 616.875 161.535 617.63 160.631 618.354L169.784 622.609L169.773 622.546ZM186.667 630.483L194.184 633.977C195.051 633.227 195.95 632.472 196.848 631.717L189.398 628.244C188.615 629.109 187.717 629.864 186.699 630.478L186.667 630.483ZM174.978 611.055L171.222 609.323C170.355 610.073 169.488 610.823 168.627 611.605L172.351 613.341C173.098 612.45 173.96 611.669 174.978 611.055ZM408.397 482.803C408.241 482.828 408.048 482.827 407.887 482.821L424.745 488.84C425.086 487.823 425.385 486.748 425.725 485.73L412.524 481.235C411.303 481.978 409.921 482.523 408.392 482.772L408.397 482.803ZM407.089 185.999L364.601 204.728C364.952 205.473 365.277 206.254 365.627 206.999L408.46 188.983C408.005 187.999 407.544 186.983 407.089 185.999ZM397.707 167.126L356.327 187.664C356.787 188.487 357.189 189.352 357.618 190.18L399.082 169.757C398.611 168.872 398.177 168.012 397.707 167.126ZM381.616 139.497L342.435 163.366C342.915 164.122 343.391 164.846 343.84 165.607L383.282 142.145C382.718 141.275 382.18 140.368 381.611 139.466L381.616 139.497ZM392.469 157.586L352.013 179.609C352.426 180.344 352.844 181.11 353.226 181.849L394.037 160.41C393.493 159.472 392.976 158.498 392.432 157.56L392.469 157.586ZM387.133 148.415L347.362 171.449C347.775 172.184 348.219 172.913 348.632 173.648L388.79 151.193C388.246 150.255 387.677 149.353 387.133 148.415ZM402.538 176.54L360.536 196.056C360.971 196.915 361.379 197.811 361.813 198.671L403.84 179.118C403.406 178.259 402.972 177.399 402.533 176.509L402.538 176.54ZM428.896 245.506L383.754 257.835C383.996 258.694 384.201 259.526 384.442 260.385L429.737 248.576C429.463 247.53 429.164 246.521 428.891 245.475L428.896 245.506ZM425.998 235.394L381.129 248.769C381.371 249.628 381.638 250.45 381.88 251.309L426.901 238.454C426.602 237.444 426.303 236.435 425.998 235.394ZM422.877 225.286L378.266 239.805C378.533 240.628 378.832 241.445 379.073 242.304L423.805 228.31C423.475 227.305 423.176 226.295 422.845 225.291L422.877 225.286ZM411.458 195.712L368.328 213.295C368.689 214.102 368.987 214.919 369.349 215.726L412.756 198.644C412.332 197.655 411.914 196.696 411.49 195.707L411.458 195.712ZM419.386 215.27L375.189 230.909C375.482 231.695 375.75 232.517 376.048 233.335L420.507 218.295C420.14 217.264 419.779 216.264 419.386 215.27ZM369.51 121.772L332.041 147.992C332.548 148.712 333.054 149.431 333.561 150.151L371.322 124.332C370.726 123.467 370.1 122.607 369.51 121.772ZM417.197 475.121L427.95 478.603C428.228 477.596 428.543 476.615 428.853 475.602L417.782 472.14C417.733 473.174 417.517 474.171 417.197 475.121ZM342.302 88.7005L308.606 119.407C309.233 120.075 309.859 120.743 310.485 121.411L344.409 90.9239C343.705 90.1724 343.032 89.4158 342.328 88.6642L342.302 88.7005ZM334.805 80.9702L302.206 112.846C302.821 113.451 303.4 114.031 303.979 114.61L337.085 83.2618C336.344 82.4842 335.572 81.7116 334.805 80.9702ZM327.101 73.53L295.55 106.486C296.16 107.06 296.765 107.604 297.376 108.178L329.464 75.744C328.666 75.0077 327.894 74.2352 327.096 73.4988L327.101 73.53ZM318.945 66.2594L288.839 100.552C289.475 101.09 290.08 101.634 290.716 102.172L321.422 68.3909C320.593 67.6596 319.769 66.9595 318.945 66.2594ZM431.524 255.726L386.134 266.973C386.345 267.837 386.581 268.664 386.791 269.528L432.27 258.812C432.034 257.792 431.761 256.746 431.524 255.726ZM363.135 113.283L326.434 140.436C326.972 141.151 327.509 141.865 328.047 142.58L365.067 115.791C364.445 114.962 363.793 114.138 363.141 113.314L363.135 113.283ZM349.481 96.6426L314.764 126.232C315.322 126.879 315.875 127.495 316.433 128.142L351.631 99.1156C350.916 98.3017 350.196 97.4565 349.481 96.6426ZM375.719 130.61L337.248 155.453C337.802 156.261 338.324 157.074 338.878 157.882L377.343 133.008C376.821 132.194 376.241 131.423 375.719 130.61ZM356.454 104.875L320.65 133.166C321.219 133.875 321.825 134.61 322.394 135.32L358.359 107.227C357.712 106.434 357.096 105.637 356.454 104.875ZM415.505 205.413L371.826 222.027C372.119 222.813 372.449 223.625 372.779 224.437L416.72 208.423C416.327 207.428 415.934 206.434 415.542 205.439L415.505 205.413ZM436.562 444.432L390.042 434.601C389.862 435.432 389.714 436.257 389.534 437.088L435.92 447.646C436.157 446.582 436.362 445.522 436.599 444.458L436.562 444.432ZM444.264 381.386L397.341 379.028C397.297 379.901 397.278 380.738 397.233 381.611L444.137 384.614C444.181 383.548 444.22 382.452 444.264 381.386ZM438.534 434.106L392.001 425.336C391.842 426.292 391.616 427.226 391.457 428.182L438.057 436.974C438.216 436.018 438.375 435.062 438.539 434.137L438.534 434.106ZM443.677 391.936L396.777 388.388C396.727 389.23 396.646 390.077 396.565 390.923L443.451 395.147C443.526 394.077 443.633 393.001 443.671 391.905L443.677 391.936ZM433.964 265.977L388.364 276.167C388.574 277.031 388.717 277.874 388.927 278.738L434.654 269.104C434.412 268.053 434.206 267.028 433.969 266.008L433.964 265.977ZM434.336 454.766L387.958 443.694C387.747 444.53 387.53 445.334 387.319 446.17L433.595 457.965C433.831 456.9 434.105 455.862 434.372 454.792L434.336 454.766ZM444.71 360.341L397.803 360.162C397.805 361.123 397.808 362.085 397.779 363.051L444.686 363.231C444.683 362.269 444.712 361.303 444.71 360.341ZM427.437 414.197L441.293 416.117C441.425 415.005 441.594 413.92 441.727 412.808L429.287 411.299C428.827 412.368 428.184 413.306 427.432 414.166L427.437 414.197ZM407.818 408.723L394.827 407.175C394.709 407.996 394.623 408.812 394.505 409.633L408.788 411.612C408.348 410.721 407.997 409.784 407.823 408.754L407.818 408.723ZM410.53 399.175L395.989 397.751C395.908 398.598 395.796 399.45 395.684 400.302L408.758 401.772C409.208 400.833 409.83 399.962 410.53 399.175ZM440.224 423.634L393.544 416.074C393.411 416.994 393.246 417.918 393.082 418.843L439.831 426.616C439.985 425.629 440.102 424.616 440.256 423.629L440.224 423.634ZM429.842 404.154L442.489 405.565C442.595 404.489 442.733 403.409 442.839 402.333L428.558 400.931C429.138 401.895 429.547 402.984 429.836 404.123L429.842 404.154ZM444.627 370.841L397.759 369.565C397.731 370.531 397.696 371.467 397.662 372.402L444.583 373.798C444.611 372.832 444.635 371.834 444.627 370.841ZM441.188 307.519L394.848 313.34C394.965 314.219 395.014 315.077 395.13 315.956L441.555 310.634C441.443 309.594 441.331 308.554 441.182 307.488L441.188 307.519ZM442.416 317.998L395.86 322.732C395.946 323.616 396.094 324.49 396.143 325.348L442.695 321.16C442.583 320.12 442.534 319.07 442.422 318.03L442.416 317.998ZM436.124 276.273L390.307 285.376C390.455 286.25 390.634 287.119 390.813 287.988L436.751 279.41C436.571 278.349 436.334 277.329 436.124 276.273ZM443.37 328.747L396.664 331.838C396.734 332.82 396.799 333.772 396.869 334.755L443.601 331.628C443.536 330.676 443.435 329.698 443.339 328.752L443.37 328.747ZM439.71 297.08L393.497 304.035C393.64 304.878 393.788 305.752 393.9 306.6L440.207 300.206C440.032 299.176 439.884 298.11 439.741 297.075L439.71 297.08ZM438.023 286.547L392.022 294.751C392.144 295.468 392.265 296.186 392.387 296.904C392.403 296.998 392.418 297.091 392.429 297.154L438.424 288.919C438.287 288.108 438.155 287.327 438.018 286.516L438.023 286.547ZM444.459 349.767L397.618 350.731C397.62 351.693 397.685 352.645 397.719 353.601L444.508 352.71C444.5 351.717 444.467 350.76 444.428 349.772L444.459 349.767ZM443.995 339.26L397.297 341.259C397.331 342.216 397.333 343.177 397.403 344.16L444.169 342.182C444.135 341.225 444.065 340.243 444 339.291L443.995 339.26ZM175.965 273.248L195.632 389.446C195.957 390.227 197.337 390.805 198.684 390.426L198.902 390.391L179.34 274.817C185.335 271.022 188.878 264.675 187.732 257.902C187.013 253.657 184.162 249.694 180.109 247.723L179.985 247.935C182.635 250.52 184.042 253.53 184.576 256.682C185.801 263.923 181.722 269.941 175.97 273.279L175.965 273.248ZM138.928 280.991C129.247 283.653 120.757 308.889 119.988 331.622L122.983 331.136C123.573 311.318 131.326 287.035 139.409 283.831C140.339 283.456 140.932 283.359 141.864 283.368L141.61 281.87C141.436 280.84 140.363 280.566 138.928 280.991ZM200.235 419.292C196.178 419.951 193.768 419.54 191.107 418.785L191.014 418.993C194.36 421.144 197.865 422.339 202.671 421.559C209.692 420.419 214.924 415.529 215.786 408.495C214.899 407.613 214.027 406.439 213.385 405.485C212.799 412.443 208.317 417.981 200.235 419.292ZM254.437 323.911L273.036 320.892C274.472 320.66 275.928 320.551 277.281 320.588C275.66 319.537 273.884 318.702 272.004 318.206L251.003 321.614L259.825 373.737C260.747 374.26 261.882 374.717 263.064 375.071L254.406 323.916L254.437 323.911ZM140.874 430.017C136.786 430.68 133.196 430.686 128.942 429.42L128.848 429.628C133.569 432.325 138.186 433.083 142.898 432.318C151.324 430.95 155.657 426.431 157.253 421.843C156.31 421.387 155.378 420.8 154.575 420.225C153.015 424.647 148.524 428.807 140.879 430.048L140.874 430.017ZM154.373 357.468L123.823 362.427C125.65 373.226 128.595 383.426 131.686 389.37C134.112 394.043 136.241 396.392 138.54 396.147C133.836 389.951 130.015 379.123 127.257 364.723L154.843 360.246L154.373 357.468ZM293.664 293.301C294.758 293.893 295.545 294.375 296.598 295.102C303.586 285.245 306.741 273.381 304.812 261.989C302.699 249.504 297.171 242.224 290.281 237.699L290.156 237.911C296.473 243.973 299.756 250.303 301.479 260.477C303.502 272.431 300.389 283.968 293.669 293.332L293.664 293.301ZM256.627 258.04C258.437 257.746 260.819 257.616 261.465 257.64C260.369 256.663 259.056 255.722 257.655 255.404C257.369 255.418 256.339 255.393 254.654 255.667C245.822 257.1 240.886 261.653 241.684 266.366L245.846 290.96L248.78 290.484L244.733 266.577C244.21 263.487 248.014 259.438 256.627 258.04ZM285.718 405.29C277.417 406.637 269.747 406.407 262.239 404.483L262.162 404.784C268.96 408.01 277.544 409.471 288.435 407.703C317.3 403.018 337.036 376.598 331.23 342.297C328.636 326.973 322.817 317.784 315.135 310.853L314.943 311.044C321.858 319.126 325.873 328.64 327.886 340.531C333.543 373.958 316.362 400.317 285.749 405.285L285.718 405.29ZM238.758 412.944C233.89 413.734 230.179 413.214 227.049 411.958L226.966 412.228C230.417 414.618 235.801 416.118 241.012 415.272C249.594 413.879 254.499 409.138 256.566 403.544C255.55 403.228 254.654 402.86 253.753 402.461C251.486 407.062 247.564 411.547 238.764 412.975L238.758 412.944ZM174.303 423.501C170.589 424.104 168.075 423.646 165.857 422.852L165.795 423.054C168.678 425.312 172.557 426.446 176.832 425.752C181.451 425.003 185.196 422.695 187.632 418.708C186.762 418.497 185.408 418.075 184.528 417.609C182.007 420.904 179.176 422.742 174.339 423.527L174.303 423.501ZM242.958 621.507L281.59 612.961L282.14 616.207L243.507 624.753L242.958 621.507ZM264.049 671.67L278.329 668.519L280.806 664.589L260.499 669.072L264.08 671.665L264.049 671.67ZM276.064 637.331C276.195 637.535 276.305 637.805 276.409 638.045L285.463 636.03L284.913 632.785L274.191 635.166C274.879 635.824 275.542 636.518 276.033 637.336L276.064 637.331ZM245.151 634.652L283.783 626.105L283.234 622.86L244.601 631.406L245.151 634.652ZM247.491 589.377L237.866 591.612L238.415 594.858L246.777 592.924C246.777 592.924 246.756 592.799 246.745 592.737C246.805 591.573 247.062 590.441 247.46 589.382L247.491 589.377ZM276.602 648.276L287.143 645.956L286.593 642.71L277.659 644.673C277.532 645.623 277.336 646.553 276.974 647.446C276.866 647.752 276.716 648.001 276.571 648.281L276.602 648.276ZM248.678 599.607L239.53 601.636L240.08 604.882L251.421 602.368C251.421 602.368 251.067 602.169 250.916 602.033C250.061 601.338 249.283 600.534 248.641 599.58L248.678 599.607ZM241.76 614.807L280.392 606.26L279.843 603.014L241.21 611.561L241.76 614.807ZM267.958 598.722L278.712 596.335L278.163 593.089L269.109 595.104C268.981 596.055 268.75 596.958 268.382 597.819C268.243 598.131 268.098 598.411 267.927 598.727L267.958 598.722ZM276.398 582.665L265.629 585.15C266.427 585.887 267.142 586.701 267.685 587.639C267.769 587.753 267.79 587.878 267.873 587.993L276.942 585.88L276.393 582.634L276.398 582.665ZM255.953 639.184L246.25 641.336L246.799 644.582L255.203 642.705C255.203 642.705 255.197 642.482 255.212 642.383C255.282 641.281 255.55 640.212 255.953 639.184ZM249.626 661.28L253.061 663.769L285.791 656.533L288.242 652.64L249.626 661.28ZM256.952 649.252L247.93 651.262L248.479 654.507L259.545 652.07C259.545 652.07 259.29 651.887 259.144 651.782C258.284 651.056 257.563 650.211 256.952 649.252Z" fill="#9B011C"/>
</svg>
