<?xml version="1.0" encoding="UTF-8"?>
<svg xmlns="http://www.w3.org/2000/svg" xmlns:xlink="http://www.w3.org/1999/xlink" version="1.1" viewBox="0 0 1440 232.63">
  <!-- Generator: Adobe Illustrator 30.2.1, SVG Export Plug-In . SVG Version: 2.1.1 Build 1)  -->
  <defs>
    <style>
      .st0 {
        fill: none;
      }

      .st1 {
        mix-blend-mode: color-burn;
        opacity: .5;
      }

      .st2 {
        isolation: isolate;
      }

      .st3 {
        opacity: .2;
      }

      .st4 {
        clip-path: url(#clippath);
      }

      .st5 {
        fill: #12284c;
      }
    </style>
    <clipPath id="clippath">
      <rect class="st0" x="7.46" y=".98" width="1432.54" height="186.04"/>
    </clipPath>
  </defs>
  <g class="st2">
    <g id="Layer_1">
      <g class="st4">
        <g class="st3">
          <g class="st1">
            <path class="st5" d="M81.28,113.43c-8.87-9.51-21.44-13.44-33.2-13.44-19.39,0-30.72,11.16-30.72,26.26,0,13.64,10.1,25.22,31.76,25.22,30.31,0,50.93-19.44,71.13-41.76,17.53-19.22,32.79-40.52,51.96-59.74-9.69,4.55-23.09,8.06-36.5,8.06-18.97,0-39.17-5.99-39.17-25.63,0-17.57,16.91-31.42,50.72-31.42,21.03,0,43.09,7.44,62.69,19.44,4.95-3.1,9.49-5.38,13.61-7.24l20.2-.83-14.84,21.49c4.33,3.72,8.46,7.44,12.37,11.37l-3.71,3.72c-3.71-3.93-7.63-7.44-11.54-10.96-23.92,35.14-50.72,74.42-63.72,102.53,2.27,2.07,15.67-11.99,21.24-17.98,11.34-11.99,40.42-44.65,44.33-48.99,18.97-21.08,42.69-44.65,66.6-60.36l24.54-.83c-39.17,48.58-83.5,112.04-83.5,128.78,0,3.72,1.65,5.58,5.36,5.58,11.13,0,27.63-15.3,53.61-50.85l3.92,2.68c-30.93,43.41-49.07,57.47-68.25,57.47-12.17,0-17.73-5.79-17.73-14.67,0-20.26,41.24-73.38,70.31-111.83-2.06,1.86-8.87,7.65-12.37,10.96-36.09,33.28-71.76,79.59-97.94,103.77-3.5,3.51-12.57,11.57-22.27,11.57-7.01,0-12.57-3.72-12.79-8.68-.62-9.92,16.5-35.76,26.19-51.26,9.07-14.47,25.16-38.03,45.98-65.53-55.46,34.73-87.43,126.3-160.42,126.3-27.63,0-41.65-12.2-41.65-30.18s14.43-31.84,40.62-31.84c12.99,0,27.22,4.34,37.32,15.09l-4.13,3.72v.02ZM135.71,53.07c20,0,38.76-8.06,55.87-19.85,4.33-3.31,8.87-6.62,13.61-9.72-20.41-11.79-41.65-17.37-57.94-17.37-24.33,0-42.06,8.68-42.06,26.26,0,12.4,10.72,20.67,30.52,20.67Z"/>
          </g>
          <g class="st1">
            <path class="st5" d="M356.95,71.26l19.59-1.03c-14.84,23.56-20.62,33.08-25.98,43-2.89,4.96-7.01,13.44-7.01,17.15,0,2.9,1.65,3.93,4.13,3.93,7.43,0,17.11-8.06,35.46-33.49l3.92,2.48c-15.05,21.08-30.31,40.1-48.04,40.1-8.04,0-12.99-3.93-12.99-11.37,0-5.38,2.68-11.16,4.94-15.5-9.9,12.2-22.68,26.87-39.17,26.87-9.69,0-14.23-5.38-14.23-13.64,0-9.92,7.21-21.91,16.08-33.91,13.2-17.37,29.28-26.87,43.5-26.87,7.43,0,13.4,2.68,15.46,8.89l4.33-6.62h0ZM301.47,134.1c5.57,0,13.2-6.21,20.83-14.88,9.07-10.33,18.56-23.36,24.13-32.87.62-1.03,1.44-3.1,1.44-4.96.2-4.14-2.89-6.41-7.22-6.41-7.22,0-14.84,5.17-25.57,18.4-10.1,12.4-18.76,27.7-18.76,35.35,0,2.68.83,5.38,5.16,5.38h0Z"/>
          </g>
          <g class="st1">
            <path class="st5" d="M416.53,123.97c-12.37,14.06-22.68,19.44-33.4,19.44-8.66,0-13.61-5.58-13.61-13.44,0-10.13,7.21-22.12,15.46-33.28,12.37-16.74,28.04-27.7,44.95-27.7,7.83,0,12.57,3.1,14.64,8.68,10.72-17.57,36.29-60.36,36.29-60.36l20-1.24-30.72,50.43c-14.23,23.56-22.68,37.62-28.04,47.55-2.89,5.38-6.39,12.61-6.39,16.74,0,2.07,1.24,3.51,3.92,3.51,5.98,0,15.06-4.55,35.67-33.49l3.92,2.48c-18.35,26.26-31.34,40.1-48.66,40.1-8.24,0-12.57-4.14-12.57-11.16,0-5.79,2.68-11.16,4.94-15.71l-6.39,7.44h0ZM412.4,121.08c8.46-9.09,17.94-21.29,25.36-33.69,1.24-2.07,2.06-4.34,2.06-5.99,0-3.93-2.27-6.41-6.6-6.41-7.83,0-15.46,4.96-26.19,18.4-9.27,11.57-18.76,27.9-18.76,35.55,0,2.9,1.24,5.17,4.54,5.17,4.13,0,10.1-2.48,19.59-13.03h0Z"/>
          </g>
          <g class="st1">
            <path class="st5" d="M486.62,85.32c12.37-11.99,24.74-16.33,34.23-16.33,8.04,0,12.79,2.68,12.79,9.72,0,10.13-10.51,21.49-27.83,28.94-5.98,2.68-14.02,4.55-18.56,4.96-2.06,4.14-4.13,9.09-4.13,14.47s3.5,8.26,10.31,8.26c16.91,0,32.37-15.09,45.77-34.52l3.92,2.48c-14.23,20.46-31.96,40.1-56.5,40.1-14.84,0-21.86-6.21-21.86-16.54,0-14.06,11.13-31.01,21.86-41.54h0ZM524.77,77.46c0-2.07-1.03-3.51-3.3-3.51-8.04,0-20,12.4-31.76,33.9,15.67-2.68,35.06-18.81,35.06-30.38h0Z"/>
          </g>
          <g class="st1">
            <path class="st5" d="M713.22,64.86c27.22-15.3,48.87-29.77,48.87-44.03,0-5.38-3.09-8.48-9.27-8.48-23.5,0-46.8,37.21-60,56.43-9.7,8.34-45.69,47.17-55.26,47.96-2.46.21-4.53-.83-5.36-1.44,7.22-11.57,12.57-22.73,12.57-32.66,0-8.68-5.57-13.64-15.87-13.64s-24.95,5.17-39.39,22.32c-8.87,10.55-16.7,23.77-16.7,35.76,0,9.72,5.57,16.33,18.56,16.33,15.26,0,28.04-10.55,38.15-24.39,2.06,1.44,5.13,2.23,8.04,2.07,10.55-.6,40.61-32.44,47.21-38.86l-32.99,55.4c-1.24-.2-2.27-.41-3.5-1.03.83-1.24,1.44-2.68,1.44-4.14,0-2.68-1.65-4.14-3.92-4.14-3.71,0-5.98,3.51-5.98,6.41,0,4.96,4.54,6.82,9.07,7.44-11.13,18.19-21.86,35.14-28.87,44.85l21.24-1.03c7.43-10.75,17.53-26.87,28.04-44.44,21.24-3.31,37.53-15.5,53.82-38.24l-3.92-2.48c-14.02,19.22-27.83,31.01-46.8,35.35,12.17-20.46,24.54-42.37,34.64-60.36l6.19-10.96h0ZM726.82,42.74c4.54-7.03,17.11-25.63,26.19-25.63,2.89,0,4.13,1.24,4.13,3.72,0,10.55-17.32,23.36-39.17,36.18,3.5-5.79,6.8-11.16,8.87-14.26h0ZM623.73,108.88c0,3.31.83,5.38,2.06,7.03-7.63,10.96-17.53,19.43-26.6,19.43-5.36,0-8.04-2.48-8.04-8.06,0-16.95,25.16-52.09,40.62-52.09,5.36,0,7.83,2.68,7.83,7.44,0,1.65-.41,3.1-.41,3.1-8.04,2.07-15.47,13.64-15.47,23.15h0Z"/>
          </g>
          <g class="st1">
            <path class="st5" d="M1086,100.82c-18.36,25.43-28.45,33.69-36.91,33.69-2.89,0-4.33-1.24-4.33-3.51,0-11.37,27.22-35.76,27.22-51.89,0-7.03-4.34-10.13-12.38-10.13-12.16,0-26.18,10.33-37.52,23.56,2.89-6.2,4.12-9.3,4.12-13.85,0-6.41-4.53-9.72-11.54-9.72-14.23,0-25.36,11.57-35.87,23.56,2.47-5.38,3.92-9.92,3.92-14.06,0-5.58-3.2-10.78-10.52-9.51-16.34,2.84-29.79,29.39-54.84,35.46l23.51-35.87c26.39-40.51,44.54-58.91,51.96-59.95v-1.03c-5.57-1.03-10.72-1.44-17.32-1.44-17.73,0-48.66,5.99-87.83,41.55l-4.74-3.72c-10.93-7.85-22.69-10.55-33.4-10.55-21.03,0-38.14,12.4-38.14,33.28,0,18.61,11.76,30.38,25.36,37.21-23.3,27.5-45.98,50.23-76.7,50.23-19.8,0-27.63-9.72-27.63-20.46,0-10.13,7.83-19.02,23.5-19.02,8.04,0,17.11,2.68,23.5,9.3l3.3-2.9c-7.22-7.65-17.53-10.96-27.01-10.96-20.2,0-31.55,11.57-31.55,23.77,0,14.88,12.17,24.8,36.09,24.8,38.56,0,69.07-23.36,93.4-48.78,6.6,1.44,14.23,2.27,23.3,2.27,4.33,0,8.46-.2,12.17-.62l-1.86,2.9c-9.9,15.09-18.35,28.53-24.95,40.52h24.33c7.83-12.82,27.08-44.56,27.08-44.56,28.47-7.08,44.59-32.95,50.38-32.96,1.49,0,2.7,1.05,2.75,2.55.1,3.67-4.01,11.32-13.2,26.18-8.46,13.64-18.56,29.14-23.09,36.18l19.8-.83s18.14-27.7,22.89-34.32c10.51-14.26,24.33-29.56,32.58-29.56,2.06,0,3.09,1.03,3.09,2.9,0,2.07-.83,5.17-4.13,11.16-5.56,10.13-31.75,50.65-31.75,50.65l19.8-.83s14.64-21.91,20-29.97c11.13-16.54,29.07-33.9,37.94-33.9,2.06,0,3.09,1.03,3.09,2.9,0,11.57-27.63,34.73-27.63,51.47,0,7.44,5.37,11.37,13.2,11.37,19.99,0,33.4-15.91,50.52-40.1l-3.92-2.48-.02.04ZM839.4,100.2c-14.02-7.65-18.97-19.22-18.97-31.84,0-14.47,9.9-28.73,31.96-28.73,10.51,0,19.59,3.1,28.46,8.89,1.03.62,2.06,1.44,2.89,2.27-6.6,6.41-13.61,13.44-20.83,21.71-8.04,9.3-15.87,18.61-23.5,27.7h0ZM894.24,103.72l-1.86,2.9c-3.1.41-10.1.83-15.87.83-6.19,0-13.82-.62-19.39-1.65,12.37-13.23,23.09-26.67,32.57-37.42l4.33-4.75c4.13,7.24,5.77,14.26,5.77,19.43,0,7.44-1.24,14.26-5.57,20.67h0ZM904.14,88.83c.41-1.86.41-3.72.41-5.58,0-7.03-2.27-15.5-7.22-23.36,34.43-37.42,53.82-48.37,77.53-49.19-15.26,8.06-36.5,29.14-57.32,58.71-4.13,6.21-8.87,12.82-13.4,19.43h0Z"/>
          </g>
          <g class="st1">
            <path class="st5" d="M1097.53,85.32c12.37-11.99,24.73-16.33,34.22-16.33,8.04,0,12.79,2.68,12.79,9.72,0,10.13-10.51,21.49-27.83,28.94-5.98,2.68-14.02,4.55-18.57,4.96-2.06,4.14-4.12,9.09-4.12,14.47s3.51,8.26,10.31,8.26c16.9,0,32.36-15.09,45.77-34.52l3.92,2.48c-14.23,20.46-31.96,40.1-56.49,40.1-14.84,0-21.87-6.21-21.87-16.54,0-14.06,11.14-31.01,21.87-41.54h0ZM1135.68,77.46c0-2.07-1.03-3.51-3.3-3.51-8.04,0-20,12.4-31.75,33.9,15.67-2.68,35.05-18.81,35.05-30.38h0Z"/>
          </g>
          <g class="st1">
            <path class="st5" d="M1144.13,142.37c2.67-4.75,22.88-34.11,32.57-50.65,3.93-6.62,5.78-10.13,5.78-12.61,0-1.44-.63-2.68-2.48-2.68-5.15,0-13.4,9.3-27.01,28.32l-3.92-2.48c17.11-23.98,25.97-33.28,37.52-33.28,7.63,0,10.93,3.93,10.93,9.3,0,6.82-3.7,13.03-10.72,25.22,21.44-28.53,31.96-34.52,40.21-34.52,5.97,0,9.07,2.68,9.07,6.41-7.42,2.27-16.49,12.82-16.49,20.88,0,3.51,1.65,5.79,6.19,5.79,8.04,0,16.49-7.65,24.33-15.71l3.09,2.9c-8.46,8.48-17.53,17.78-30.93,17.78-11.34,0-15.87-4.55-15.87-11.79,0-4.14,1.65-8.26,4.74-12.82-14.23,13.03-36.7,43.2-46.39,59.12l-20.62.83h0Z"/>
          </g>
          <g class="st1">
            <path class="st5" d="M1273.62,70.02c-7.83,12.2-22.47,35.76-22.47,35.76-5.97,9.72-12.37,20.46-12.37,25.02,0,2.27,1.44,3.72,3.92,3.72,8.46,0,18.76-8.06,37.11-33.69l3.92,2.48c-14.02,20.05-30.1,40.1-49.28,40.1-8.66,0-13.6-4.75-13.6-12.2,0-5.17,1.44-11.37,8.04-21.91,0,0,23.09-35.35,24.73-38.03l20-1.24ZM1286.61,28.27c4.53,0,8.45,2.68,8.45,8.48,0,6.82-5.56,13.23-12.57,13.23-5.77,0-8.66-3.31-8.66-8.26,0-6.21,4.94-13.44,12.79-13.44h0Z"/>
          </g>
          <g class="st1">
            <path class="st5" d="M1348.05,103.3c-13.4,20.05-31.75,40.1-56.29,40.1-15.46,0-21.43-7.85-21.43-18.19,0-14.47,10.3-28.94,21.24-39.69,12.37-11.99,24.94-16.54,34.63-16.54,10.52,0,15.46,5.58,15.46,13.03,0,5.38-3.7,10.75-9.49,10.75-3.92,0-5.56-2.48-5.56-4.55,0-4.14,3.92-6.62,3.92-10.33,0-2.07-1.03-3.72-4.12-3.72-13.61,0-37.33,35.76-37.33,51.26,0,5.58,2.48,9.92,10.53,9.92,16.7,0,31.96-15.5,44.53-34.52l3.92,2.48h0Z"/>
          </g>
          <g class="st1">
            <path class="st5" d="M1409.9,71.26l19.59-1.03c-14.84,23.56-20.63,33.08-25.98,43-2.89,4.96-7.01,13.44-7.01,17.15,0,2.9,1.65,3.93,4.12,3.93,7.43,0,17.12-8.06,35.47-33.49l3.93,2.48c-15.06,21.08-30.31,40.1-48.04,40.1-8.04,0-12.99-3.93-12.99-11.37,0-5.38,2.67-11.16,4.94-15.5-9.9,12.2-22.68,26.87-39.18,26.87-9.69,0-14.23-5.38-14.23-13.64,0-9.92,7.22-21.91,16.08-33.91,13.2-17.37,29.28-26.87,43.51-26.87,7.42,0,13.4,2.68,15.46,8.89l4.34-6.62h0ZM1354.43,134.1c5.57,0,13.2-6.21,20.83-14.88,9.08-10.33,18.57-23.36,24.13-32.87.63-1.03,1.44-3.1,1.44-4.96.21-4.14-2.89-6.41-7.22-6.41-7.22,0-14.84,5.17-25.57,18.4-10.11,12.4-18.76,27.7-18.76,35.35,0,2.68.82,5.38,5.15,5.38h0Z"/>
          </g>
        </g>
      </g>
    </g>
  </g>
</svg>