<svg width="21" height="40" viewBox="0 0 21 40" fill="none" xmlns="http://www.w3.org/2000/svg">
<path d="M18.6084 0.5H18.3369C18.3283 0.529179 18.3223 0.559625 18.3223 0.591797V0.5H2.38281V0.59082C2.38281 0.559312 2.37672 0.528862 2.36816 0.5H2.06152M18.6084 0.5V0.499023M18.6084 0.5V0.499023M18.6084 0.5L18.5742 0.499023C18.5703 0.498743 18.5666 0.498342 18.5635 0.498047C18.5736 0.499026 18.5892 0.498864 18.6084 0.499023M18.6084 0.499023C18.6097 0.499034 18.611 0.499999 18.6123 0.5H18.6396L18.6416 0.755859C18.2412 0.552972 18.2245 0.544912 18.2236 0.544922V0.545898L18.2227 0.547852C18.2222 0.548799 18.2212 0.549831 18.2207 0.550781C18.2198 0.552699 18.2187 0.554707 18.2178 0.556641C18.2159 0.560659 18.2147 0.565242 18.2129 0.569336C18.2093 0.577545 18.2055 0.586141 18.2021 0.594727C18.1955 0.611891 18.1893 0.630064 18.1836 0.649414C18.1721 0.688075 18.161 0.733365 18.1523 0.787109C18.1351 0.893639 18.1231 1.04414 18.123 1.26074C18.123 1.34193 18.1305 1.42012 18.1436 1.49414H17.9053L18.4648 2.21484C18.4704 2.22244 18.4753 2.23046 18.4805 2.2373C18.4998 2.2629 18.5166 2.28358 18.5293 2.29883C18.5341 2.30456 18.5385 2.30942 18.542 2.31348C18.5426 2.31428 18.5433 2.31553 18.5439 2.31641C18.5523 2.32732 18.5649 2.34409 18.5811 2.36523C18.6135 2.40788 18.661 2.47015 18.7188 2.54785C18.8347 2.70383 18.9929 2.92142 19.1631 3.16699C19.5083 3.66498 19.8744 4.24054 20.0508 4.65527L20.0547 4.66699L20.0654 4.69141C20.0927 4.75649 20.1134 4.81259 20.1289 4.86133V4.8623L20.1318 4.87207C20.1335 4.87681 20.1359 4.88211 20.1396 4.89453C20.141 4.89913 20.1432 4.90557 20.1455 4.91309V4.91406L20.1768 5.03125C20.1773 5.03371 20.1773 5.0361 20.1777 5.03809C20.179 5.04389 20.1799 5.04719 20.1807 5.05078C20.1821 5.05765 20.1823 5.0568 20.1816 5.05273L20.1836 5.06543L20.1865 5.07812C20.1948 5.11679 20.1975 5.1405 20.1982 5.15039L20.2012 5.19434L20.2021 5.2002C20.203 5.21083 20.2041 5.22115 20.2041 5.23242L20.2051 35.4131V35.6836C20.2051 35.9355 20.0346 36.1522 19.7949 36.2197L19.4307 36.3223V36.4902L19.4033 36.5957C19.4005 36.6064 19.3968 36.6159 19.3936 36.624C19.3908 36.631 19.3875 36.6357 19.3857 36.6387C19.2338 36.7288 18.93 36.9704 18.1133 37.2637L17.8916 37.3438L17.8115 37.5645C17.7272 37.7988 17.608 38.0839 17.5068 38.2285C17.4124 38.3618 17.3421 38.4578 17.2188 38.5557C17.0936 38.655 16.8884 38.774 16.5186 38.8936C15.7641 39.1373 14.3994 39.3577 11.8174 39.4512L11.1299 39.4756L11.1367 39.4941C10.8608 39.4923 10.5943 39.4927 10.3369 39.4883H10.3203C10.079 39.4921 9.82947 39.4914 9.57129 39.4932L9.57812 39.4766L8.88672 39.4512C6.30536 39.3579 4.94072 39.1384 4.18652 38.8945C3.81658 38.7749 3.61134 38.6549 3.48633 38.5557C3.36339 38.458 3.29329 38.3625 3.19922 38.2295L3.12012 38.0986C3.03989 37.9472 2.95791 37.7426 2.89258 37.5635L2.8125 37.3438L2.5918 37.2646L2.30273 37.1543C1.699 36.9109 1.45347 36.7185 1.31738 36.6387C1.31555 36.6356 1.31324 36.6306 1.31055 36.624C1.30737 36.6162 1.30429 36.6065 1.30176 36.5967L1.27441 36.4893V36.3213L0.90918 36.2188C0.670778 36.1517 0.5 35.9361 0.5 35.6836V5.73242H0.511719L0.5 5.2207C0.499941 5.21659 0.499825 5.20115 0.50293 5.16895V5.16504L0.503906 5.16602C0.505585 5.14853 0.509327 5.11815 0.519531 5.06738L0.522461 5.05664L0.523438 5.05078C0.523775 5.04927 0.524067 5.04749 0.524414 5.0459C0.524801 5.04412 0.524952 5.04213 0.525391 5.04004L0.560547 4.90918C0.562791 4.90195 0.564952 4.89548 0.566406 4.89062C0.568312 4.88426 0.569345 4.88015 0.570312 4.87695L0.646484 4.66797C0.821037 4.25242 1.19135 3.6708 1.54004 3.16797C1.71048 2.92219 1.86929 2.70389 1.98535 2.54785C2.04325 2.47002 2.09057 2.40786 2.12305 2.36523C2.13929 2.34391 2.15176 2.32732 2.16016 2.31641C2.16108 2.31521 2.16129 2.31357 2.16211 2.3125C2.16551 2.30854 2.17052 2.30494 2.1748 2.2998C2.18772 2.28434 2.20419 2.263 2.22363 2.2373C2.26233 2.18614 2.31349 2.11363 2.36426 2.02441C2.46077 1.85476 2.5796 1.58675 2.58203 1.27051H2.72852L2.50879 0.612305L2.50781 0.611328C2.50596 0.606125 2.50487 0.600725 2.50293 0.595703C2.49961 0.587096 2.49582 0.578541 2.49219 0.570312C2.49038 0.566221 2.48822 0.561633 2.48633 0.557617C2.48546 0.555786 2.48526 0.553575 2.48438 0.551758C2.4839 0.550773 2.48291 0.549809 2.48242 0.548828L2.48145 0.547852V0.546875C2.48126 0.54651 2.48081 0.545779 2.06152 0.756836V0.5M2.06152 0.5C2.15889 0.5 2.24539 0.454034 2.30469 0.383789C2.24596 0.314904 2.15964 0.269531 2.06152 0.269531V0.5ZM18.7881 6.10645C18.3754 6.10654 18.0382 6.44112 18.0381 6.85547V31.5625C18.0381 31.8253 18.1744 32.0557 18.3789 32.1895C18.1743 32.3151 18.032 32.5302 18.0068 32.7793L18.0029 32.8594L18.0068 32.9395C18.047 33.3355 18.3807 33.6436 18.7881 33.6436C19.2201 33.6435 19.574 33.2946 19.5742 32.8594C19.5742 32.5756 19.4216 32.3277 19.1953 32.1895C19.4006 32.0557 19.5371 31.8258 19.5371 31.5625V6.85547C19.537 6.46825 19.2428 6.14896 18.8652 6.11035L18.7881 6.10645ZM1.78516 6.10645C1.3719 6.10653 1.0353 6.4407 1.03516 6.85547L1.03418 22.0264C1.03436 22.4411 1.37143 22.7754 1.78516 22.7754C2.19878 22.7753 2.534 22.4401 2.53418 22.0264V6.85547C2.53405 6.46825 2.23984 6.14897 1.8623 6.11035L1.78516 6.10645ZM0.520508 5.06543V5.06348C0.520763 5.06239 0.521002 5.06067 0.521484 5.05859C0.520875 5.06176 0.520737 5.06437 0.520508 5.06543ZM18.6396 0.499023C18.542 0.498298 18.4558 0.45428 18.3975 0.384766C18.4554 0.315862 18.5417 0.271425 18.6377 0.269531L18.6396 0.499023Z" fill="white" stroke="white"/>
</svg>
