<svg width="20" height="81" viewBox="0 0 20 81" fill="none" xmlns="http://www.w3.org/2000/svg">
<path d="M14.6072 1.69199C14.5583 1.50025 14.4326 1.09519 14.1437 0.619019C13.8611 0.153641 11.6886 0 9.93882 0C8.1903 0 6.02798 0.153643 5.74469 0.619019C5.45645 1.09519 5.33073 1.50025 5.28121 1.69199C5.2647 1.72818 5.25391 1.76817 5.25391 1.81325C5.25391 1.96499 5.36375 2.08879 5.49961 2.08879H14.3893C14.5251 2.08879 14.6362 1.96499 14.6362 1.81325C14.6343 1.76817 14.6248 1.72754 14.607 1.69199H14.6072Z" fill="white"/>
<path d="M19.8822 34.7556C19.8282 33.4274 19.1584 32.2611 18.1476 31.5316L18.1496 31.531C18.1496 31.531 18.1356 31.5208 18.1159 31.5094C17.9984 31.4256 17.8772 31.3475 17.7521 31.277C17.0233 30.844 16.5915 30.1203 16.5026 29.0372C16.4906 28.8969 16.4379 28.4436 16.4379 28.4436L14.3682 4.99023H14.5593C14.8533 4.99023 15.0901 4.75279 15.0901 4.45947C15.0901 4.16551 14.8533 3.92807 14.5593 3.92807H14.2742L14.1758 2.8075H5.72045L5.62204 3.92807H5.33635C5.04303 3.92807 4.80558 4.16551 4.80558 4.45947C4.80558 4.75279 5.04303 4.99023 5.33635 4.99023H5.52808L3.45255 28.4436C3.45255 28.4436 3.39859 28.8969 3.38906 29.0372C3.29891 30.1209 2.86655 30.8447 2.1396 31.277C2.01326 31.3469 1.892 31.4256 1.77454 31.5094C1.75549 31.5215 1.74089 31.531 1.74089 31.531L1.74279 31.5316C0.73269 32.2605 0.061564 33.4267 0.00825357 34.7556H0V75.3138C0 75.7614 0.0812668 76.1905 0.220947 76.588C0.221581 76.5924 0.222851 76.5981 0.223486 76.6051C0.40887 77.3734 0.922505 77.9714 1.6196 78.4413C1.67865 78.4838 1.74086 78.5238 1.80372 78.5625C1.81832 78.5714 1.83165 78.5797 1.84562 78.5892C1.93006 78.64 2.01514 78.6863 2.10147 78.732C4.62706 80.0824 8.83127 80.1135 9.94429 80.097C11.0592 80.1135 15.2628 80.0824 17.7884 78.732C17.876 78.6863 17.9611 78.6393 18.043 78.5892C18.0582 78.579 18.0722 78.5708 18.0868 78.5625C18.1484 78.5244 18.2112 78.4844 18.2715 78.4413C18.9687 77.9714 19.4804 77.3734 19.6658 76.6051C19.6677 76.5981 19.6677 76.5924 19.6696 76.588C19.8105 76.1893 19.8905 75.7614 19.8905 75.3138V34.7556H19.8823H19.8822ZM5.6067 29.067C5.59273 29.2536 5.43718 29.3959 5.25433 29.3959C5.24608 29.3959 5.23592 29.3959 5.22894 29.3939C5.03339 29.38 4.88736 29.2111 4.90133 29.0162L6.49491 6.3804C6.50951 6.18486 6.67776 6.04009 6.8733 6.0528C7.06821 6.06677 7.21488 6.23565 7.20026 6.43056L5.6067 29.067ZM17.342 35.2222C17.342 35.0267 17.4994 34.8692 17.6962 34.8692C17.8912 34.8692 18.0505 35.0267 18.0505 35.2222V71.7204C18.0505 71.9153 17.8912 72.0746 17.6962 72.0746C17.4994 72.0746 17.342 71.9153 17.342 71.7204V35.2222ZM17.6962 74.394C17.4734 74.394 17.2912 74.2137 17.2912 73.9889C17.2912 73.7667 17.4734 73.5845 17.6962 73.5845C17.9191 73.5845 18.1007 73.7667 18.1007 73.9889C18.1 74.2137 17.9191 74.394 17.6962 74.394Z" fill="white"/>
</svg>
