<svg width="30" height="81" viewBox="0 0 30 81" fill="none" xmlns="http://www.w3.org/2000/svg">
<path d="M29.2548 7.39234C29.2555 7.35261 29.2548 7.30327 29.2491 7.24176C29.2471 7.23728 29.2471 7.23471 29.2471 7.22959C29.2414 7.17256 29.2298 7.104 29.217 7.02646C29.2112 7.00276 29.2042 6.9752 29.1984 6.94957C29.1837 6.89191 29.169 6.83039 29.1478 6.76312C29.1376 6.72852 29.1286 6.69392 29.1158 6.65675C29.0857 6.56512 29.0498 6.46452 29.0062 6.35752C29.0004 6.34471 28.9972 6.33574 28.9915 6.32164C28.4366 4.9972 26.7444 2.81805 26.7444 2.81805C26.7444 2.81805 26.3144 2.34389 26.3138 1.78195C26.3144 1.22064 26.3798 1.08928 26.3798 1.08928H26.3779L26.3798 1.08864H26.3477C26.4855 1.0848 26.5951 0.973947 26.5951 0.838114V0.253105C26.5951 0.11342 26.4823 0.000641381 26.3433 0.000641381H26.3022C26.2978 0.000641381 26.2958 0 26.2952 0H2.91222C2.77253 0 2.65975 0.112132 2.65975 0.252464V0.834914C2.65975 0.974598 2.77252 1.08738 2.91222 1.08738H2.87441V1.08802C2.87441 1.08802 2.93977 1.22001 2.93977 1.78068C2.93977 2.34263 2.5111 2.81678 2.5111 2.81678C2.5111 2.81678 0.818932 4.99663 0.263351 6.32038C0.208887 6.44917 0.168519 6.56131 0.134559 6.66831C0.126229 6.69522 0.117899 6.71957 0.111492 6.74456C0.0865027 6.82465 0.0685613 6.8977 0.0544643 6.96433C0.0499789 6.98355 0.0454936 7.00213 0.0416491 7.01943C0.0243485 7.09953 0.0140956 7.17129 0.00832983 7.23089C0.00832983 7.23153 0.00832979 7.23281 0.00768907 7.23345C0.00192231 7.29881 0.000640674 7.34943 0.00192227 7.39172H0V74.7553C0 75.4422 0.463905 76.0144 1.09506 76.1913L1.09442 76.1977C1.09442 76.1977 1.11556 76.2067 1.15593 76.2214C1.19758 76.3809 1.28792 76.5898 1.49872 76.709C1.6634 76.8019 2.16639 77.1998 3.42284 77.6516C3.54202 77.9803 3.73809 78.4679 3.94377 78.7581C4.49227 79.5335 5.20992 80.5182 12.5324 80.783L12.5087 80.8503C13.25 80.8503 13.9427 80.8458 14.5968 80.8349C15.269 80.8471 15.9847 80.8522 16.7511 80.8522L16.7255 80.7823C24.0512 80.5171 24.7657 79.5329 25.3161 78.7569C25.5211 78.4672 25.7172 77.9796 25.8357 77.6503C27.0916 77.1992 27.5958 76.8006 27.7618 76.709C27.97 76.5898 28.0623 76.3809 28.1027 76.2214C28.1424 76.2047 28.1636 76.1964 28.1636 76.1964V76.1919C28.7934 76.0157 29.2573 75.4422 29.2573 74.7553V72.2289L29.2548 7.39234ZM24.4319 12.0807C24.4319 11.886 24.5889 11.7277 24.7856 11.7277C24.9804 11.7277 25.1374 11.886 25.1374 12.0807V46.9953C25.1374 47.1907 24.9804 47.3483 24.7856 47.3483C24.5889 47.3483 24.4319 47.1913 24.4319 46.9953V12.0807ZM24.7856 49.2278C24.5632 49.2278 24.3813 49.0477 24.3813 48.8247C24.3813 48.6024 24.5633 48.4217 24.7856 48.4217C25.0067 48.4217 25.1886 48.6024 25.1886 48.8247C25.1893 49.0477 25.0073 49.2278 24.7856 49.2278ZM27.1365 66.3889C27.1365 66.5837 26.9776 66.742 26.7828 66.742C26.5881 66.742 26.4291 66.5837 26.4291 66.3889V12.0791C26.4291 11.8843 26.5881 11.7261 26.7828 11.7261C26.9776 11.7261 27.1365 11.8843 27.1365 12.0791V66.3889Z" fill="white"/>
</svg>
