<svg width="345" height="256" viewBox="0 0 345 256" fill="none" xmlns="http://www.w3.org/2000/svg">
<path d="M224.163 95.9455C225.054 92.8877 226.728 90.5517 227.984 89.7212L228.029 89.5654C223.988 87.9932 219.997 86.3938 215.987 84.7885L215.942 84.9443C216.447 86.4725 216.635 89.4516 215.726 92.5678L208.187 118.433C207.261 121.607 205.599 123.905 204.371 124.638L204.326 124.793C208.33 126.418 212.346 128.004 216.368 129.57L216.413 129.415C215.769 127.929 215.721 124.907 216.623 121.81L224.163 95.9455ZM93.5732 35.8077L93.6186 35.6518C90.475 34.6242 87.3394 33.6413 84.1731 32.6916L84.1277 32.8475C84.1277 32.8475 85.3405 35.4986 83.9771 40.321L77.7263 61.7648C76.517 65.9133 73.5902 68.1275 68.4894 66.6399C63.3772 65.1913 61.9753 62.1021 63.2868 57.6031L69.5319 36.1788C70.9617 31.4187 73.2931 29.7247 73.2931 29.7247L73.3386 29.5689C69.056 28.3902 64.7509 27.2896 60.4173 26.2862L60.3719 26.442C60.3719 26.442 61.7547 29.0171 60.3912 33.8395L54.1347 55.3027C52.0341 62.5091 55.5434 68.3694 65.6956 71.2239C76.569 74.3583 81.8671 68.937 83.6725 62.7435L89.6792 42.1373C91.1147 37.3577 93.5538 35.8019 93.5538 35.8019L93.5732 35.8077ZM204.058 111.582C200.19 113.62 194.785 116.001 188.163 113.21C187.714 113.012 187.278 112.839 186.823 112.66C184.793 111.797 184.046 110.302 184.745 107.907L188.038 96.6103C189.391 97.1856 190.744 97.761 192.103 98.3168C195.173 99.5977 196.466 101.828 197.143 103.345C197.202 103.362 197.26 103.38 197.26 103.38L200.177 93.5165C200.177 93.5165 200.08 93.4874 200.033 93.431C198.529 94.3142 196.547 94.8843 193.399 93.5802C192.065 93.0107 190.732 92.4412 189.412 91.897L192.063 82.8014C192.653 80.7758 193.773 80.4128 195.282 81.0348C195.939 81.3166 196.615 81.6042 197.273 81.8861C201.734 83.7539 204.034 86.0109 206.855 91.1143C206.855 91.1143 207.261 85.6656 206.883 81.0199C199.099 77.7955 191.337 74.4932 183.576 71.1909L183.53 71.3467C184.379 72.9993 184.617 76.0991 183.728 79.2211L176.165 105.164C174.739 109.84 172.409 111.238 172.409 111.238L172.364 111.394C180.458 114.86 188.583 118.292 196.724 121.666C200.244 117.999 204.038 111.576 204.038 111.576L204.058 111.582ZM276.994 114.058C277.59 112.013 278.739 111.553 280.323 111.986C281.023 112.196 281.733 112.367 282.438 112.557C287.121 113.813 289.59 115.634 292.632 120.126C292.632 120.126 292.961 114.866 292.495 110.448C284.264 108.466 276.119 106.192 268.035 103.704L267.99 103.86C268.904 105.363 269.189 108.371 268.28 111.487L260.718 137.43C259.272 142.101 256.886 143.693 256.886 143.693L256.84 143.849C265.293 146.448 273.813 148.813 282.43 150.847C286.096 146.821 289.995 140.112 289.995 140.112C285.946 142.625 280.287 145.735 273.323 143.9C272.857 143.761 272.385 143.64 271.932 143.526C269.798 142.949 268.992 141.585 269.69 139.189L272.949 128.01C274.359 128.39 275.782 128.796 277.212 129.182C280.426 130.041 281.837 132.01 282.586 133.357C282.624 133.369 282.683 133.386 282.683 133.386L285.653 123.412C285.653 123.412 285.556 123.383 285.498 123.365C283.91 124.393 281.848 125.236 278.556 124.354C277.165 123.979 275.755 123.599 274.37 123.205L277.022 114.109L276.994 114.058ZM323.89 162.245C318.606 160.66 316.311 156.795 315.23 148.909C314.141 140.831 314.609 137.922 309.724 137.071C308.797 136.92 307.875 136.749 306.947 136.598L303.677 147.816C302.894 150.504 302.55 152.985 303.373 154.947L303.327 155.103C299.164 154.384 294.999 153.6 290.881 152.725L290.921 152.589C292.561 151.238 294 149.128 294.869 146.148L302.414 120.264C303.356 117.031 302.917 114.336 301.614 112.717L301.66 112.561C306.552 113.605 311.472 114.552 316.446 115.387C328.498 117.307 331.761 122.416 330.092 128.142C328.832 132.466 325.003 135.384 318.55 136.287C327.244 140.377 321.477 160.886 331.655 161.694C330.169 162.519 327.536 163.36 323.923 162.276L323.89 162.245ZM310.951 132.864C316.272 133.74 319.571 131.552 320.905 126.975C322.075 122.963 320.475 120.408 315.09 119.534C312.957 119.169 311.848 120.002 311.261 121.943L308.212 132.402C308.612 132.48 310.848 132.854 310.945 132.883L310.951 132.864ZM127.044 69.6108C123.195 82.8159 113.058 86.7221 101.815 82.6086C97.2771 80.9297 92.5414 79.2763 87.9693 77.7142L88.0147 77.5584C89.3427 76.7707 91.1749 74.9058 92.1798 71.4585L99.725 45.574C100.809 41.854 100.179 39.3776 99.0276 37.6767L99.073 37.5209C104.131 39.2286 109.315 41.0802 114.333 42.9242C125.435 47.0164 130.865 56.503 127.039 69.6303L127.044 69.6108ZM118.033 66.103C121.207 55.2156 118.942 49.072 111.821 46.4702C109.855 45.7532 109.014 46.3906 108.474 48.2408L100.679 74.9822C100.186 76.6766 100.544 77.6948 102.907 78.5731C109.34 80.9262 114.664 77.5884 118.008 66.1167L118.033 66.103ZM49.1892 48.355C46.271 58.3659 37.1351 63.5468 21.4228 61.1425C14.3539 60.1023 7.21669 59.2959 0.00010204 58.7621C0.0114564 58.7231 0.0228108 58.6842 0.0341652 58.6452C2.95743 57.0229 4.87661 54.5699 5.87583 51.142L18.2979 8.52715C19.4732 4.49549 18.1704 2.00794 16.0852 0.175277L16.1363 -6.49151e-06C24.6481 0.583394 33.0658 1.56217 41.3676 2.8662C50.8859 4.34455 57.6442 9.42153 54.7261 19.4325C53.091 25.0418 47.9979 28.7455 41.3737 30.0202C48.9744 34.1638 51.4464 40.539 49.1697 48.3491L49.1892 48.355ZM34.2057 7.07189C31.3419 6.67882 29.7022 7.52133 28.9244 10.1896L24.445 25.5567C25.9563 25.7347 31.2201 26.4452 32.3671 26.6409C38.4074 27.2243 42.1019 23.1011 43.6121 17.9204C44.969 13.2655 43.2442 8.3851 36.5865 7.38356C36.4642 7.36808 34.3725 7.07955 34.2252 7.07772L34.2057 7.07189ZM38.0125 46.1886C39.5056 41.0662 39.1432 33.3965 28.5385 31.8041C28.3968 31.7828 26.7107 31.5523 26.5496 31.5252C24.0079 31.1864 22.3103 32.8798 21.7823 34.6912L17.0587 50.8957C16.2866 53.5445 17.1957 54.9185 19.7762 55.269C20.4456 55.3639 21.5207 55.5169 21.6235 55.5266C31.5061 56.9871 36.2752 52.1484 38.0125 46.1886ZM143.825 59.4372C143.852 57.2427 145.142 55.787 145.978 55.5293C145.978 55.5293 146.001 55.4514 146.012 55.4125C141.675 53.6244 137.618 51.9627 133.263 50.2331C133.252 50.272 133.241 50.311 133.241 50.311C134.171 51.9031 135.075 53.6568 135.199 56.9981C135.363 69.9879 135.521 82.9972 135.654 96.0201C136.35 96.3136 136.785 96.4865 137.481 96.78C142.569 90.1945 147.658 83.6089 152.74 77.0428C153.467 86.0715 154.194 95.1002 154.915 104.148C155.592 104.436 156.002 104.623 156.698 104.916C156.698 104.916 176.725 74.6214 176.78 74.5746C178.438 72.149 180.062 71.217 181.849 70.7366L181.872 70.6587C178.897 69.3427 175.91 68.0657 172.924 66.7887C172.924 66.7887 172.901 66.8666 172.896 66.8861C173.434 67.9372 173.729 69.8257 172.295 72.0642L162.232 87.5992C161.492 78.9054 160.766 70.2369 160.026 61.5431C159.46 61.3099 159.011 61.1116 158.464 60.8842C153.562 67.123 148.809 73.4279 143.881 79.6804L143.85 59.4235L143.825 59.4372ZM259.255 100.71C258.458 100.98 257.455 100.87 256.606 100.594C254.2 99.7875 252.134 97.6004 248.32 96.2656C240.899 93.6796 234.634 95.3163 232.516 102.581C228.968 114.754 246.734 122.794 244.326 131.052C243.435 134.11 240.595 134.867 237.266 133.678C231.005 131.461 228.43 125.945 227.595 119.679C226.23 123.421 224.258 129.459 223.587 132.053C227.765 132.142 230.544 136.449 237.323 138.482C244.666 140.685 251.499 138.837 253.68 131.358C257.058 119.77 239.339 110.77 241.479 103.427C242.2 100.953 244.245 99.8088 247.236 100.706C252.52 102.291 255.509 108.779 256.597 112.219C257.573 108.508 258.834 103.168 259.268 100.736L259.255 100.71ZM46.5085 120.959C43.0144 121.351 39.7145 123.178 38.5053 127.327C36.768 133.287 40.4862 140.459 39.0555 145.368C37.8462 149.516 34.9744 150.455 28.1376 146.879C26.8573 146.199 28.4451 147.056 25.9428 145.713C22.5397 143.908 22.1765 141.893 23.1133 138.679L35.473 96.2789C36.6993 92.072 38.4615 89.3601 40.2632 88.3968L40.3199 88.202C35.6423 85.6976 30.9954 83.1601 26.385 80.5699L26.3282 80.7647C27.0823 82.9606 27.0251 86.9252 25.8613 90.9179L13.354 133.825C12.1447 137.973 10.1371 140.802 8.5807 141.649C8.55799 141.727 8.54097 141.785 8.54097 141.785C15.423 145.713 22.3699 149.491 29.3816 153.119C36.9889 157.095 45.1749 156.84 47.9228 147.413C49.6657 141.434 45.0035 131.267 46.4002 126.476C46.9736 124.509 48.3991 123.242 49.8817 122.649L46.5199 120.92L46.5085 120.959ZM79.1402 176.918C74.8646 175.064 70.6003 173.171 66.353 171.219L66.3814 171.122C67.2657 170.624 68.8542 169.957 68.7567 166.306C68.704 164.893 68.6457 163.498 68.568 162.098C64.2236 160.118 59.8962 158.078 55.5939 156.025C54.932 156.992 54.2952 157.944 53.6332 158.911C51.808 161.477 52.2593 163.624 52.6918 164.749L52.6634 164.847C49.7167 163.433 46.7563 161.995 43.821 160.542C43.8323 160.503 43.8437 160.464 43.855 160.426C45.2841 159.943 47.0001 158.912 48.9006 156.305C48.9006 156.305 59.2342 141.508 63.3928 135.576C65.8241 132.09 66.7686 129.429 66.8878 127.644C70.1922 129.207 73.5217 130.756 76.8374 132.28C76.8374 132.28 75.5943 134.661 75.8937 140.808C76.193 146.955 77.329 170.233 77.329 170.233C77.4899 173.522 78.3049 175.291 79.1435 176.835L79.1151 176.932L79.1402 176.918ZM68.3281 156.689C68.07 150.618 67.8175 144.527 67.5707 138.417C64.4994 142.939 61.4029 147.475 58.3315 151.996C61.6497 153.585 64.9792 155.134 68.3281 156.689ZM113.435 160.794C115.869 157.733 119.181 153.474 120.982 150.774C120.083 150.885 119.23 150.841 117.948 150.457C115.228 149.641 112.837 146.467 108.189 144.586C98.0084 140.452 88.7416 145.212 84.8639 158.515C80.9863 171.817 85.3576 180.88 94.3429 184.549C98.1532 186.116 101.674 186.431 105.535 185.577C107.25 186.938 108.966 188.3 110.692 189.623L115.882 171.821C116.006 171.541 116.168 171.272 116.298 170.972C113.011 169.711 109.725 168.45 106.455 167.13C107.501 168.905 107.038 171.435 106.629 172.837C104.54 180.004 101.168 182.297 96.9744 180.595C92.6121 178.82 90.7294 172.452 93.8122 161.876C96.5203 152.586 100.577 146.496 107.26 149.221C112.818 151.46 113.639 157.848 113.435 160.794ZM329.756 252.704C328.55 253.147 326.007 253.465 323.015 252.567C319.868 251.624 318.069 249.39 317.355 246.189C316.074 240.51 318.136 230.39 317.497 225.264C317.078 221.919 315.491 220.045 313.274 219.825C312.188 219.711 311.101 219.597 310.015 219.483L306.966 229.942C305.587 234.674 306.938 236.922 306.938 236.922L306.898 237.059C302.759 236.622 298.611 236.14 294.469 235.639L294.514 235.483C294.514 235.483 296.994 233.643 298.381 229.103L305.654 204.154C306.991 199.493 304.892 197.127 304.892 197.127L304.938 196.971C310.18 197.611 315.414 198.207 320.659 198.764C327.358 199.481 334.609 203.011 332.347 210.699C331.007 215.295 327.195 217.795 321.004 218.67C324.182 220.809 326.047 223.762 325.991 229.315C325.906 235.114 325.278 241.47 325.506 245.182C325.771 249.201 327.34 251.789 329.737 252.699L329.756 252.704ZM323.617 209.415C324.736 205.578 322.792 203.258 318.153 202.65C317.581 202.585 317.214 202.538 316.636 202.492C315.481 202.399 314.796 202.935 314.45 204.123L311.265 215.05C312.107 215.133 313.94 215.365 314.068 215.361C319.319 215.898 322.328 213.836 323.617 209.415ZM231.585 209.11C228.801 217.721 221.439 223.265 207.589 219.979C201.393 218.48 195.234 216.929 189.077 215.295C189.089 215.256 189.1 215.217 189.1 215.217C189.1 215.217 192.631 213.755 194.161 208.941L205.442 170.241C206.868 165.204 203.74 162.021 203.74 162.021L203.791 161.846C210.161 163.544 216.535 165.16 222.925 166.716C234.367 169.132 238.302 175.776 236.122 183.255C234.811 187.755 230.922 191.459 224.268 192.471C230.118 196.174 233.86 202.104 231.574 209.149L231.585 209.11ZM218.93 170.855C216.429 170.232 215.395 171.171 214.745 173.328L210.709 187.175C211.988 187.496 215.736 188.408 216.724 188.641C221.945 189.572 225.197 185.951 226.531 181.374C227.866 176.797 226.431 172.66 221.553 171.494C221.437 171.459 219.047 170.89 218.93 170.855ZM221.407 206.926C222.747 202.329 221.791 195.244 215.292 193.697C215.157 193.656 213.613 193.299 213.477 193.258C210.893 192.631 209.133 192.654 208.451 194.991L203.915 210.553C203.387 212.365 203.931 213.904 206.29 214.506C208.364 215.001 208.617 215.077 208.694 215.1C216.195 216.905 219.888 212.21 221.421 206.951L221.407 206.926ZM237.19 241.48C233.67 253.556 220.169 258.783 204.137 253.995C189.269 249.493 178.693 239.396 174.385 219.317C171.327 205.099 170.073 192.227 165.172 189.401C164.336 189.151 163.89 189.017 163.046 188.722L159.941 199.375C158.567 204.089 159.849 206.718 159.849 206.718L159.804 206.874C155.789 205.648 151.79 204.365 147.797 203.061L147.837 202.925C147.837 202.925 150.229 201.46 151.615 196.92L158.888 171.971C160.231 167.291 158.255 164.432 158.255 164.432L158.301 164.276C163.564 166.003 168.806 167.66 174.103 169.27C176.445 169.93 187.989 173.011 185.162 182.711C183.839 187.249 179.344 189.988 173.241 189.619C177.125 193.326 179.004 196.516 181.677 211.042C185.151 229.705 189.582 245.881 206.152 250.851C218.118 254.44 228.725 251.098 231.58 241.302C232.977 236.51 230.064 234.62 228.573 234.3C228.725 232.545 230.683 230.612 233.655 231.504C236.957 232.494 238.776 236.111 237.203 241.506L237.19 241.48ZM176.446 180.944C177.547 177.165 176.16 174.314 172.378 173.158C172.378 173.158 170.941 172.727 170.863 172.704C168.848 172.078 167.755 172.64 167.182 174.607L164.286 184.54C165.524 184.932 166.709 185.288 166.806 185.317C171.845 186.871 175.157 185.365 176.446 180.944ZM148.726 191.034C144.894 193.168 139.535 195.754 132.943 193.438C132.555 193.321 132.178 193.166 131.814 193.036C129.814 192.287 129.022 190.948 129.697 188.631L132.831 177.879C134.116 178.328 135.394 178.797 136.679 179.245C139.722 180.328 141.033 182.352 141.745 183.751L141.9 183.798L144.705 174.176L144.608 174.147C143.059 175.038 141.093 175.698 137.991 174.598C136.726 174.155 135.461 173.712 134.202 173.25L136.757 164.485C137.33 162.518 138.436 162.13 139.929 162.662C140.539 162.888 141.135 163.088 141.732 163.288C146.176 164.854 148.485 166.86 151.348 171.531C151.348 171.531 151.694 166.361 151.281 161.98C143.571 159.371 135.914 156.65 128.292 153.813L128.246 153.969C129.11 155.499 129.348 158.451 128.493 161.456L121.209 186.445C119.834 190.946 117.537 192.375 117.537 192.375L117.509 192.472C125.472 195.517 133.478 198.342 141.538 201.056C145.018 197.377 148.734 191.079 148.734 191.079L148.726 191.034ZM264.382 219.647C260.438 222.234 254.906 225.488 248.033 224.21C247.627 224.152 247.247 224.08 246.847 224.002C244.745 223.605 243.943 222.369 244.613 220.071L247.747 209.32C249.088 209.574 250.424 209.847 251.751 210.076C254.937 210.671 256.327 212.423 257.045 213.655C257.104 213.672 257.143 213.684 257.143 213.684L260.005 204.08C260.005 204.08 259.908 204.051 259.85 204.033C258.315 205.098 256.288 206.036 253.025 205.417C251.703 205.169 250.407 204.907 249.085 204.659L251.64 195.895C252.213 193.927 253.359 193.403 254.919 193.701C255.558 193.829 256.183 193.932 256.802 194.054C261.431 194.913 263.854 196.53 266.86 200.566C266.86 200.566 267.154 195.571 266.673 191.424C258.669 190.04 250.666 188.508 242.698 186.859L242.652 187.014C243.567 188.369 243.87 191.171 243.015 194.176L235.731 219.164C234.33 223.679 231.979 225.367 231.979 225.367L231.94 225.504C240.264 227.238 248.614 228.811 256.998 230.267C260.556 226.251 264.351 219.68 264.351 219.68L264.382 219.647ZM295.755 224.27C291.777 226.974 286.232 230.415 279.299 229.416C278.894 229.358 278.488 229.3 278.102 229.247C275.991 228.953 275.159 227.75 275.829 225.452L278.968 214.682C280.321 214.897 281.66 215.086 283.018 215.282C286.218 215.755 287.606 217.442 288.355 218.641L288.502 218.643L291.307 209.021C291.307 209.021 291.21 208.992 291.171 208.98C289.613 210.123 287.58 211.08 284.311 210.629C282.992 210.445 281.658 210.236 280.345 210.032L282.9 201.268C283.487 199.326 284.63 198.737 286.208 198.977C286.838 199.061 287.483 199.169 288.113 199.252C292.774 199.93 295.211 201.424 298.263 205.304C298.263 205.304 298.546 200.348 298.061 196.285C289.986 195.218 281.951 194.015 273.91 192.684L273.865 192.84C274.797 194.136 275.111 196.899 274.242 199.879L266.958 224.867C265.558 229.382 263.19 231.128 263.19 231.128L263.144 231.284C271.532 232.656 279.954 233.911 288.401 235.005C291.968 230.886 295.78 224.257 295.78 224.257L295.755 224.27ZM384.311 149.467C387.893 137.177 384.643 125.21 371.026 121.126C362.906 118.69 356.215 121.788 354.393 128.04C353.309 131.76 354.632 135.482 358.556 136.659C360.867 137.352 362.963 136.541 363.725 135.159C362.18 134.082 361.513 132.675 362.086 130.707C362.909 127.883 365.836 126.537 369.721 127.703C378.171 130.237 379.972 139.567 377.537 147.922C367.624 181.929 323.822 185.014 283.165 172.819C222.073 154.494 183.693 129.343 136.917 115.312C112.246 107.912 85.0885 103.685 60.019 108.597C78.7818 109.015 99.8183 109.967 119.457 115.857C134.395 120.338 143.149 126.035 140.997 133.416C139.964 136.961 136.825 138.815 132.649 137.562C128.861 136.426 127.437 133.627 128.289 130.706C128.635 129.518 129.224 128.657 130.195 128.079C129.786 127.237 128.932 126.472 127.63 126.082C124.891 125.26 122.289 126.724 121.38 129.841C119.978 134.651 123.122 139.301 129.785 141.299C136.448 143.298 142.782 140.771 144.65 134.364C146.183 129.105 143.592 123.499 136.443 119.618C138.869 120.282 140.833 120.935 142.601 121.465C188.386 135.198 228.656 161.912 281.551 177.778C341.089 195.636 375.449 179.722 384.266 149.475L384.311 149.467ZM268.783 36.7894C259.439 33.9868 249.945 37.2811 247.481 45.7339C245.511 52.4923 249.176 58.3993 256.363 60.5552C262.968 62.5362 268.47 60.6918 269.781 56.1927C270.723 52.9596 268.313 49.7797 264.014 49.8882C264.499 54.3119 261.532 58.1872 255.957 56.515C252.11 55.3613 249.406 52.0297 250.939 46.7711C252.614 41.0255 258.629 38.3609 265.875 40.5342C274.305 43.063 278.792 49.5554 276.396 57.7746C272.57 70.9018 260.354 78.3146 233.353 70.2157C202.408 60.9339 170.051 32.8022 136.018 22.594C119.526 17.6473 102.364 17.7521 89.9364 24.8048C102.954 22.2497 117.196 21.7986 134.407 26.961C150.122 31.6747 164.796 38.8719 177.571 46.1348C196.456 56.861 215.095 69.0809 234.656 74.9483C256.704 81.5615 277.41 78.644 282.917 59.7517C285.909 49.4876 280.743 40.3981 268.777 36.8089" fill="#3B3834"/>
</svg>
