<svg xmlns="http://www.w3.org/2000/svg" fill="none" viewBox="0 0 345 256"><path fill="#3b3834" d="M224.163 95.946c.891-3.058 2.565-5.394 3.821-6.225l.045-.156c-4.041-1.572-8.032-3.171-12.042-4.776l-.045.155c.505 1.528.693 4.508-.216 7.624l-7.539 25.865c-.926 3.174-2.588 5.472-3.816 6.205l-.045.155a910 910 0 0 0 12.042 4.777l.045-.155c-.644-1.486-.692-4.508.21-7.605zM93.573 35.808l.046-.156a403 403 0 0 0-9.446-2.96l-.045.155s1.213 2.652-.15 7.474l-6.252 21.444c-1.209 4.148-4.136 6.362-9.237 4.875-5.112-1.449-6.514-4.538-5.202-9.037l6.245-21.424c1.43-4.76 3.761-6.454 3.761-6.454l.046-.156a325 325 0 0 0-12.922-3.283l-.045.156s1.383 2.575.02 7.398l-6.257 21.463c-2.1 7.206 1.408 13.066 11.56 15.92 10.874 3.135 16.172-2.286 17.978-8.48l6.006-20.606c1.436-4.78 3.875-6.335 3.875-6.335zm110.485 75.774c-3.868 2.038-9.273 4.419-15.895 1.628a35 35 0 0 0-1.34-.55c-2.03-.863-2.777-2.358-2.078-4.753l3.293-11.297c1.353.576 2.706 1.151 4.065 1.707 3.07 1.28 4.363 3.511 5.04 5.028l.117.035 2.917-9.864s-.097-.029-.144-.085c-1.504.883-3.486 1.453-6.634.15-1.334-.57-2.667-1.14-3.987-1.684l2.651-9.096c.59-2.025 1.71-2.388 3.219-1.766.657.282 1.333.57 1.991.851 4.461 1.868 6.761 4.125 9.582 9.228 0 0 .406-5.448.028-10.094-7.784-3.224-15.546-6.527-23.307-9.83l-.046.157c.849 1.652 1.087 4.752.198 7.874l-7.563 25.943c-1.426 4.676-3.756 6.074-3.756 6.074l-.045.156a2261 2261 0 0 0 24.36 10.272c3.52-3.667 7.314-10.09 7.314-10.09zm72.936 2.476c.596-2.045 1.745-2.505 3.329-2.072.7.21 1.41.381 2.115.571 4.683 1.256 7.152 3.077 10.194 7.569 0 0 .329-5.26-.137-9.678-8.231-1.982-16.376-4.256-24.46-6.744l-.045.156c.914 1.503 1.199 4.511.29 7.627l-7.562 25.943c-1.446 4.671-3.832 6.263-3.832 6.263l-.046.156c8.453 2.599 16.973 4.964 25.59 6.998 3.666-4.026 7.565-10.735 7.565-10.735-4.049 2.513-9.708 5.623-16.672 3.788-.466-.139-.938-.26-1.391-.374-2.134-.577-2.94-1.941-2.242-4.337l3.259-11.179c1.41.38 2.833.786 4.263 1.172 3.214.859 4.625 2.828 5.374 4.175l.097.029 2.97-9.974-.155-.047c-1.588 1.028-3.65 1.871-6.942.989-1.391-.375-2.801-.755-4.186-1.149l2.652-9.096zm46.896 48.187c-5.284-1.585-7.579-5.45-8.66-13.336-1.089-8.078-.621-10.987-5.506-11.838-.927-.151-1.849-.322-2.777-.473l-3.27 11.218c-.783 2.688-1.127 5.169-.304 7.131l-.046.156a331 331 0 0 1-12.446-2.378l.04-.136c1.64-1.351 3.079-3.461 3.948-6.441l7.545-25.884c.942-3.233.503-5.928-.8-7.547l.046-.156a342 342 0 0 0 14.786 2.826c12.052 1.92 15.315 7.029 13.646 12.755-1.26 4.324-5.089 7.242-11.542 8.145 8.694 4.09 2.927 24.599 13.105 25.407-1.486.825-4.119 1.666-7.732.582zm-12.939-29.381c5.321.876 8.62-1.312 9.954-5.889 1.17-4.012-.43-6.567-5.815-7.441-2.133-.365-3.242.468-3.829 2.409l-3.049 10.459c.4.078 2.636.452 2.733.481zM127.044 69.611c-3.849 13.205-13.986 17.111-25.229 12.998-4.538-1.68-9.274-3.333-13.846-4.895l.046-.156c1.328-.787 3.16-2.652 4.165-6.1l7.545-25.884c1.084-3.72.454-6.196-.697-7.897l.045-.156a616 616 0 0 1 15.26 5.403c11.102 4.092 16.532 13.579 12.706 26.706zm-9.011-3.508c3.174-10.887.909-17.031-6.212-19.633-1.966-.717-2.807-.08-3.347 1.77l-7.795 26.742c-.493 1.695-.135 2.713 2.228 3.591 6.433 2.353 11.757-.985 15.101-12.456zM49.189 48.355c-2.918 10.01-12.054 15.192-27.766 12.788A298 298 0 0 0 0 58.762l.034-.118c2.923-1.622 4.843-4.075 5.842-7.503L18.298 8.527c1.175-4.032-.128-6.52-2.213-8.352L16.136 0c8.512.583 16.93 1.562 25.232 2.866 9.518 1.479 16.276 6.556 13.358 16.567-1.635 5.609-6.728 9.313-13.352 10.587 7.6 4.144 10.072 10.519 7.796 18.33zM34.206 7.072c-2.864-.393-4.504.45-5.282 3.118l-4.479 15.367c1.511.178 6.775.888 7.922 1.084 6.04.583 9.735-3.54 11.245-8.72 1.357-4.655-.368-9.536-7.026-10.537-.122-.016-2.213-.304-2.36-.306zm3.807 39.117c1.493-5.123 1.13-12.792-9.474-14.385-.142-.021-1.828-.252-1.99-.279-2.541-.339-4.239 1.355-4.767 3.166L17.06 50.896c-.772 2.648.137 4.023 2.717 4.373.67.095 1.745.248 1.848.258 9.882 1.46 14.651-3.379 16.389-9.338m105.812 13.248c.027-2.194 1.317-3.65 2.153-3.908l.034-.117a1035 1035 0 0 0-12.749-5.179l-.022.078c.93 1.592 1.834 3.346 1.958 6.687.164 12.99.322 26 .455 39.022.696.294 1.131.467 1.827.76 5.088-6.585 10.177-13.171 15.259-19.737.727 9.028 1.454 18.057 2.175 27.105.677.288 1.087.475 1.783.768 0 0 20.027-30.295 20.082-30.341 1.658-2.426 3.282-3.358 5.069-3.838l.023-.078c-2.975-1.316-5.962-2.593-8.948-3.87l-.028.097c.538 1.051.833 2.94-.601 5.178L162.232 87.6c-.74-8.694-1.466-17.362-2.206-26.056-.566-.233-1.015-.431-1.562-.659-4.902 6.239-9.655 12.544-14.583 18.796l-.031-20.257zm115.43 41.273c-.797.27-1.8.16-2.649-.116-2.406-.806-4.472-2.994-8.286-4.328-7.421-2.586-13.686-.95-15.804 6.315-3.548 12.173 14.218 20.213 11.81 28.471-.891 3.058-3.731 3.815-7.06 2.626-6.261-2.217-8.836-7.733-9.671-13.999-1.365 3.742-3.337 9.78-4.008 12.374 4.178.089 6.957 4.396 13.736 6.429 7.343 2.203 14.176.355 16.357-7.124 3.378-11.588-14.341-20.588-12.201-27.931.721-2.474 2.766-3.618 5.757-2.721 5.284 1.585 8.273 8.073 9.361 11.513.976-3.711 2.237-9.051 2.671-11.483zM46.509 120.959c-3.495.392-6.794 2.219-8.004 6.368-1.737 5.96 1.981 13.132.55 18.041-1.209 4.148-4.08 5.087-10.917 1.511-1.28-.68.307.177-2.195-1.166-3.403-1.805-3.767-3.82-2.83-7.034l12.36-42.4c1.226-4.207 2.989-6.919 4.79-7.882l.057-.195a783 783 0 0 1-13.935-7.632l-.057.195c.754 2.196.697 6.16-.467 10.153l-12.507 42.907c-1.21 4.148-3.217 6.977-4.773 7.824l-.04.136a576 576 0 0 0 20.84 11.334c7.608 3.976 15.794 3.721 18.542-5.706 1.743-5.979-2.92-16.146-1.523-20.937.574-1.967 2-3.234 3.482-3.827l-3.362-1.729zm32.631 55.959a647 647 0 0 1-12.787-5.699l.028-.097c.885-.498 2.473-1.165 2.376-4.816a231 231 0 0 0-.189-4.208 815 815 0 0 1-12.974-6.073c-.662.967-1.299 1.919-1.96 2.886-1.826 2.566-1.375 4.713-.942 5.838l-.029.098a805 805 0 0 1-8.842-4.305l.034-.116c1.43-.483 3.145-1.514 5.046-4.121 0 0 10.333-14.797 14.492-20.729 2.431-3.486 3.376-6.147 3.495-7.932a994 994 0 0 0 9.95 4.636s-1.244 2.381-.944 8.528l1.435 29.425c.16 3.289.976 5.058 1.815 6.602l-.029.097zm-10.812-20.229q-.387-9.107-.757-18.272c-3.072 4.522-6.168 9.058-9.24 13.579a928 928 0 0 0 9.997 4.693m45.107 4.105c2.434-3.061 5.746-7.32 7.547-10.02-.899.111-1.752.067-3.034-.317-2.72-.816-5.111-3.99-9.759-5.871-10.18-4.134-19.447.626-23.325 13.929-3.878 13.302.494 22.365 9.479 26.034 3.81 1.567 7.331 1.882 11.192 1.028 1.715 1.361 3.431 2.723 5.157 4.046l5.19-17.802c.124-.28.286-.549.416-.849-3.287-1.261-6.573-2.522-9.843-3.842 1.046 1.775.583 4.305.174 5.707-2.089 7.167-5.461 9.46-9.655 7.758-4.362-1.775-6.245-8.143-3.162-18.719 2.708-9.29 6.765-15.38 13.448-12.655 5.558 2.239 6.379 8.627 6.175 11.573m216.321 91.91c-1.206.443-3.749.761-6.741-.137-3.147-.943-4.946-3.177-5.66-6.378-1.281-5.679.781-15.799.142-20.925-.419-3.345-2.006-5.219-4.223-5.439l-3.259-.342-3.049 10.459c-1.379 4.732-.028 6.98-.028 6.98l-.04.137a825 825 0 0 1-12.429-1.42l.045-.156s2.48-1.84 3.867-6.38l7.273-24.949c1.337-4.661-.762-7.027-.762-7.027l.046-.156c5.242.64 10.476 1.236 15.721 1.793 6.699.717 13.95 4.247 11.688 11.935-1.34 4.596-5.152 7.096-11.343 7.971 3.178 2.139 5.043 5.092 4.987 10.645-.085 5.799-.713 12.155-.485 15.867.265 4.019 1.834 6.607 4.231 7.517zm-6.139-43.289c1.119-3.837-.825-6.157-5.464-6.765-.572-.065-.939-.112-1.517-.158-1.155-.093-1.84.443-2.186 1.631l-3.185 10.927c.842.083 2.675.315 2.803.311 5.251.537 8.26-1.525 9.549-5.946m-92.032-.305c-2.784 8.611-10.146 14.155-23.996 10.869a866 866 0 0 1-18.512-4.684l.023-.078s3.531-1.462 5.061-6.276l11.281-38.7c1.426-5.037-1.702-8.22-1.702-8.22l.051-.175a912 912 0 0 0 19.134 4.87c11.442 2.416 15.377 9.06 13.197 16.539-1.311 4.5-5.2 8.204-11.854 9.216 5.85 3.703 9.592 9.633 7.306 16.678zm-12.655-38.255c-2.501-.623-3.535.316-4.185 2.473l-4.036 13.847c1.279.321 5.027 1.233 6.015 1.466 5.221.931 8.473-2.69 9.807-7.267 1.335-4.577-.1-8.714-4.978-9.88-.116-.035-2.506-.604-2.623-.639m2.477 36.071c1.34-4.597.384-11.682-6.115-13.229-.135-.041-1.679-.398-1.815-.439-2.584-.627-4.344-.604-5.026 1.733l-4.536 15.562c-.528 1.812.016 3.351 2.375 3.953 2.074.495 2.327.571 2.404.594 7.501 1.805 11.194-2.89 12.727-8.149zm15.783 34.554c-3.52 12.076-17.021 17.303-33.053 12.515-14.868-4.502-25.444-14.599-29.752-34.678-3.058-14.218-4.312-27.09-9.213-29.916a41 41 0 0 1-2.126-.679l-3.105 10.653c-1.374 4.714-.092 7.343-.092 7.343l-.045.156a653 653 0 0 1-12.007-3.813l.04-.136s2.392-1.465 3.778-6.005l7.273-24.949c1.343-4.68-.633-7.539-.633-7.539l.046-.156a752 752 0 0 0 15.802 4.994c2.342.66 13.886 3.741 11.059 13.441-1.323 4.538-5.818 7.277-11.921 6.908 3.884 3.707 5.763 6.897 8.436 21.423 3.474 18.663 7.905 34.839 24.475 39.809 11.966 3.589 22.573.247 25.428-9.549 1.397-4.792-1.516-6.682-3.007-7.002.152-1.755 2.11-3.688 5.082-2.796 3.302.99 5.121 4.607 3.548 10.002zm-60.744-60.536c1.101-3.779-.286-6.63-4.068-7.786l-1.515-.454c-2.015-.626-3.108-.064-3.681 1.903l-2.896 9.933c1.238.392 2.423.748 2.52.777 5.039 1.554 8.351.048 9.64-4.373m-27.72 10.09c-3.832 2.134-9.191 4.72-15.783 2.404-.388-.117-.765-.272-1.129-.402-2-.749-2.792-2.088-2.117-4.405l3.134-10.752c1.285.449 2.563.918 3.848 1.366 3.043 1.083 4.354 3.107 5.066 4.506l.155.047 2.805-9.622-.097-.029c-1.549.891-3.515 1.551-6.617.451-1.265-.443-2.53-.886-3.789-1.348l2.555-8.765c.573-1.967 1.679-2.355 3.172-1.823.61.226 1.206.426 1.803.626 4.444 1.566 6.753 3.572 9.616 8.243 0 0 .346-5.17-.067-9.551a812 812 0 0 1-22.989-8.167l-.046.156c.864 1.53 1.102 4.482.247 7.487l-7.284 24.989c-1.375 4.501-3.672 5.93-3.672 5.93l-.028.097c7.963 3.045 15.969 5.87 24.029 8.584 3.48-3.679 7.196-9.977 7.196-9.977zm115.656 28.613c-3.944 2.587-9.476 5.841-16.349 4.563a23 23 0 0 1-1.186-.208c-2.102-.397-2.904-1.633-2.234-3.931l3.134-10.751c1.341.254 2.677.527 4.004.756 3.186.595 4.576 2.347 5.294 3.579l.098.029 2.862-9.604-.155-.047c-1.535 1.065-3.562 2.003-6.825 1.384-1.322-.248-2.618-.51-3.94-.758l2.555-8.764c.573-1.968 1.719-2.492 3.279-2.194.639.128 1.264.231 1.883.353 4.629.859 7.052 2.476 10.058 6.512 0 0 .294-4.995-.187-9.142a744 744 0 0 1-23.975-4.565l-.046.155c.915 1.355 1.218 4.157.363 7.162l-7.284 24.988c-1.401 4.515-3.752 6.203-3.752 6.203l-.039.137a763 763 0 0 0 25.058 4.763c3.558-4.016 7.353-10.587 7.353-10.587zm31.373 4.623c-3.978 2.704-9.523 6.145-16.456 5.146-.405-.058-.811-.116-1.197-.169-2.111-.294-2.943-1.497-2.273-3.795l3.139-10.77c1.353.215 2.692.404 4.05.6 3.2.473 4.588 2.16 5.337 3.359l.147.002 2.805-9.622-.136-.041c-1.558 1.143-3.591 2.1-6.86 1.649-1.319-.184-2.653-.393-3.966-.597l2.555-8.764c.587-1.942 1.73-2.531 3.308-2.291.63.084 1.275.192 1.905.275 4.661.678 7.098 2.172 10.15 6.052 0 0 .283-4.956-.202-9.019a747 747 0 0 1-24.151-3.601l-.045.156c.932 1.296 1.246 4.059.377 7.039l-7.284 24.988c-1.4 4.515-3.768 6.261-3.768 6.261l-.046.156a766 766 0 0 0 25.257 3.721c3.567-4.119 7.379-10.748 7.379-10.748zm88.556-74.803c3.582-12.29.332-24.257-13.285-28.341-8.12-2.436-14.811.662-16.633 6.914-1.084 3.72.239 7.442 4.163 8.619 2.311.693 4.407-.118 5.169-1.5-1.545-1.077-2.212-2.484-1.639-4.452.823-2.824 3.75-4.17 7.635-3.004 8.45 2.534 10.251 11.864 7.816 20.219-9.913 34.007-53.715 37.092-94.372 24.897-61.092-18.325-99.472-43.476-146.248-57.507-24.671-7.4-51.829-11.627-76.898-6.715 18.763.418 39.8 1.37 59.438 7.26 14.938 4.481 23.692 10.178 21.54 17.559-1.033 3.545-4.172 5.399-8.348 4.146-3.788-1.136-5.212-3.935-4.36-6.856.346-1.188.935-2.049 1.906-2.627-.409-.842-1.263-1.607-2.565-1.997-2.739-.822-5.341.642-6.25 3.759-1.402 4.81 1.742 9.46 8.405 11.458 6.663 1.999 12.997-.528 14.865-6.935 1.533-5.259-1.058-10.865-8.207-14.746 2.426.664 4.39 1.317 6.158 1.847 45.785 13.733 86.055 40.447 138.95 56.313 59.538 17.858 93.898 1.944 102.715-28.303zM268.783 36.789c-9.344-2.802-18.838.492-21.302 8.945-1.97 6.758 1.695 12.665 8.882 14.821 6.605 1.981 12.107.137 13.418-4.362.942-3.233-1.468-6.413-5.767-6.305.485 4.424-2.482 8.3-8.057 6.627-3.847-1.154-6.551-4.485-5.018-9.744 1.675-5.745 7.69-8.41 14.936-6.237 8.43 2.529 12.917 9.021 10.521 17.24-3.826 13.128-16.042 20.54-43.043 12.442-30.945-9.282-63.302-37.414-97.335-47.622-16.492-4.947-33.654-4.842-46.082 2.21 13.018-2.554 27.26-3.005 44.471 2.157 15.715 4.714 30.389 11.91 43.164 19.174 18.885 10.726 37.524 22.946 57.085 28.813 22.048 6.614 42.754 3.696 48.261-15.196 2.992-10.264-2.174-19.354-14.14-22.943"/></svg>