<svg width="1440" height="190" viewBox="0 0 1440 190" fill="none" xmlns="http://www.w3.org/2000/svg">
<g opacity="0.2" clip-path="url(#clip0_5545_38817)">
<g opacity="0.5" style="mix-blend-mode:color-burn">
<path d="M61.3892 114.839C52.3346 105.125 39.4928 101.118 27.4866 101.118C7.68809 101.118 -3.89131 112.518 -3.89131 127.932C-3.89131 141.863 6.42571 153.69 28.5401 153.69C59.4911 153.69 80.552 133.841 101.186 111.043C119.086 91.4127 134.671 69.6612 154.251 50.0312C144.352 54.6746 130.666 58.2619 116.979 58.2619C97.6078 58.2619 76.9737 52.1435 76.9737 32.0855C76.9647 14.1398 94.2384 0 128.768 0C150.246 0 172.779 7.60255 192.786 19.8486C197.844 16.6801 202.476 14.3583 206.681 12.4554L227.315 11.6087L212.158 33.5605C216.58 37.3572 220.794 41.163 224.79 45.1692L221.003 48.9659C217.216 44.9506 213.211 41.3633 209.215 37.776C184.785 73.6673 157.412 113.774 144.143 142.482C146.459 144.594 160.146 130.236 165.831 124.117C177.41 111.871 207.108 78.5202 211.104 74.0862C230.476 52.5532 254.697 28.4891 279.118 12.4463L304.175 11.5996C264.169 61.2119 218.896 126.02 218.896 143.119C218.896 146.916 220.585 148.819 224.373 148.819C235.743 148.819 252.59 133.195 279.118 96.8847L283.123 99.6253C251.537 143.957 233.01 158.315 213.42 158.315C200.996 158.315 195.311 152.406 195.311 143.329C195.311 122.642 237.423 68.3865 267.121 29.1173C265.014 31.0202 258.066 36.9293 254.488 40.3072C217.634 74.2956 181.206 121.586 154.469 146.279C150.891 149.866 141.628 158.097 131.728 158.097C124.572 158.097 118.887 154.3 118.669 149.228C118.033 139.095 135.516 112.709 145.415 96.8756C154.678 82.0984 171.107 58.0343 192.377 29.955C135.734 65.4184 103.093 158.943 28.5492 158.943C0.331768 158.943 -13.9904 146.488 -13.9904 128.123C-13.9904 109.759 0.749533 95.61 27.4957 95.61C40.7643 95.61 55.2953 100.044 65.6123 111.025L61.3983 114.821L61.3892 114.839ZM116.979 53.1996C137.405 53.1996 156.567 44.9689 174.041 32.9322C178.464 29.5543 183.096 26.1764 187.936 23.008C167.093 10.9713 145.397 5.27171 128.768 5.27171C103.92 5.27171 85.8104 14.1398 85.8104 32.0855C85.8104 44.7503 96.7632 53.1996 116.979 53.1996Z" fill="#12284C"/>
</g>
<g opacity="0.5" style="mix-blend-mode:color-burn">
<path d="M342.918 71.7736L362.925 70.7175C347.768 94.7816 341.864 104.496 336.397 114.63C333.445 119.692 329.241 128.351 329.241 132.148C329.241 135.107 330.921 136.163 333.454 136.163C341.038 136.163 350.928 127.932 369.673 101.965L373.678 104.496C358.303 126.029 342.727 145.45 324.618 145.45C316.408 145.45 311.349 141.435 311.349 133.841C311.349 128.351 314.083 122.442 316.399 118.008C306.291 130.464 293.24 145.45 276.393 145.45C266.494 145.45 261.862 139.96 261.862 131.52C261.862 121.386 269.227 109.14 278.282 96.8939C291.76 79.1577 308.18 69.4519 322.711 69.4519C330.294 69.4519 336.397 72.1925 338.504 78.5294L342.927 71.7736H342.918ZM286.265 135.954C291.95 135.954 299.743 129.617 307.535 120.758C316.798 110.205 326.489 96.903 332.174 87.1882C332.81 86.132 333.645 84.0197 333.645 82.1259C333.854 77.9012 330.694 75.5795 326.271 75.5795C318.896 75.5795 311.113 80.8603 300.16 94.3719C289.843 107.037 280.998 122.661 280.998 130.473C280.998 133.213 281.842 135.963 286.265 135.963V135.954Z" fill="#12284C"/>
</g>
<g opacity="0.5" style="mix-blend-mode:color-burn">
<path d="M403.766 125.61C391.134 139.969 380.608 145.459 369.655 145.459C360.809 145.459 355.76 139.759 355.76 131.738C355.76 121.395 363.125 109.149 371.553 97.7496C384.186 80.6507 400.188 69.4609 417.462 69.4609C425.463 69.4609 430.304 72.6293 432.411 78.329C443.363 60.3833 469.474 16.6892 469.474 16.6892L489.899 15.4236L458.521 66.9297C443.99 90.9938 435.362 105.352 429.886 115.486C426.934 120.976 423.356 128.36 423.356 132.585C423.356 134.697 424.618 136.172 427.361 136.172C433.464 136.172 442.737 131.529 463.789 101.974L467.794 104.505C449.049 131.319 435.789 145.459 418.098 145.459C409.679 145.459 405.256 141.234 405.256 134.06C405.256 128.151 407.99 122.66 410.305 118.017L403.776 125.62L403.766 125.61ZM399.552 122.651C408.189 113.364 417.871 100.909 425.454 88.2442C426.716 86.1318 427.561 83.8101 427.561 82.1257C427.561 78.1105 425.245 75.5793 420.822 75.5793C412.821 75.5793 405.029 80.6416 394.076 94.3717C384.604 106.19 374.913 122.87 374.913 130.682C374.913 133.641 376.176 135.963 379.545 135.963C383.759 135.963 389.862 133.432 399.552 122.66V122.651Z" fill="#12284C"/>
</g>
<g opacity="0.5" style="mix-blend-mode:color-burn">
<path d="M475.35 86.132C487.983 73.886 500.616 69.4519 510.306 69.4519C518.516 69.4519 523.366 72.1925 523.366 79.3762C523.366 89.7193 512.631 101.328 494.94 108.931C488.836 111.671 480.617 113.574 475.986 113.993C473.879 118.217 471.772 123.28 471.772 128.77C471.772 134.26 475.35 137.21 482.297 137.21C499.562 137.21 515.356 121.796 529.042 101.956L533.047 104.487C518.516 125.383 500.407 145.441 475.35 145.441C460.192 145.441 453.027 139.104 453.027 128.551C453.027 114.193 464.397 96.8848 475.35 86.1229V86.132ZM514.311 78.1106C514.311 75.9983 513.258 74.5233 510.942 74.5233C502.732 74.5233 490.517 87.1881 478.51 109.149C494.513 106.408 514.311 89.9378 514.311 78.1197V78.1106Z" fill="#12284C"/>
</g>
<g opacity="0.5" style="mix-blend-mode:color-burn">
<path d="M706.765 65.2362C734.565 49.6123 756.67 34.8351 756.67 20.2674C756.67 14.7771 753.51 11.6086 747.198 11.6086C723.194 11.6086 699.4 49.6123 685.922 69.2423C676.014 77.7554 639.26 117.416 629.487 118.217C626.972 118.427 624.856 117.371 624.011 116.742C631.386 104.924 636.853 93.525 636.853 83.3913C636.853 74.5232 631.168 69.4609 620.642 69.4609C610.116 69.4609 595.158 74.7417 580.418 92.2594C571.363 103.03 563.362 116.533 563.362 128.779C563.362 138.703 569.048 145.459 582.316 145.459C597.901 145.459 610.951 134.688 621.277 120.548C623.384 122.023 626.518 122.824 629.487 122.66C640.259 122.05 670.964 89.5279 677.703 82.9725L644.009 139.55C642.747 139.341 641.694 139.131 640.431 138.494C641.276 137.228 641.902 135.753 641.902 134.269C641.902 131.529 640.222 130.045 637.897 130.045C634.11 130.045 631.794 133.632 631.794 136.591C631.794 141.653 636.426 143.556 641.058 144.193C629.687 162.767 618.735 180.085 611.578 190L633.266 188.944C640.849 177.963 651.166 161.502 661.901 143.556C683.588 140.178 700.226 127.723 716.864 104.505L712.859 101.974C698.537 121.604 684.433 133.641 665.061 138.075C677.485 117.179 690.118 94.7997 700.435 76.4352L706.756 65.2453L706.765 65.2362ZM720.66 42.6471C725.292 35.4725 738.134 16.4706 747.407 16.4706C750.358 16.4706 751.621 17.7362 751.621 20.2674C751.621 31.0384 733.929 44.1221 711.615 57.2148C715.193 51.3058 718.563 45.8156 720.67 42.6471H720.66ZM615.374 110.196C615.374 113.574 616.219 115.686 617.481 117.371C609.689 128.56 599.581 137.219 590.317 137.219C584.841 137.219 582.107 134.688 582.107 128.988C582.107 111.68 607.8 75.7887 623.593 75.7887C629.07 75.7887 631.594 78.5293 631.594 83.3913C631.594 85.0757 631.177 86.5598 631.177 86.5598C622.967 88.6721 615.383 100.49 615.383 110.205L615.374 110.196Z" fill="#12284C"/>
</g>
<g opacity="0.5" style="mix-blend-mode:color-burn">
<path d="M1087.47 101.965C1068.72 127.932 1058.41 136.372 1049.78 136.372C1046.83 136.372 1045.36 135.107 1045.36 132.785C1045.36 121.176 1073.16 96.2655 1073.16 79.7948C1073.16 72.6202 1068.73 69.4517 1060.52 69.4517C1048.1 69.4517 1033.78 80.0042 1022.2 93.5158C1025.15 87.1789 1026.41 84.0195 1026.41 79.3669C1026.41 72.8205 1021.78 69.4426 1014.62 69.4426C1000.09 69.4426 988.721 81.2607 977.986 93.5067C980.511 88.0165 981.991 83.373 981.991 79.1484C981.991 73.4487 978.722 68.1406 971.247 69.4335C954.564 72.3288 940.823 99.4522 915.24 105.643L939.252 69.0056C966.207 27.6331 984.734 8.84073 992.318 7.78457V6.7284C986.632 5.67224 981.365 5.25342 974.626 5.25342C956.517 5.25342 924.93 11.3719 884.924 47.682L880.084 43.8853C868.922 35.8639 856.916 33.1143 845.972 33.1143C824.493 33.1143 807.02 45.7791 807.02 67.1027C807.02 86.1045 819.026 98.132 832.921 105.106C809.127 133.186 785.959 156.403 754.59 156.403C734.374 156.403 726.373 146.479 726.373 135.507C726.373 125.164 734.374 116.087 750.376 116.087C758.586 116.087 767.85 118.827 774.38 125.583L777.749 122.624C770.374 114.812 759.849 111.434 750.167 111.434C729.533 111.434 717.945 123.252 717.945 135.708C717.945 150.904 730.369 161.037 754.799 161.037C794.178 161.037 825.338 137.183 850.186 111.216C856.925 112.691 864.717 113.537 873.981 113.537C878.403 113.537 882.617 113.328 886.405 112.9L884.507 115.859C874.398 131.274 865.762 144.995 859.023 157.241H883.871C891.872 144.148 911.525 111.735 911.525 111.735C940.596 104.505 957.062 78.0831 962.974 78.074C964.5 78.074 965.735 79.1484 965.78 80.678C965.88 84.4292 961.684 92.2412 952.303 107.419C943.666 121.349 933.349 137.183 928.717 144.366L948.933 143.52C948.933 143.52 967.46 115.231 972.31 108.475C983.045 93.9073 997.158 78.2834 1005.58 78.2834C1007.68 78.2834 1008.74 79.3396 1008.74 81.2425C1008.74 83.3548 1007.89 86.5233 1004.52 92.6418C998.838 102.985 972.092 144.366 972.092 144.366L992.308 143.52C992.308 143.52 1007.26 121.14 1012.73 112.909C1024.1 96.0197 1042.42 78.2834 1051.48 78.2834C1053.58 78.2834 1054.64 79.3396 1054.64 81.2425C1054.64 93.0606 1026.42 116.706 1026.42 133.805C1026.42 141.407 1031.9 145.413 1039.9 145.413C1060.32 145.413 1074.01 129.161 1091.49 104.46L1087.49 101.929L1087.47 101.965ZM835.628 101.328C821.306 93.5158 816.256 81.6977 816.256 68.8144C816.256 54.0372 826.364 39.4694 848.896 39.4694C859.631 39.4694 868.904 42.6379 877.958 48.547C879.012 49.1843 880.065 50.022 880.91 50.8687C874.171 57.4151 867.015 64.5897 859.64 73.039C851.43 82.5354 843.429 92.0408 835.637 101.328H835.628ZM891.636 104.924L889.738 107.883C886.577 108.302 879.421 108.73 873.526 108.73C867.206 108.73 859.413 108.093 853.728 107.046C866.361 93.534 877.314 79.813 886.995 68.8326L891.418 63.9797C895.632 71.3728 897.312 78.5475 897.312 83.8192C897.312 91.4217 896.05 98.3869 891.627 104.933L891.636 104.924ZM901.744 89.7191C902.162 87.8162 902.162 85.9224 902.162 84.0195C902.162 76.8449 899.846 68.1861 894.787 60.1648C929.952 21.9517 949.751 10.7619 973.963 9.92421C958.378 18.155 936.691 39.688 915.421 69.8796C911.207 76.2166 906.367 82.9724 901.735 89.7191H901.744Z" fill="#12284C"/>
</g>
<g opacity="0.5" style="mix-blend-mode:color-burn">
<path d="M1099.25 86.132C1111.88 73.886 1124.51 69.4519 1134.2 69.4519C1142.41 69.4519 1147.26 72.1925 1147.26 79.3762C1147.26 89.7193 1136.53 101.328 1118.84 108.931C1112.73 111.671 1104.52 113.574 1099.88 113.993C1097.78 118.217 1095.67 123.28 1095.67 128.77C1095.67 134.26 1099.25 137.21 1106.2 137.21C1123.46 137.21 1139.25 121.796 1152.94 101.956L1156.94 104.487C1142.41 125.383 1124.3 145.441 1099.25 145.441C1084.09 145.441 1076.92 139.104 1076.92 128.551C1076.92 114.193 1088.3 96.8848 1099.25 86.1229V86.132ZM1138.21 78.1106C1138.21 75.9983 1137.16 74.5233 1134.84 74.5233C1126.63 74.5233 1114.41 87.1881 1102.41 109.149C1118.41 106.408 1138.21 89.9378 1138.21 78.1197V78.1106Z" fill="#12284C"/>
</g>
<g opacity="0.5" style="mix-blend-mode:color-burn">
<path d="M1146.84 144.394C1149.57 139.541 1170.21 109.559 1180.1 92.6692C1184.11 85.9134 1186 82.3261 1186 79.7949C1186 78.32 1185.36 77.0544 1183.47 77.0544C1178.21 77.0544 1169.79 86.5507 1155.89 105.98L1151.89 103.449C1169.36 78.9573 1178.41 69.4609 1190.21 69.4609C1198 69.4609 1201.37 73.4762 1201.37 78.9573C1201.37 85.9225 1197.59 92.2595 1190.42 104.715C1212.32 75.5794 1223.06 69.4609 1231.48 69.4609C1237.58 69.4609 1240.74 72.2015 1240.74 76.0073C1233.16 78.3291 1223.9 89.1001 1223.9 97.3309C1223.9 100.918 1225.59 103.24 1230.22 103.24C1238.43 103.24 1247.06 95.428 1255.07 87.1972L1258.23 90.1563C1249.59 98.815 1240.33 108.311 1226.64 108.311C1215.06 108.311 1210.43 103.668 1210.43 96.2747C1210.43 92.0501 1212.12 87.8345 1215.27 83.1819C1200.74 96.4841 1177.79 127.304 1167.89 143.556L1146.83 144.403L1146.84 144.394Z" fill="#12284C"/>
</g>
<g opacity="0.5" style="mix-blend-mode:color-burn">
<path d="M1279.08 70.5079C1271.08 82.9633 1256.13 107.027 1256.13 107.027C1250.03 116.952 1243.5 127.923 1243.5 132.576C1243.5 134.897 1244.97 136.372 1247.5 136.372C1256.14 136.372 1266.66 128.142 1285.4 101.965L1289.4 104.496C1275.08 124.973 1258.66 145.45 1239.07 145.45C1230.23 145.45 1225.18 140.597 1225.18 132.994C1225.18 127.714 1226.65 121.386 1233.39 110.615C1233.39 110.615 1256.97 74.514 1258.65 71.7735L1279.08 70.5079ZM1292.35 27.8699C1296.98 27.8699 1300.98 30.6104 1300.98 36.5286C1300.98 43.4938 1295.3 50.0402 1288.14 50.0402C1282.25 50.0402 1279.3 46.6623 1279.3 41.6C1279.3 35.263 1284.35 27.879 1292.36 27.879L1292.35 27.8699Z" fill="#12284C"/>
</g>
<g opacity="0.5" style="mix-blend-mode:color-burn">
<path d="M1355.09 104.496C1341.41 124.973 1322.66 145.45 1297.6 145.45C1281.81 145.45 1275.71 137.429 1275.71 126.876C1275.71 112.099 1286.23 97.3219 1297.4 86.3414C1310.03 74.0954 1322.87 69.4519 1332.77 69.4519C1343.51 69.4519 1348.56 75.1515 1348.56 82.7541C1348.56 88.2443 1344.78 93.7345 1338.87 93.7345C1334.87 93.7345 1333.19 91.2034 1333.19 89.0911C1333.19 84.8664 1337.19 82.3353 1337.19 78.5385C1337.19 76.4262 1336.14 74.7418 1332.98 74.7418C1319.08 74.7418 1294.86 111.261 1294.86 127.095C1294.86 132.794 1297.39 137.228 1305.61 137.228C1322.66 137.228 1338.25 121.395 1351.09 101.974L1355.09 104.506V104.496Z" fill="#12284C"/>
</g>
<g opacity="0.5" style="mix-blend-mode:color-burn">
<path d="M1418.26 71.7736L1438.27 70.7175C1423.11 94.7816 1417.2 104.496 1411.74 114.63C1408.79 119.692 1404.58 128.351 1404.58 132.148C1404.58 135.107 1406.26 136.163 1408.79 136.163C1416.38 136.163 1426.27 127.932 1445.01 101.965L1449.02 104.496C1433.64 126.029 1418.07 145.45 1399.96 145.45C1391.75 145.45 1386.69 141.435 1386.69 133.841C1386.69 128.351 1389.42 122.442 1391.74 118.008C1381.63 130.464 1368.58 145.45 1351.73 145.45C1341.83 145.45 1337.2 139.96 1337.2 131.52C1337.2 121.386 1344.57 109.14 1353.62 96.8939C1367.1 79.1577 1383.52 69.4519 1398.05 69.4519C1405.63 69.4519 1411.74 72.1925 1413.84 78.5294L1418.27 71.7736H1418.26ZM1361.61 135.954C1367.3 135.954 1375.09 129.617 1382.88 120.758C1392.15 110.205 1401.84 96.903 1407.52 87.1882C1408.16 86.132 1408.99 84.0197 1408.99 82.1259C1409.2 77.9012 1406.04 75.5795 1401.62 75.5795C1394.25 75.5795 1386.46 80.8603 1375.51 94.3719C1365.19 107.037 1356.35 122.661 1356.35 130.473C1356.35 133.213 1357.19 135.963 1361.61 135.963V135.954Z" fill="#12284C"/>
</g>
</g>
<defs>
<clipPath id="clip0_5545_38817">
<rect width="1463" height="190" fill="white" transform="translate(-14)"/>
</clipPath>
</defs>
</svg>
